<svg width="468" height="382" viewBox="0 0 468 382" fill="none" xmlns="http://www.w3.org/2000/svg">
<path d="M145.32 128.495L102.979 148.808L101.266 323.372H109.848L151.042 303.694L152.835 170.39L153.308 135.236C153.322 134.139 153.567 132.897 152.844 132.072C151.949 131.05 149.811 129.741 145.32 128.495Z" fill="#1B3652"/>
<path d="M66.3625 141.191L102.979 148.808L145.32 128.495L111.237 121.995C109.59 121.681 107.886 121.893 106.366 122.599L104.964 123.251C104.987 123.262 104.986 123.295 104.963 123.305L66.3625 141.191Z" fill="url(#paint0_linear_2_125)"/>
<path d="M62.5396 311.34C64.9145 309.887 66.3625 307.302 66.3625 304.518V141.191L104.964 123.251L101.266 121.512L65.0674 139.614C62.3573 140.969 60.6455 143.739 60.6455 146.769V312.5L62.5396 311.34Z" fill="#000010"/>
<path fill-rule="evenodd" clip-rule="evenodd" d="M104.964 123.251C104.987 123.262 104.986 123.295 104.963 123.305L66.3625 141.191L104.964 123.251ZM393.563 381.757L393.623 381.766V381.772C393.601 381.766 393.579 381.761 393.559 381.756L393.563 381.757Z" fill="url(#paint1_linear_2_125)"/>
<path d="M197.956 201.613L243.726 179.396L206.3 173.464C204.597 173.194 202.853 173.481 201.326 174.284L160.196 195.9L197.956 201.613Z" fill="url(#paint2_linear_2_125)"/>
<path d="M251.736 182.57L209.399 203.517L246.015 210.5L289.496 188.283L260.89 183.955L251.736 182.57Z" fill="url(#paint3_linear_2_125)"/>
<path d="M289.496 188.283L246.015 210.5V352.572C249.806 352.572 252.88 349.498 252.88 345.707V215.975C252.88 212.999 254.532 210.27 257.167 208.889L294.073 189.552L289.496 188.283Z" fill="#1B3652"/>
<path d="M294.073 189.552L257.167 208.889C254.532 210.27 252.88 212.999 252.88 215.975V345.707C252.88 349.498 249.806 352.572 246.015 352.572C247.54 352.995 251.507 353.588 255.169 352.572C258.83 351.557 284.919 339.03 297.506 332.894L294.073 189.552Z" fill="#1B3652"/>
<path d="M389.046 264.973L351.729 258.466C349.96 258.158 348.138 258.454 346.557 259.306L307.804 280.207L345.565 287.825L389.046 264.973Z" fill="url(#paint4_linear_2_125)"/>
<path d="M389.046 264.973L345.565 287.825L343.276 372.885L355.863 372.25V289.094L389.046 272.59V264.973Z" fill="#1B3652"/>
<path d="M389.046 272.59L355.863 289.094L393.623 297.981L438.249 275.129L401.716 268.572C400.169 268.295 398.576 268.478 397.133 269.101L389.046 272.59Z" fill="url(#paint5_linear_2_125)"/>
<path d="M355.863 289.094V372.25L393.559 381.756L393.563 381.757L393.623 381.766V297.981L355.863 289.094Z" fill="url(#paint6_linear_2_125)"/>
<path d="M438.249 275.129L393.623 297.981V381.766C394.421 381.889 397.045 382.163 402.389 381.868C403.4 381.812 404.391 381.547 405.304 381.107L438.249 365.268V275.129Z" fill="#1B3652"/>
<path d="M18.3081 134.843L54.9242 140.556L98.4059 120.243L64.1994 114.906C62.6286 114.661 61.0205 114.889 59.5801 115.562L18.3081 134.843Z" fill="url(#paint7_linear_2_125)"/>
<path d="M9.3041 0.537248C4.4312 -0.267866 0 3.49128 0 8.43024V270.765C0 274.731 2.90586 278.098 6.82926 278.678L17.1638 280.207L18.3081 134.843L59.5801 115.562C61.0205 114.889 62.6286 114.661 64.1994 114.906L98.4059 120.243L101.266 121.512L104.964 123.251L106.366 122.599C107.886 121.893 109.59 121.681 111.237 121.995L145.32 128.495C149.811 129.741 151.949 131.05 152.844 132.072C153.567 132.897 153.322 134.139 153.308 135.236L152.835 170.39L151.042 303.694L160.196 305.599V195.9L201.326 174.284C202.853 173.481 204.597 173.194 206.3 173.464L243.726 179.396L251.736 182.57L260.89 183.955L289.496 188.283L294.073 189.552L297.506 332.894L307.804 334.798V280.207L346.557 259.306C348.138 258.454 349.96 258.158 351.729 258.466L389.046 264.973V272.59L397.133 269.101C398.576 268.478 400.169 268.295 401.716 268.572L438.249 275.129V365.268L450.836 367.172L457.379 368.296C462.253 369.134 466.712 365.393 466.734 360.448L467.97 83.1415C467.987 79.2131 465.15 75.8532 461.274 75.2129L450.836 73.4883L9.3041 0.537248Z" fill="url(#paint8_linear_2_125)"/>
<path d="M17.1638 280.207V301.413C17.1638 305.3 19.9588 308.625 23.7887 309.294L54.9242 314.726V140.556L18.3081 134.843L17.1638 280.207Z" fill="url(#paint9_linear_2_125)"/>
<path d="M102.979 148.808L66.3625 141.191V310.348C66.3625 314.214 69.1273 317.527 72.9311 318.219L101.266 323.372L102.979 148.808Z" fill="url(#paint10_linear_2_125)"/>
<path d="M197.956 343.685V201.613L160.196 195.9V305.599V329.521C160.196 333.329 162.88 336.61 166.614 337.363L197.956 343.685Z" fill="url(#paint11_linear_2_125)"/>
<path d="M246.015 210.5L209.399 203.517V338.448C209.399 342.238 212.058 345.508 215.769 346.28L246.015 352.572V210.5Z" fill="url(#paint12_linear_2_125)"/>
<path d="M345.565 287.825L307.804 280.207V334.798V365.903L343.276 372.885L345.565 287.825Z" fill="url(#paint13_linear_2_125)"/>
<path d="M54.9242 140.556V314.726L60.6455 312.5V146.769C60.6455 143.739 62.3573 140.969 65.0674 139.614L101.266 121.512L98.4059 120.243L54.9242 140.556Z" fill="#1B3652"/>
<path d="M243.726 179.396L197.956 201.613V343.685L202.223 343.243C206.3 342.821 209.399 339.385 209.399 335.286V203.517L251.736 182.57L243.726 179.396Z" fill="#1B3652"/>
<defs>
<linearGradient id="paint0_linear_2_125" x1="234" y1="-1" x2="234" y2="382" gradientUnits="userSpaceOnUse">
<stop stop-color="#3E6C84"/>
<stop offset="1" stop-color="#93C8E3"/>
</linearGradient>
<linearGradient id="paint1_linear_2_125" x1="229.995" y1="685.831" x2="237.744" y2="-257.594" gradientUnits="userSpaceOnUse">
<stop stop-color="#11181B"/>
<stop offset="1" stop-color="#628598"/>
</linearGradient>
<linearGradient id="paint2_linear_2_125" x1="234" y1="-1" x2="234" y2="382" gradientUnits="userSpaceOnUse">
<stop stop-color="#3E6C84"/>
<stop offset="1" stop-color="#93C8E3"/>
</linearGradient>
<linearGradient id="paint3_linear_2_125" x1="234" y1="-1" x2="234" y2="382" gradientUnits="userSpaceOnUse">
<stop stop-color="#3E6C84"/>
<stop offset="1" stop-color="#93C8E3"/>
</linearGradient>
<linearGradient id="paint4_linear_2_125" x1="234" y1="-1" x2="234" y2="382" gradientUnits="userSpaceOnUse">
<stop stop-color="#3E6C84"/>
<stop offset="1" stop-color="#93C8E3"/>
</linearGradient>
<linearGradient id="paint5_linear_2_125" x1="234" y1="-1" x2="234" y2="382" gradientUnits="userSpaceOnUse">
<stop stop-color="#3E6C84"/>
<stop offset="1" stop-color="#93C8E3"/>
</linearGradient>
<linearGradient id="paint6_linear_2_125" x1="234" y1="-1" x2="234" y2="382" gradientUnits="userSpaceOnUse">
<stop stop-color="#516E7D"/>
<stop offset="1" stop-color="#93C8E3"/>
</linearGradient>
<linearGradient id="paint7_linear_2_125" x1="234" y1="-1" x2="234" y2="382" gradientUnits="userSpaceOnUse">
<stop stop-color="#3E6C84"/>
<stop offset="1" stop-color="#93C8E3"/>
</linearGradient>
<linearGradient id="paint8_linear_2_125" x1="234" y1="-1" x2="234" y2="382" gradientUnits="userSpaceOnUse">
<stop stop-color="#4E7B93"/>
<stop offset="1" stop-color="#18262D"/>
</linearGradient>
<linearGradient id="paint9_linear_2_125" x1="234" y1="-1" x2="234" y2="382" gradientUnits="userSpaceOnUse">
<stop stop-color="#516E7D"/>
<stop offset="1" stop-color="#93C8E3"/>
</linearGradient>
<linearGradient id="paint10_linear_2_125" x1="234" y1="-1" x2="234" y2="382" gradientUnits="userSpaceOnUse">
<stop stop-color="#516E7D"/>
<stop offset="1" stop-color="#93C8E3"/>
</linearGradient>
<linearGradient id="paint11_linear_2_125" x1="234" y1="-1" x2="234" y2="382" gradientUnits="userSpaceOnUse">
<stop stop-color="#516E7D"/>
<stop offset="1" stop-color="#93C8E3"/>
</linearGradient>
<linearGradient id="paint12_linear_2_125" x1="234" y1="-1" x2="234" y2="382" gradientUnits="userSpaceOnUse">
<stop stop-color="#516E7D"/>
<stop offset="1" stop-color="#93C8E3"/>
</linearGradient>
<linearGradient id="paint13_linear_2_125" x1="234" y1="-1" x2="234" y2="382" gradientUnits="userSpaceOnUse">
<stop stop-color="#516E7D"/>
<stop offset="1" stop-color="#93C8E3"/>
</linearGradient>
</defs>
</svg>
