<svg width="206" height="49" viewBox="0 0 206 49" fill="none" xmlns="http://www.w3.org/2000/svg">
<path d="M63.802 31.66C63.802 33.3613 63.12 34.6593 61.756 35.554C60.5827 36.3313 59.1087 36.72 57.334 36.72C56.2633 36.72 55.068 36.4707 53.748 35.972L53.77 32.474H54.43C54.518 33.6327 54.8627 34.4687 55.464 34.982C55.7427 35.2167 56.1533 35.4147 56.696 35.576C57.2387 35.7373 57.73 35.8107 58.17 35.796C59.182 35.7813 60.0693 35.51 60.832 34.982C61.58 34.4393 61.9687 33.7133 61.998 32.804C61.998 31.8507 61.6607 31.088 60.986 30.516C60.326 29.944 59.4093 29.592 58.236 29.46C55.112 29.0787 53.55 27.7733 53.55 25.544C53.55 23.9893 54.144 22.8087 55.332 22.002C56.344 21.298 57.576 20.946 59.028 20.946C59.4533 20.946 59.9593 21.012 60.546 21.144C61.1327 21.2613 61.5067 21.32 61.668 21.32C61.844 21.32 61.9613 21.21 62.02 20.99H62.636V24.928H61.976C61.8733 23.8427 61.5433 23.058 60.986 22.574C60.4433 22.09 59.6293 21.8553 58.544 21.87C56.4027 21.8993 55.3467 22.86 55.376 24.752C55.4053 26.4387 56.5787 27.3993 58.896 27.634C62.1667 27.986 63.802 29.328 63.802 31.66ZM67.1173 24.598H68.2393V27.304L70.9893 27.26L70.9453 28.272H68.2393V33.948C68.2393 34.9307 68.6206 35.422 69.3833 35.422C69.7206 35.422 70.1386 35.29 70.6373 35.026L70.7913 35.268C70.2926 36.28 69.53 36.786 68.5033 36.786C67.0953 36.7567 66.3913 35.9867 66.3913 34.476V28.272L64.7413 28.316V27.722C64.844 27.6927 64.9833 27.656 65.1593 27.612C65.834 27.4507 66.3253 27.1353 66.6333 26.666C66.9413 26.182 67.1026 25.4927 67.1173 24.598ZM81.0287 27.656C81.9674 28.58 82.4367 29.8047 82.4367 31.33C82.4367 32.8407 81.916 34.1093 80.8747 35.136C79.8334 36.1627 78.4694 36.6907 76.7827 36.72C75.448 36.7347 74.3187 36.2727 73.3947 35.334C72.5147 34.3807 72.0747 33.1267 72.0747 31.572C72.0747 30.0027 72.566 28.7193 73.5487 27.722C74.5314 26.7247 75.866 26.226 77.5527 26.226C78.946 26.226 80.1047 26.7027 81.0287 27.656ZM77.6627 36.016C78.5867 36.016 79.276 35.6273 79.7307 34.85C80.2 34.0727 80.4347 33.068 80.4347 31.836C80.4347 30.5893 80.1194 29.46 79.4887 28.448C78.8434 27.4507 78.044 26.952 77.0907 26.952C75.0814 26.952 74.0767 28.2353 74.0767 30.802C74.0767 32.166 74.326 33.3173 74.8247 34.256C75.4554 35.4293 76.4014 36.016 77.6627 36.016ZM85.5416 30.912C85.5416 32.496 85.9303 33.6767 86.7076 34.454C87.4849 35.2313 88.4236 35.62 89.5236 35.62C90.2716 35.62 91.0049 35.4147 91.7236 35.004L91.9436 35.312C91.0636 36.236 89.9343 36.698 88.5556 36.698C87.1916 36.698 86.0476 36.28 85.1236 35.444C84.1556 34.52 83.6716 33.31 83.6716 31.814C83.6716 30.3033 84.2143 28.9833 85.2996 27.854C86.4289 26.754 87.7783 26.2333 89.3476 26.292C90.2569 26.3507 90.9169 26.578 91.3276 26.974C91.7383 27.3553 91.9289 27.7513 91.8996 28.162C91.8849 28.558 91.7529 28.8587 91.5036 29.064C91.2543 29.2693 90.9903 29.372 90.7116 29.372C90.4329 29.372 90.1763 29.3133 89.9416 29.196C89.7069 29.064 89.6116 28.9173 89.6556 28.756C89.6996 28.5947 89.8389 28.4553 90.0736 28.338C90.3376 28.1767 90.4476 28.008 90.4036 27.832C90.3596 27.3333 89.8536 27.084 88.8856 27.084C88.2256 27.084 87.5509 27.37 86.8616 27.942C85.9816 28.6607 85.5416 29.6507 85.5416 30.912ZM99.6797 35.906C100.31 35.95 100.626 35.84 100.626 35.576C100.626 35.444 100.574 35.3267 100.472 35.224L96.5777 31.462L96.5557 35.422C96.5997 35.7447 96.761 35.906 97.0397 35.906H98.2717V36.5H93.0577V35.906H94.3117C94.5904 35.906 94.7517 35.7447 94.7957 35.422V22.442C94.7517 22.1193 94.5904 21.958 94.3117 21.958H93.0577V21.364H96.5777V31.022L98.1177 29.812L100.274 27.854C100.42 27.7513 100.494 27.6267 100.494 27.48C100.494 27.3187 100.376 27.238 100.142 27.238H98.8877V26.666H104.124V27.238L103.112 27.282C102.569 27.3113 101.894 27.7147 101.088 28.492L98.3817 30.582C98.5284 30.802 98.9757 31.286 99.7237 32.034C102.305 34.6153 103.86 35.906 104.388 35.906H105.136V36.5H99.6797V35.906ZM113.916 33.398C113.916 34.41 113.52 35.2313 112.728 35.862C111.951 36.478 111.056 36.786 110.044 36.786C109.047 36.786 108.145 36.5953 107.338 36.214C107.104 36.126 106.964 36.258 106.92 36.61C106.671 36.566 106.502 36.566 106.414 36.61V33.002H107.052V33.64C107.052 34.1093 107.331 34.6227 107.888 35.18C108.46 35.7227 109.113 35.9867 109.846 35.972C110.58 35.9573 111.174 35.8033 111.628 35.51C112.083 35.2167 112.31 34.784 112.31 34.212C112.31 33.64 111.929 33.1927 111.166 32.87C110.125 32.5033 109.113 32.122 108.13 31.726C106.913 31.2273 106.304 30.4427 106.304 29.372C106.304 28.3013 106.73 27.4947 107.58 26.952C108.284 26.4827 109.201 26.248 110.33 26.248C110.8 26.248 111.511 26.402 112.464 26.71V26.292H113.058V29.218H112.42V28.756C112.42 28.228 112.171 27.8027 111.672 27.48C111.188 27.1427 110.565 26.974 109.802 26.974C109.054 26.974 108.504 27.172 108.152 27.568C107.874 27.92 107.764 28.3087 107.822 28.734C107.896 29.1593 108.108 29.4747 108.46 29.68C108.622 29.7973 109.26 30.0613 110.374 30.472C111.504 30.868 112.332 31.2273 112.86 31.55C113.564 32.034 113.916 32.65 113.916 33.398ZM121.816 21.342C123.62 21.342 124.984 21.738 125.908 22.53C126.832 23.322 127.294 24.3927 127.294 25.742C127.294 27.0913 126.67 28.1473 125.424 28.91C124.338 29.5847 122.886 29.922 121.068 29.922H119.22V35.818H121.266V36.5H115.15V35.818H117.218V22.024H115.15V21.342H121.816ZM123.796 28.514C124.632 27.8833 125.035 26.9373 125.006 25.676C124.976 24.4147 124.683 23.4907 124.126 22.904C123.583 22.3173 122.725 22.024 121.552 22.024H119.22V29.328H121.112C122.212 29.328 123.106 29.0567 123.796 28.514ZM133.728 35.906V36.5H128.36V35.906H129.636C129.973 35.906 130.142 35.7373 130.142 35.4L130.12 22.706C130.105 22.2073 129.856 21.958 129.372 21.958H128.338V21.364H131.946V35.4C131.946 35.7373 132.115 35.906 132.452 35.906H133.728ZM144.578 35.884V36.5H141.058V34.696C139.752 36.0747 138.52 36.764 137.362 36.764C136.584 36.764 135.961 36.5367 135.492 36.082C134.978 35.6273 134.722 34.982 134.722 34.146C134.722 32.9873 135.169 32.122 136.064 31.55C136.738 31.1393 137.684 30.824 138.902 30.604L141.058 30.23C141.087 29.1887 140.999 28.426 140.794 27.942C140.5 27.2527 139.994 26.908 139.276 26.908C138.029 26.908 137.398 27.326 137.384 28.162C137.384 28.3087 137.464 28.4847 137.626 28.69C137.802 28.8807 137.89 28.9833 137.89 28.998C137.904 29.218 137.794 29.4013 137.56 29.548C137.34 29.6947 137.134 29.746 136.944 29.702C136.21 29.702 135.851 29.2987 135.866 28.492C135.88 27.6707 136.386 27.0547 137.384 26.644C138 26.4093 138.652 26.292 139.342 26.292C140.5 26.292 141.366 26.6147 141.938 27.26C142.51 27.964 142.796 29.0787 142.796 30.604V35.4C142.796 35.5467 142.847 35.664 142.95 35.752C143.052 35.84 143.17 35.884 143.302 35.884H144.578ZM141.058 33.816V30.956C139.782 31.1173 138.733 31.3593 137.912 31.682C137.53 31.8287 137.215 32.1 136.966 32.496C136.716 32.892 136.592 33.3247 136.592 33.794C136.592 34.2633 136.753 34.6593 137.076 34.982C137.413 35.3047 137.809 35.4807 138.264 35.51C138.733 35.5247 139.224 35.3707 139.738 35.048C140.266 34.7107 140.706 34.3 141.058 33.816ZM157.602 35.906V36.5H152.234V35.906H153.532C153.81 35.906 153.972 35.7373 154.016 35.4V30.186C154.016 29.3353 153.796 28.6753 153.356 28.206C152.916 27.722 152.351 27.48 151.662 27.48C150.972 27.48 150.334 27.7073 149.748 28.162C149.19 28.6313 148.912 29.0713 148.912 29.482V35.4C148.956 35.7373 149.124 35.906 149.418 35.906H150.694V36.5H145.326V35.906H146.602C146.895 35.906 147.064 35.7373 147.108 35.4V27.788C147.093 27.2893 146.844 27.04 146.36 27.04H145.326V26.446H148.934V27.04C148.919 27.216 148.912 27.4213 148.912 27.656V28.096C149.029 27.8173 149.337 27.4653 149.836 27.04C150.584 26.4533 151.398 26.16 152.278 26.16C154.639 26.16 155.82 27.414 155.82 29.922V35.4C155.864 35.7373 156.032 35.906 156.326 35.906H157.602ZM161.27 33.992C161.666 33.992 161.996 34.1313 162.26 34.41C162.538 34.674 162.678 35.004 162.678 35.4C162.678 35.7813 162.546 36.1113 162.282 36.39C162.018 36.654 161.68 36.786 161.27 36.786C160.874 36.786 160.536 36.654 160.258 36.39C159.994 36.1113 159.862 35.7813 159.862 35.4C159.862 35.004 160.001 34.674 160.28 34.41C160.558 34.1313 160.888 33.992 161.27 33.992ZM166.881 30.912C166.881 32.496 167.27 33.6767 168.047 34.454C168.825 35.2313 169.763 35.62 170.863 35.62C171.611 35.62 172.345 35.4147 173.063 35.004L173.283 35.312C172.403 36.236 171.274 36.698 169.895 36.698C168.531 36.698 167.387 36.28 166.463 35.444C165.495 34.52 165.011 33.31 165.011 31.814C165.011 30.3033 165.554 28.9833 166.639 27.854C167.769 26.754 169.118 26.2333 170.687 26.292C171.597 26.3507 172.257 26.578 172.667 26.974C173.078 27.3553 173.269 27.7513 173.239 28.162C173.225 28.558 173.093 28.8587 172.843 29.064C172.594 29.2693 172.33 29.372 172.051 29.372C171.773 29.372 171.516 29.3133 171.281 29.196C171.047 29.064 170.951 28.9173 170.995 28.756C171.039 28.5947 171.179 28.4553 171.413 28.338C171.677 28.1767 171.787 28.008 171.743 27.832C171.699 27.3333 171.193 27.084 170.225 27.084C169.565 27.084 168.891 27.37 168.201 27.942C167.321 28.6607 166.881 29.6507 166.881 30.912ZM183.66 27.656C184.598 28.58 185.068 29.8047 185.068 31.33C185.068 32.8407 184.547 34.1093 183.506 35.136C182.464 36.1627 181.1 36.6907 179.414 36.72C178.079 36.7347 176.95 36.2727 176.026 35.334C175.146 34.3807 174.706 33.1267 174.706 31.572C174.706 30.0027 175.197 28.7193 176.18 27.722C177.162 26.7247 178.497 26.226 180.184 26.226C181.577 26.226 182.736 26.7027 183.66 27.656ZM180.294 36.016C181.218 36.016 181.907 35.6273 182.362 34.85C182.831 34.0727 183.066 33.068 183.066 31.836C183.066 30.5893 182.75 29.46 182.12 28.448C181.474 27.4507 180.675 26.952 179.722 26.952C177.712 26.952 176.708 28.2353 176.708 30.802C176.708 32.166 176.957 33.3173 177.456 34.256C178.086 35.4293 179.032 36.016 180.294 36.016ZM204.452 35.906V36.5H199.106V35.906H200.404C200.683 35.906 200.866 35.7373 200.954 35.4V30.208C200.954 29.4307 200.778 28.7927 200.426 28.294C200.074 27.7807 199.583 27.524 198.952 27.524C198.322 27.524 197.72 27.766 197.148 28.25C196.576 28.7047 196.29 29.13 196.29 29.526L196.268 35.4C196.342 35.7373 196.51 35.906 196.774 35.906H198.05V36.5H192.726V35.906H193.98C194.259 35.906 194.435 35.7373 194.508 35.4V30.208C194.508 29.46 194.34 28.8367 194.002 28.338C193.665 27.7953 193.166 27.524 192.506 27.524C191.861 27.524 191.26 27.7513 190.702 28.206C190.16 28.646 189.888 29.086 189.888 29.526V35.4C189.932 35.7373 190.094 35.906 190.372 35.906H191.648V36.5H186.302V35.906H187.578C187.857 35.906 188.018 35.7373 188.062 35.4V27.81C188.048 27.3113 187.791 27.062 187.292 27.062H186.28V26.446H189.888V28.118C190.182 27.59 190.57 27.172 191.054 26.864C191.7 26.424 192.418 26.204 193.21 26.204C194.604 26.204 195.586 26.8713 196.158 28.206C197.024 26.8713 198.19 26.204 199.656 26.204C200.551 26.204 201.284 26.5193 201.856 27.15C202.443 27.766 202.736 28.602 202.736 29.658L202.714 35.4C202.744 35.7373 202.898 35.906 203.176 35.906H204.452Z" fill="#FFDCBC"/>
<path fill-rule="evenodd" clip-rule="evenodd" d="M11 22L0.045082 22.037L0 35.3867C0.402513 36.2464 1.18577 37.6577 2.2206 39.0803L1.80665 38.4931H2.75V39.0663V39.6394H2.64051C3.57158 40.8397 4.67118 41.9971 5.86066 42.7827V42.265H7.07787V43.6703L8.15984 44.2804V44.188H8.7459H9.33197V45.1495L11 46V37.0878C10.7475 37.147 9.78279 35.9784 9.33197 35.4977L11 34.7211V22ZM4.82377 41.5254L4.41803 41.5994L3.83197 41.0077V40.8598V40.416H4.91393L4.82377 41.5254Z" fill="url(#paint0_linear_2_32)"/>
<path d="M7.07787 43.6703V42.265H5.86066V42.7827L7.07787 43.6703Z" fill="url(#paint1_linear_2_32)"/>
<path d="M9.33197 45.1495V44.188H8.7459H8.15984V44.2804L9.33197 45.1495Z" fill="url(#paint2_linear_2_32)"/>
<path d="M4.41803 41.5994L4.82377 41.5254L4.91393 40.416H3.83197V40.8598V41.0077L4.41803 41.5994Z" fill="url(#paint3_linear_2_32)"/>
<path d="M2.75 38.4931H1.80665L2.2206 39.0803C2.35634 39.2669 2.4964 39.4537 2.64051 39.6394H2.75V39.0663V38.4931Z" fill="url(#paint4_linear_2_32)"/>
<path d="M35 22H47V35.4444C45.3968 38.284 40.7522 44.3704 35 46V35.4444C35.5668 34.642 36.3603 32.3185 35 29.4444V22Z" fill="url(#paint5_linear_2_32)"/>
<path d="M35 18.8903C33.7435 19.6986 31.2115 21.4743 31.1352 22.1108C30.0537 20.6079 26.5451 17.7309 21.163 18.2462C19.2703 18.5998 15.9812 20.0497 17.9661 23.0202C18.3002 23.3991 19.7889 24.2933 23.0716 24.8389C27.175 25.5209 31.3739 26.2787 33.3301 28.6278C34.8952 30.5071 35.0319 32.8714 34.9047 33.8186C34.6343 35.0816 33.4446 37.903 30.849 39.0852C27.6045 40.5629 25.9345 41.207 21.5448 40.9417C16.1611 40.6165 11.7634 37.0392 11 36.2056L15.342 33.4776C16.5825 35.1447 20.3615 38.0773 25.5528 36.4708C30.744 34.8643 29.4653 32.2146 28.177 31.0906C27.8112 30.6864 26.278 29.7948 23.0716 29.4613L18.8728 28.4383C17.1392 27.8953 13.5384 26.5211 13.004 25.3693C12.336 23.9295 11.4294 24.3084 12.0497 19.7996C12.5268 18.4482 14.6358 15.4803 19.2545 14.4194C23.8732 13.3585 28.1134 14.5583 29.6562 15.2908C31.3102 16.1875 34.6945 18.1628 35 18.8903Z" fill="url(#paint6_linear_2_32)"/>
<path d="M16.0909 4.98757L17.3182 3.9596C17.4697 6.48511 17.7273 11.8712 17.5455 13.2113C17.3333 13.1987 16.8 13.2723 16.3636 13.6682C16.3939 10.8254 16.3818 5.1094 16.0909 4.98757Z" fill="url(#paint7_linear_2_32)"/>
<path d="M12 8.7568V16.7521C12.0009 16.675 13.2158 15.6208 14.1566 14.9246L14.1035 6.89122L12 8.7568Z" fill="url(#paint8_linear_2_32)"/>
<path d="M16.3636 28.7451C16.5606 28.8847 17.0818 29.1639 17.5909 29.1639V33.8469L16.3636 32.7809V28.7451Z" fill="url(#paint9_linear_2_32)"/>
<path d="M16.3182 40.7762C16.7121 40.9539 17.5273 41.2864 17.6364 41.195L17.5 48.5431C17.0909 48.4797 16.2818 48.3375 16.3182 48.2766C16.3545 48.2157 16.3333 43.251 16.3182 40.7762Z" fill="url(#paint10_linear_2_32)"/>
<path d="M12.0909 26.1943V33.8469C12.4866 33.4533 13.4655 32.873 14.3182 32.4103C14.0273 32.0224 14.0482 29.1961 14.0951 27.8314C13.2259 27.3197 12.4528 26.5954 12.0909 26.1943Z" fill="url(#paint11_linear_2_32)"/>
<path d="M12.0909 47.0202L14.0951 47.7055C14.0939 45.1672 14.1232 40.7213 14.2374 39.9609C13.4346 39.5485 12.5504 38.8356 12.0909 38.4157V47.0202Z" fill="url(#paint12_linear_2_32)"/>
<path d="M15.1818 14.3155L15.0909 6.01554L14.1035 6.89122L14.1566 14.9246C14.6331 14.572 15.0393 14.3112 15.1818 14.3155Z" fill="url(#paint13_linear_2_32)"/>
<path d="M15.3636 31.8671L15.2273 28.3263C14.8486 28.2267 14.4632 28.0481 14.0951 27.8314C14.0482 29.1961 14.0273 32.0224 14.3182 32.4103C14.7192 32.1927 15.0922 32.0011 15.3636 31.8671Z" fill="url(#paint14_linear_2_32)"/>
<path d="M15.2273 47.972V40.2813C14.9659 40.2725 14.6506 40.1649 14.3182 40.0015C14.2914 39.9884 14.2645 39.9748 14.2374 39.9609C14.1232 40.7213 14.0939 45.1672 14.0951 47.7055L15.2273 47.972Z" fill="url(#paint15_linear_2_32)"/>
<path d="M20.7273 1.90365C20.5455 2.26915 19.8939 2.56358 19.5909 2.66511C19.5909 5.9964 19.6182 12.6544 19.7273 12.636C20.0602 12.5832 20.4043 12.5509 20.7273 12.533C20.803 8.83758 20.9091 1.53815 20.7273 1.90365Z" fill="url(#paint16_linear_2_32)"/>
<path d="M18.5 2.8174L18.5909 12.9448C18.9097 12.8011 19.3097 12.7023 19.7273 12.636C19.6182 12.6544 19.5909 5.9964 19.5909 2.66511C19.8939 2.56358 20.5455 2.26915 20.7273 1.90365C20.9091 1.53815 20.803 8.83758 20.7273 12.533C21.2006 12.5067 21.6285 12.511 21.9091 12.526V0.145811C21.5938 0.6112 19.6102 2.04967 18.5 2.8174Z" fill="url(#paint17_linear_2_32)"/>
<path d="M21.9091 49V41.8423C21.5854 41.8624 21.187 41.8416 20.7727 41.7989V48.8477L21.9091 49Z" fill="url(#paint18_linear_2_32)"/>
<path d="M20.7727 48.8477V41.7989C20.4237 41.7628 20.0635 41.7112 19.7273 41.6552V48.7335V48.7716L20.7727 48.8477Z" fill="url(#paint19_linear_2_32)"/>
<path d="M19.7273 41.6552C19.2521 41.5761 18.825 41.4882 18.5455 41.4235C18.5455 43.8728 18.5636 48.764 18.6364 48.7335C18.7091 48.703 19.3939 48.7208 19.7273 48.7335V41.6552Z" fill="url(#paint20_linear_2_32)"/>
<path d="M18.5455 29.3924V34.4942C18.8075 34.625 19.1799 34.7935 19.5909 34.9523V29.8434C19.1908 29.7325 18.8219 29.5854 18.5455 29.3924Z" fill="url(#paint21_linear_2_32)"/>
<path d="M21.9545 35.4079L22 30.1538C21.7008 30.1538 21.2565 30.1319 20.7727 30.0713V35.33C21.2291 35.4387 21.6533 35.4847 21.9545 35.4079Z" fill="url(#paint22_linear_2_32)"/>
<path d="M20.7727 30.0713C20.3861 30.0229 19.9742 29.9497 19.5909 29.8434V34.9523L20.7727 35.33V30.0713Z" fill="url(#paint23_linear_2_32)"/>
<path d="M19.5455 19.7497V22.367L20.7727 22.8001V19.3029L19.5455 19.7497Z" fill="url(#paint24_linear_2_32)"/>
<path d="M21.9545 23.1484L21.8636 19.0746C21.5126 19.1114 21.1388 19.1952 20.7727 19.3029V22.8001C21.2055 22.9375 21.6292 23.0601 21.9545 23.1484Z" fill="url(#paint25_linear_2_32)"/>
<path d="M18.7273 20.1406V21.8539C18.7273 21.9872 19.0677 22.1731 19.5455 22.367V19.7497C19.2037 19.8964 18.9168 20.0377 18.7273 20.1406Z" fill="url(#paint26_linear_2_32)"/>
<path d="M23 0V12.6757C23.5697 12.6252 25.0308 12.6378 26.3177 13.0919V2.68649L23 0Z" fill="url(#paint27_linear_2_32)"/>
<path d="M23 19.1838C23.9886 19.4108 26.0362 19.9027 26.3177 20.0541V24.1405C25.3291 23.8757 23.2815 23.3914 23 23.573V19.1838Z" fill="url(#paint28_linear_2_32)"/>
<path d="M23 30.573C23.9719 30.6865 25.9558 31.0497 26.1166 31.5946C26.2775 32.1395 26.1837 33.8144 26.1166 34.5838C25.614 34.9117 24.2869 35.5524 23 35.4919V30.573Z" fill="url(#paint29_linear_2_32)"/>
<path d="M23 41.8486C23.62 41.8865 25.1314 41.8714 26.2172 41.5081L26.3177 48.7351L23 49V41.8486Z" fill="url(#paint30_linear_2_32)"/>
<path d="M30.4397 5.97838C31.5624 6.97477 33.8379 8.96 33.9585 8.92973C34.0791 8.89946 33.9082 13.836 33.8077 16.3081C33.2547 15.791 31.807 14.6659 30.4397 14.3027V5.97838Z" fill="url(#paint31_linear_2_32)"/>
<path d="M30.4397 23.2703L33.8077 20.5459L33.9585 27.1297C33.2045 26.5117 31.4451 25.2681 30.4397 25.2378V23.2703Z" fill="url(#paint32_linear_2_32)"/>
<path d="M33.858 38.027V46.9946C32.9196 47.2721 30.9424 47.8724 30.5403 48.0541L30.3781 40.3291C30.8802 40.2423 32.2134 39.6775 33.858 38.027Z" fill="url(#paint33_linear_2_32)"/>
<path d="M27.5242 3.63243L29.2835 5.10811L29.183 13.8486C28.9652 13.6847 28.3385 13.3416 27.5744 13.2811L27.5242 3.63243Z" fill="url(#paint34_linear_2_32)"/>
<path d="M27.5744 20.6973L29.3338 22.173V24.8595C28.7474 24.6577 27.5744 24.2919 27.5744 24.4432V20.6973Z" fill="url(#paint35_linear_2_32)"/>
<path d="M27.4739 41.2054C27.7755 41.2559 28.5396 41.2281 29.183 40.7135L29.2835 48.2054C28.8646 48.2432 27.9364 48.3643 27.5744 48.5459L27.4739 41.2054Z" fill="url(#paint36_linear_2_32)"/>
<path d="M45 22V40" stroke="#2D5686"/>
<path d="M39 22V48" stroke="#2D5686"/>
<path d="M3 41L3 21" stroke="#2D5686"/>
<path d="M8.5 45L8.5 19" stroke="#2D5686"/>
<defs>
<linearGradient id="paint0_linear_2_32" x1="5.5" y1="22" x2="5.5" y2="46" gradientUnits="userSpaceOnUse">
<stop offset="0.235" stop-color="#E1B648"/>
<stop offset="1" stop-color="#FFECBC"/>
</linearGradient>
<linearGradient id="paint1_linear_2_32" x1="5.5" y1="22" x2="5.5" y2="46" gradientUnits="userSpaceOnUse">
<stop offset="0.235" stop-color="#E1B648"/>
<stop offset="1" stop-color="#FFECBC"/>
</linearGradient>
<linearGradient id="paint2_linear_2_32" x1="5.5" y1="22" x2="5.5" y2="46" gradientUnits="userSpaceOnUse">
<stop offset="0.235" stop-color="#E1B648"/>
<stop offset="1" stop-color="#FFECBC"/>
</linearGradient>
<linearGradient id="paint3_linear_2_32" x1="5.5" y1="22" x2="5.5" y2="46" gradientUnits="userSpaceOnUse">
<stop offset="0.235" stop-color="#E1B648"/>
<stop offset="1" stop-color="#FFECBC"/>
</linearGradient>
<linearGradient id="paint4_linear_2_32" x1="5.5" y1="22" x2="5.5" y2="46" gradientUnits="userSpaceOnUse">
<stop offset="0.235" stop-color="#E1B648"/>
<stop offset="1" stop-color="#FFECBC"/>
</linearGradient>
<linearGradient id="paint5_linear_2_32" x1="41" y1="22" x2="41" y2="55.5" gradientUnits="userSpaceOnUse">
<stop offset="0.235" stop-color="#E1B648"/>
<stop offset="1" stop-color="white"/>
</linearGradient>
<linearGradient id="paint6_linear_2_32" x1="23" y1="14" x2="23.2943" y2="75.9239" gradientUnits="userSpaceOnUse">
<stop offset="0.0001" stop-color="#FFF7E0"/>
<stop offset="0.32" stop-color="#FFDF8A"/>
</linearGradient>
<linearGradient id="paint7_linear_2_32" x1="17" y1="0" x2="17" y2="49" gradientUnits="userSpaceOnUse">
<stop stop-color="white"/>
<stop offset="0.235" stop-color="#E1B648"/>
</linearGradient>
<linearGradient id="paint8_linear_2_32" x1="17" y1="0" x2="17" y2="49" gradientUnits="userSpaceOnUse">
<stop stop-color="white"/>
<stop offset="0.235" stop-color="#E1B648"/>
</linearGradient>
<linearGradient id="paint9_linear_2_32" x1="17" y1="0" x2="17" y2="49" gradientUnits="userSpaceOnUse">
<stop stop-color="white"/>
<stop offset="0.235" stop-color="#E1B648"/>
</linearGradient>
<linearGradient id="paint10_linear_2_32" x1="17" y1="0" x2="17" y2="49" gradientUnits="userSpaceOnUse">
<stop stop-color="white"/>
<stop offset="0.235" stop-color="#E1B648"/>
</linearGradient>
<linearGradient id="paint11_linear_2_32" x1="17" y1="0" x2="17" y2="49" gradientUnits="userSpaceOnUse">
<stop stop-color="white"/>
<stop offset="0.235" stop-color="#E1B648"/>
</linearGradient>
<linearGradient id="paint12_linear_2_32" x1="17" y1="0" x2="17" y2="49" gradientUnits="userSpaceOnUse">
<stop stop-color="white"/>
<stop offset="0.235" stop-color="#E1B648"/>
</linearGradient>
<linearGradient id="paint13_linear_2_32" x1="17" y1="0" x2="17" y2="49" gradientUnits="userSpaceOnUse">
<stop stop-color="white"/>
<stop offset="0.235" stop-color="#E1B648"/>
</linearGradient>
<linearGradient id="paint14_linear_2_32" x1="17" y1="0" x2="17" y2="49" gradientUnits="userSpaceOnUse">
<stop stop-color="white"/>
<stop offset="0.235" stop-color="#E1B648"/>
</linearGradient>
<linearGradient id="paint15_linear_2_32" x1="17" y1="0" x2="17" y2="49" gradientUnits="userSpaceOnUse">
<stop stop-color="white"/>
<stop offset="0.235" stop-color="#E1B648"/>
</linearGradient>
<linearGradient id="paint16_linear_2_32" x1="17" y1="0" x2="17" y2="49" gradientUnits="userSpaceOnUse">
<stop stop-color="white"/>
<stop offset="0.235" stop-color="#E1B648"/>
</linearGradient>
<linearGradient id="paint17_linear_2_32" x1="17" y1="0" x2="17" y2="49" gradientUnits="userSpaceOnUse">
<stop stop-color="white"/>
<stop offset="0.235" stop-color="#E1B648"/>
</linearGradient>
<linearGradient id="paint18_linear_2_32" x1="17" y1="0" x2="17" y2="49" gradientUnits="userSpaceOnUse">
<stop stop-color="white"/>
<stop offset="0.235" stop-color="#E1B648"/>
</linearGradient>
<linearGradient id="paint19_linear_2_32" x1="17" y1="0" x2="17" y2="49" gradientUnits="userSpaceOnUse">
<stop stop-color="white"/>
<stop offset="0.235" stop-color="#E1B648"/>
</linearGradient>
<linearGradient id="paint20_linear_2_32" x1="17" y1="0" x2="17" y2="49" gradientUnits="userSpaceOnUse">
<stop stop-color="white"/>
<stop offset="0.235" stop-color="#E1B648"/>
</linearGradient>
<linearGradient id="paint21_linear_2_32" x1="17" y1="0" x2="17" y2="49" gradientUnits="userSpaceOnUse">
<stop stop-color="white"/>
<stop offset="0.235" stop-color="#E1B648"/>
</linearGradient>
<linearGradient id="paint22_linear_2_32" x1="17" y1="0" x2="17" y2="49" gradientUnits="userSpaceOnUse">
<stop stop-color="white"/>
<stop offset="0.235" stop-color="#E1B648"/>
</linearGradient>
<linearGradient id="paint23_linear_2_32" x1="17" y1="0" x2="17" y2="49" gradientUnits="userSpaceOnUse">
<stop stop-color="white"/>
<stop offset="0.235" stop-color="#E1B648"/>
</linearGradient>
<linearGradient id="paint24_linear_2_32" x1="17" y1="0" x2="17" y2="49" gradientUnits="userSpaceOnUse">
<stop stop-color="white"/>
<stop offset="0.235" stop-color="#E1B648"/>
</linearGradient>
<linearGradient id="paint25_linear_2_32" x1="17" y1="0" x2="17" y2="49" gradientUnits="userSpaceOnUse">
<stop stop-color="white"/>
<stop offset="0.235" stop-color="#E1B648"/>
</linearGradient>
<linearGradient id="paint26_linear_2_32" x1="17" y1="0" x2="17" y2="49" gradientUnits="userSpaceOnUse">
<stop stop-color="white"/>
<stop offset="0.235" stop-color="#E1B648"/>
</linearGradient>
<linearGradient id="paint27_linear_2_32" x1="28.5" y1="0" x2="28.5" y2="49" gradientUnits="userSpaceOnUse">
<stop stop-color="white"/>
<stop offset="0.235" stop-color="#E1B648"/>
</linearGradient>
<linearGradient id="paint28_linear_2_32" x1="28.5" y1="0" x2="28.5" y2="49" gradientUnits="userSpaceOnUse">
<stop stop-color="white"/>
<stop offset="0.235" stop-color="#E1B648"/>
</linearGradient>
<linearGradient id="paint29_linear_2_32" x1="28.5" y1="0" x2="28.5" y2="49" gradientUnits="userSpaceOnUse">
<stop stop-color="white"/>
<stop offset="0.235" stop-color="#E1B648"/>
</linearGradient>
<linearGradient id="paint30_linear_2_32" x1="28.5" y1="0" x2="28.5" y2="49" gradientUnits="userSpaceOnUse">
<stop stop-color="white"/>
<stop offset="0.235" stop-color="#E1B648"/>
</linearGradient>
<linearGradient id="paint31_linear_2_32" x1="28.5" y1="0" x2="28.5" y2="49" gradientUnits="userSpaceOnUse">
<stop stop-color="white"/>
<stop offset="0.235" stop-color="#E1B648"/>
</linearGradient>
<linearGradient id="paint32_linear_2_32" x1="28.5" y1="0" x2="28.5" y2="49" gradientUnits="userSpaceOnUse">
<stop stop-color="white"/>
<stop offset="0.235" stop-color="#E1B648"/>
</linearGradient>
<linearGradient id="paint33_linear_2_32" x1="28.5" y1="0" x2="28.5" y2="49" gradientUnits="userSpaceOnUse">
<stop stop-color="white"/>
<stop offset="0.235" stop-color="#E1B648"/>
</linearGradient>
<linearGradient id="paint34_linear_2_32" x1="28.5" y1="0" x2="28.5" y2="49" gradientUnits="userSpaceOnUse">
<stop stop-color="white"/>
<stop offset="0.235" stop-color="#E1B648"/>
</linearGradient>
<linearGradient id="paint35_linear_2_32" x1="28.5" y1="0" x2="28.5" y2="49" gradientUnits="userSpaceOnUse">
<stop stop-color="white"/>
<stop offset="0.235" stop-color="#E1B648"/>
</linearGradient>
<linearGradient id="paint36_linear_2_32" x1="28.5" y1="0" x2="28.5" y2="49" gradientUnits="userSpaceOnUse">
<stop stop-color="white"/>
<stop offset="0.235" stop-color="#E1B648"/>
</linearGradient>
</defs>
</svg>
