<svg width="89" height="88" viewBox="0 0 89 88" fill="none" xmlns="http://www.w3.org/2000/svg">
<g id="Rotate phone symbol">
<path id="Vector 1431" d="M13.2927 1H5C2.79086 1 1 2.79086 1 5V75C1 77.2091 2.79086 79 5 79H39C41.2091 79 43 77.2091 43 75V5C43 2.79086 41.2091 1 39 1H33.7805M13.2927 1L17.2184 6.50627C17.969 7.55914 19.1823 8.18421 20.4754 8.18421H26.5978C27.8909 8.18421 29.1042 7.55914 29.8548 6.50627L33.7805 1M13.2927 1H33.7805" stroke="black"/>
<path id="Vector 1432" d="M10 77.7805L10 83C10 85.2091 11.7909 87 14 87L84 87C86.2091 87 88 85.2091 88 83L88 77.7805M88 57.2927L88 49C88 46.7909 86.2091 45 84 45L43 45M88 57.2927L82.4937 61.2184C81.4409 61.969 80.8158 63.1823 80.8158 64.4754L80.8158 70.5978C80.8158 71.8909 81.4409 73.1042 82.4937 73.8548L88 77.7805M88 57.2927L88 77.7805" stroke="black"/>
<path id="Vector 1433" d="M53 12H72.697C74.9061 12 76.697 13.7909 76.697 16V37M76.697 37L66.3939 25.5417M76.697 37L87 25.5417" stroke="black"/>
</g>
</svg>
