<svg width="932" height="152" viewBox="0 0 932 152" fill="none" xmlns="http://www.w3.org/2000/svg">
<path d="M0 61.9333V31.7716C0 29.9398 1.48495 28.4549 3.31673 28.4549H6.63346H8.29179C10.1235 28.4549 11.6085 29.9398 11.6085 31.7716L11.6085 56.2386C11.6085 55.3227 12.351 54.5802 13.2669 54.5802C14.1828 54.5802 14.9253 55.3227 14.9253 56.2386V57.0425H17.099V29.7862C17.099 28.8703 17.8415 28.1278 18.7574 28.1278C19.6685 28.1278 20.4025 28.8751 20.3863 29.786L19.9005 57.0425H23.2171V29.7861C23.2171 28.8703 23.9596 28.1278 24.8754 28.1278H26.5339H28.1923H29.8506C30.7665 28.1278 31.5089 28.8703 31.5089 29.7861V63.5917C31.5089 64.5076 30.7665 65.25 29.8506 65.25H28.1923H26.5339C26.076 65.25 25.7047 64.8788 25.7047 64.4208V57.8717C25.7047 57.4137 25.3334 57.0425 24.8754 57.0425H23.2171H19.9005H17.099H14.9253H11.6085L11.6085 61.9333C11.6085 63.7651 10.1236 65.25 8.29179 65.25H6.63346H3.31673C1.48495 65.25 0 63.7651 0 61.9333Z" fill="url(#paint0_linear_289_4588)"/>
<path d="M33.1672 64.8354V52.1349C33.1672 51.219 33.9098 50.4765 34.8257 50.4765H36.4841H38.1424C39.0582 50.4765 39.8007 51.2189 39.8007 52.1348V73.8679H41.4592V52.1348C41.4592 51.2189 42.2016 50.4765 43.1175 50.4765H44.7758C45.6917 50.4765 46.4342 51.2189 46.4342 52.1348V73.8679H49.751V56.2386C49.751 55.3227 50.4934 54.5802 51.4093 54.5802H53.0676H54.726C55.6419 54.5802 56.3844 55.3228 56.3844 56.2387V69.1486H58.0428V56.2386C58.0428 55.3227 58.7852 54.5802 59.7011 54.5802C60.617 54.5802 61.3594 55.3227 61.3594 56.2386V67.4903C61.3594 68.4061 60.617 69.1486 59.7011 69.1486H58.0428H56.3844H54.726V72.2096C54.726 73.1255 53.9835 73.8679 53.0676 73.8679H51.4093H49.751H46.4342H44.7758H43.1175H41.4592H39.8007H38.1424H36.4841H34.8257C34.3677 73.8679 33.9965 73.4967 33.9965 73.0387V65.6646C33.9965 65.4357 33.8108 65.25 33.5819 65.25C33.3529 65.25 33.1672 65.0644 33.1672 64.8354Z" fill="url(#paint1_linear_289_4588)"/>
<path d="M63.0177 67.4901V56.2387C63.0177 55.3228 63.7603 54.5802 64.6762 54.5802C65.5921 54.5802 66.3346 55.3227 66.3346 56.2386V59.9151H67.9929C68.9088 59.9151 69.6512 60.6576 69.6512 61.5734V67.4903C69.6512 68.4061 68.9088 69.1486 67.9929 69.1486H66.3346H64.6762C63.7603 69.1486 63.0177 68.4061 63.0177 67.4901Z" fill="url(#paint2_linear_289_4588)"/>
<path d="M74.6264 69.1486H72.968V61.5734C72.968 60.6576 73.7105 59.9151 74.6264 59.9151H76.2847V56.2386C76.2847 55.3227 77.0271 54.5802 77.943 54.5802H78.3702C79.0501 54.5802 79.6013 55.1314 79.6013 55.8114C80.5173 55.8114 81.2598 56.5539 81.2598 57.4698V75.0906C81.2598 75.5486 80.8885 75.9198 80.4306 75.9198C79.9726 75.9198 79.6013 75.5486 79.6013 75.0906V67.4903C79.6013 68.4061 78.8589 69.1486 77.943 69.1486H76.2847H74.6264Z" fill="url(#paint3_linear_289_4588)"/>
<path d="M82.9181 74.2615V57.4697C82.9181 56.5538 83.6606 55.8114 84.5765 55.8114H86.2349H87.8934H89.5518H91.2101H92.8684H94.5267V41.0586C94.5267 40.6006 94.898 40.2293 95.356 40.2293C95.814 40.2293 96.1852 40.6006 96.1852 41.0586V55.8114H97.8436V41.8877C97.8436 40.9698 98.584 40.2238 99.5019 40.217L101.16 40.2293H102.819H104.477H106.135H107.794C108.71 40.2293 109.452 40.9718 109.452 41.8876V62.1554C109.452 63.0713 108.71 63.8137 107.794 63.8137H106.135H104.477C104.019 63.8137 103.648 64.185 103.648 64.643V70.5766C103.648 71.0345 103.277 71.4057 102.819 71.4057H101.16H99.5019H97.8436C96.9277 71.4057 96.1852 70.6632 96.1852 69.7474V55.8114H94.5267V69.7474C94.5267 70.6632 93.7843 71.4057 92.8684 71.4057H91.2101H89.5518C89.0938 71.4057 88.7225 71.7769 88.7225 72.2349V75.0908C88.7225 75.5486 88.3513 75.9198 87.8934 75.9198H86.2349H84.5765C83.6606 75.9198 82.9181 75.1774 82.9181 74.2615Z" fill="url(#paint4_linear_289_4588)"/>
<path d="M111.11 62.1554V41.8753C111.11 40.9595 111.853 40.217 112.769 40.217C113.685 40.217 114.427 40.9595 114.427 41.8754V62.1554C114.427 63.0713 113.685 63.8137 112.769 63.8137C111.853 63.8137 111.11 63.0713 111.11 62.1554Z" fill="url(#paint5_linear_289_4588)"/>
<path d="M117.744 62.1554V41.8753C117.744 40.9595 118.486 40.217 119.402 40.217H121.061H122.719V39.8236C122.719 38.9077 123.461 38.1651 124.377 38.1651H126.036H127.694H129.352C130.268 38.1651 131.011 38.9076 131.011 39.8235V58.2568C131.011 59.1727 130.268 59.9151 129.352 59.9151H127.694H126.036V62.1554C126.036 63.0713 125.293 63.8137 124.377 63.8137H122.719H121.061H119.402C118.486 63.8137 117.744 63.0713 117.744 62.1554Z" fill="url(#paint6_linear_289_4588)"/>
<path d="M132.669 58.2568V39.8235C132.669 38.9076 133.412 38.1651 134.328 38.1651H135.986C136.902 38.1651 137.644 38.9076 137.644 39.8235V58.2568C137.644 59.1727 136.902 59.9151 135.986 59.9151H134.328C133.412 59.9151 132.669 59.1727 132.669 58.2568Z" fill="url(#paint7_linear_289_4588)"/>
<path d="M139.303 58.2568V28.7433C139.303 27.8274 140.045 27.085 140.961 27.085C141.877 27.085 142.619 27.8274 142.619 28.7433V58.2568C142.619 59.1727 141.877 59.9151 140.961 59.9151C140.045 59.9151 139.303 59.1727 139.303 58.2568Z" fill="url(#paint8_linear_289_4588)"/>
<path d="M144.278 57.0257V28.7433C144.278 27.8274 145.02 27.085 145.936 27.085C146.852 27.085 147.594 27.8275 147.594 28.7435V58.684H145.936C145.02 58.684 144.278 57.9415 144.278 57.0257Z" fill="url(#paint9_linear_289_4588)"/>
<path d="M152.569 57.0257V25.4603C152.569 24.5444 153.312 23.8019 154.228 23.8019H155.886H157.545H159.203H160.861H162.52H164.178H165.836H167.495H169.153H170.812H172.47H174.128V20.1254C174.128 19.2095 174.871 18.4671 175.787 18.4671H177.445H179.103H180.762H182.42H184.078H185.737V8.41282V5.75378C185.737 5.29584 186.108 4.92461 186.566 4.92461C187.024 4.92461 187.395 5.29584 187.395 5.75377V8.41282V18.4671V73.0388C187.395 73.4967 187.024 73.8679 186.566 73.8679C186.108 73.8679 185.737 73.4967 185.737 73.0388V67.9175H184.078H182.42H180.762H179.103H177.445H175.787H174.128H172.47H170.812H169.153H167.495H165.836C165.378 67.9175 165.007 67.5462 165.007 67.0882V59.5131C165.007 59.0552 164.636 58.684 164.178 58.684H162.52H160.861H159.203H157.545H155.886H154.228C153.312 58.684 152.569 57.9415 152.569 57.0257Z" fill="url(#paint10_linear_289_4588)"/>
<path d="M189.054 72.2096V6.17256C189.054 5.2567 189.796 4.51424 190.712 4.51424H192.37H194.029C194.945 4.51424 195.687 5.25677 195.687 6.17273V72.2094C195.687 73.1254 194.945 73.8679 194.029 73.8679H192.37H190.712C189.796 73.8679 189.054 73.1255 189.054 72.2096Z" fill="url(#paint11_linear_289_4588)"/>
<path d="M197.345 72.2096V4.51424V1.65832C197.345 0.742456 198.088 0 199.004 0C199.92 0 200.662 0.742456 200.662 1.65832V8.41282V72.2096C200.662 73.1255 199.92 73.8679 199.004 73.8679C198.088 73.8679 197.345 73.1255 197.345 72.2096Z" fill="url(#paint12_linear_289_4588)"/>
<path d="M202.32 72.2095V1.65848C202.32 0.742526 203.063 0 203.979 0C204.895 0 205.637 0.742454 205.637 1.65832V72.2096C205.637 73.1255 204.895 73.8679 203.979 73.8679C203.063 73.8679 202.32 73.1254 202.32 72.2095Z" fill="url(#paint13_linear_289_4588)"/>
<path d="M207.296 72.2096V1.65853C207.296 0.742658 208.038 0.000191964 208.954 0.000191964H208.971C209.877 0.000191964 210.612 0.73512 210.612 1.6417H212.271C212.271 0.73512 213.006 0.000191964 213.912 0.000191964H213.929C214.845 0.000191964 215.587 0.742658 215.587 1.65853V5.74547H217.246C218.162 5.74547 218.904 6.48799 218.904 7.40395V10.2596H220.562V7.40381C220.562 6.48793 221.305 5.74547 222.221 5.74547C223.137 5.74547 223.879 6.48792 223.879 7.40379V23.3916V72.2096C223.879 73.1255 223.137 73.8679 222.221 73.8679H220.562H218.904H217.246H215.587H213.929H212.271H210.612H208.954C208.038 73.8679 207.296 73.1255 207.296 72.2096Z" fill="url(#paint14_linear_289_4588)"/>
<path d="M225.538 72.2096V23.3916V7.40379C225.538 6.48792 226.28 5.74547 227.196 5.74547C228.112 5.74547 228.854 6.48795 228.854 7.40385V23.3916H230.102C230.329 23.3916 230.513 23.5753 230.513 23.8019H232.171H233.829V16.8424C233.829 15.9265 234.572 15.184 235.488 15.184H237.146C238.062 15.184 238.804 15.9265 238.804 16.8424V72.2096C238.804 73.1255 238.062 73.8679 237.146 73.8679H235.488H233.829H232.171H230.513H228.854H227.196C226.28 73.8679 225.538 73.1255 225.538 72.2096Z" fill="url(#paint15_linear_289_4588)"/>
<path d="M240.463 73.0388V16.8424C240.463 15.9265 241.205 15.184 242.121 15.184H243.78C244.695 15.184 245.438 15.9266 245.438 16.8425V49.2453H243.78H242.121V73.0388C242.121 73.4967 241.75 73.8679 241.292 73.8679C240.834 73.8679 240.463 73.4967 240.463 73.0388Z" fill="url(#paint16_linear_289_4588)"/>
<path d="M252.071 49.2453H250.413V10.2765C250.413 9.36053 251.156 8.618 252.071 8.618H253.319C253.546 8.618 253.73 8.80174 253.73 9.02838C254.646 9.02838 255.388 9.77085 255.388 10.6867V47.587C255.388 48.5029 254.646 49.2453 253.73 49.2453H252.071Z" fill="url(#paint17_linear_289_4588)"/>
<path d="M257.046 47.587V10.6867C257.046 9.77084 257.789 9.02838 258.705 9.02838H260.363H262.022H263.68H265.338H266.997C267.913 9.02838 268.655 9.77085 268.655 10.6867V73.8679H271.972V19.715C271.972 18.7991 272.714 18.0567 273.63 18.0567H275.289H276.947C277.863 18.0567 278.605 18.7991 278.605 19.715V72.2096C278.605 73.1255 277.863 73.8679 276.947 73.8679H275.289H273.63H271.972H268.655C267.739 73.8679 266.997 73.1255 266.997 72.2096V49.2453H265.338H263.68H262.022H260.363H258.705C257.789 49.2453 257.046 48.5029 257.046 47.587Z" fill="url(#paint18_linear_289_4588)"/>
<path d="M280.263 72.2094V14.7907C280.263 13.8747 281.006 13.1322 281.922 13.1322H283.58H285.239H286.897C287.813 13.1322 288.555 13.8747 288.555 14.7907V72.2094C288.555 73.1254 287.813 73.8679 286.897 73.8679H285.239H283.58H281.922C281.006 73.8679 280.263 73.1254 280.263 72.2094Z" fill="url(#paint19_linear_289_4588)"/>
<path d="M290.214 73.0388V20.1254C290.214 19.2095 290.956 18.4671 291.872 18.4671H293.53H295.189C296.105 18.4671 296.847 19.2096 296.847 20.1255V72.2095C296.847 73.1254 296.105 73.8679 295.189 73.8679C294.273 73.8679 293.53 73.1255 293.53 72.2096V18.4671H291.872V73.0388C291.872 73.4967 291.501 73.8679 291.043 73.8679C290.585 73.8679 290.214 73.4967 290.214 73.0388Z" fill="url(#paint20_linear_289_4588)"/>
<path d="M298.506 72.2096V29.9744C298.506 29.0585 299.248 28.3161 300.164 28.3161C301.08 28.3161 301.822 29.0586 301.822 29.9744V72.2096C301.822 73.1255 301.08 73.8679 300.164 73.8679C299.248 73.8679 298.506 73.1255 298.506 72.2096Z" fill="url(#paint21_linear_289_4588)"/>
<path d="M303.481 72.2095V29.9746C303.481 29.0586 304.223 28.3161 305.139 28.3161H306.797H308.456V22.5876C308.456 21.6718 309.198 20.9293 310.114 20.9293H311.772H313.431H315.089H316.747C317.663 20.9293 318.406 21.6718 318.406 22.5876V76.3134C318.406 77.2292 317.663 77.9717 316.747 77.9717H315.089H313.431H311.772C310.857 77.9717 310.114 77.2292 310.114 76.3132V73.8679H308.456H306.797H305.139C304.223 73.8679 303.481 73.1254 303.481 72.2095Z" fill="url(#paint22_linear_289_4588)"/>
<path d="M323.381 77.9717H321.723V22.5876C321.723 21.6718 322.465 20.9293 323.381 20.9293C324.297 20.9293 325.039 21.6718 325.039 22.5878V76.3132C325.039 77.2292 324.297 77.9717 323.381 77.9717Z" fill="url(#paint23_linear_289_4588)"/>
<path d="M330.014 77.9717H328.356V27.5122C328.356 26.5963 329.099 25.8538 330.014 25.8538H331.673H333.331H334.99H336.237C336.464 25.8538 336.648 26.0376 336.648 26.2642H338.306H339.965C340.881 26.2642 341.623 27.0067 341.623 27.9225V64.6176C341.623 65.5335 340.881 66.276 339.965 66.276H338.306H336.648V76.3134C336.648 77.2292 335.905 77.9717 334.99 77.9717H333.331H331.673H330.014Z" fill="url(#paint24_linear_289_4588)"/>
<path d="M343.281 64.6176V35.3093C343.281 34.3935 344.024 33.651 344.94 33.651H346.598C347.514 33.651 348.256 34.3935 348.256 35.3093V64.6176C348.256 65.5335 347.514 66.276 346.598 66.276H344.94C344.024 66.276 343.281 65.5335 343.281 64.6176Z" fill="url(#paint25_linear_289_4588)"/>
<path d="M351.573 64.6176V35.3093C351.573 34.3935 352.316 33.651 353.231 33.651C354.147 33.651 354.89 34.3935 354.89 35.3095V66.276H358.207V23.4084C358.207 22.4925 358.949 21.7501 359.865 21.7501H361.523H363.182C364.098 21.7501 364.84 22.4925 364.84 23.4084V71.6048C364.84 72.5207 364.098 73.2632 363.182 73.2632H361.523C361.065 73.2632 360.694 72.8919 360.694 72.4339V67.1052C360.694 66.6472 360.323 66.276 359.865 66.276H358.207H354.89H353.231C352.316 66.276 351.573 65.5335 351.573 64.6176Z" fill="url(#paint26_linear_289_4588)"/>
<path d="M366.498 71.6048V23.4084C366.498 22.4925 367.241 21.7501 368.157 21.7501H369.815C370.731 21.7501 371.473 22.4925 371.473 23.4084V70.7756C371.473 72.1494 370.36 73.2632 368.986 73.2632H368.157C367.241 73.2632 366.498 72.5207 366.498 71.6048Z" fill="url(#paint27_linear_289_4588)"/>
<path d="M373.132 71.6048V18.0651C373.132 17.6072 373.503 17.2359 373.961 17.2359C374.419 17.2359 374.79 17.6072 374.79 18.0651V73.2632H376.449V18.8943C376.449 17.9784 377.191 17.2359 378.107 17.2359H379.765C380.681 17.2359 381.424 17.9784 381.424 18.8942V71.6048C381.424 72.5207 380.681 73.2632 379.765 73.2632H378.107H376.449H374.79C373.874 73.2632 373.132 72.5207 373.132 71.6048Z" fill="url(#paint28_linear_289_4588)"/>
<path d="M383.082 71.6048V18.0651C383.082 17.6072 383.453 17.2359 383.911 17.2359C384.369 17.2359 384.74 17.6072 384.74 18.0651V73.2632L386.399 64.2241V18.0651C386.399 17.6072 386.77 17.2359 387.228 17.2359C387.686 17.2359 388.057 17.6072 388.057 18.0651V65.4468C388.057 65.9047 387.686 66.276 387.228 66.276C386.77 66.276 386.399 65.9047 386.399 65.4468V64.2241L384.74 73.2632C383.825 73.2632 383.082 72.5207 383.082 71.6048Z" fill="url(#paint29_linear_289_4588)"/>
<path d="M391.374 66.276V8.22445C391.374 7.30858 392.116 6.56612 393.032 6.56612H394.691H396.349H398.007H399.666H401.324C402.24 6.56612 402.982 7.30858 402.982 8.22445V66.276H401.324H399.666H398.007H396.349H394.691H393.032H391.374Z" fill="url(#paint30_linear_289_4588)"/>
<path d="M407.957 64.6176V32.4283C407.957 31.9703 408.329 31.5991 408.787 31.5991H409.205C409.432 31.5991 409.616 31.7828 409.616 32.0095H411.274H412.933H414.591V9.03679C414.591 8.57886 414.962 8.20763 415.42 8.20763C415.878 8.20763 416.249 8.57886 416.249 9.03679V32.0095H417.908V7.3046C417.908 6.38864 418.65 5.64612 419.566 5.64612C420.482 5.64612 421.224 6.38857 421.224 7.30444V70.3629C421.224 71.2788 420.482 72.0212 419.566 72.0212H417.908H416.249H414.591C414.133 72.0212 413.762 71.65 413.762 71.192V67.1051C413.762 66.6472 413.391 66.276 412.933 66.276H411.274H409.616C408.7 66.276 407.957 65.5335 407.957 64.6176Z" fill="url(#paint31_linear_289_4588)"/>
<path d="M422.883 70.3629V33.6678C422.883 32.7519 423.625 32.0095 424.541 32.0095H426.2H427.858C428.774 32.0095 429.516 32.7519 429.516 33.6678V43.5H431.175H432.833H434.491C435.407 43.5 436.15 44.2425 436.15 45.1584V72.0212H434.491H432.833H431.175H429.516H427.858H426.2H424.541C423.625 72.0212 422.883 71.2788 422.883 70.3629Z" fill="url(#paint32_linear_289_4588)"/>
<path d="M439.466 70.3628V50.083C439.466 49.1671 440.209 48.4246 441.125 48.4246C442.041 48.4246 442.783 49.167 442.783 50.0829V70.3629C442.783 71.2788 442.041 72.0212 441.125 72.0212C440.209 72.0212 439.466 71.2787 439.466 70.3628Z" fill="url(#paint33_linear_289_4588)"/>
<path d="M446.1 71.6066V46.8C446.1 45.8841 446.842 45.1415 447.758 45.1415H449.417C450.332 45.1415 451.075 45.884 451.075 46.7999V74.0563C451.075 74.9722 450.332 75.7146 449.417 75.7146H447.758C447.3 75.7146 446.929 75.3434 446.929 74.8854V72.4359C446.929 72.2069 446.743 72.0212 446.514 72.0212C446.285 72.0212 446.1 71.8356 446.1 71.6066Z" fill="url(#paint34_linear_289_4588)"/>
<path d="M452.733 74.0563V41.465C452.733 40.5491 453.476 39.8066 454.392 39.8066H456.05C456.966 39.8066 457.708 40.5491 457.708 41.465V74.0563C457.708 74.9722 456.966 75.7146 456.05 75.7146H454.392C453.476 75.7146 452.733 74.9722 452.733 74.0563Z" fill="url(#paint35_linear_289_4588)"/>
<path d="M462.684 75.7146H461.025V41.4651C461.025 40.5492 461.768 39.8066 462.684 39.8066C463.599 39.8066 464.342 40.5491 464.342 41.465V74.0563C464.342 74.9722 463.599 75.7146 462.684 75.7146Z" fill="url(#paint36_linear_289_4588)"/>
<path d="M469.317 74.0561V41.4482V18.8944C469.317 17.9785 470.059 17.2359 470.975 17.2359H472.634C473.549 17.2359 474.292 17.9784 474.292 18.8942V74.0563C474.292 74.9722 473.549 75.7146 472.634 75.7146H470.975C470.059 75.7146 469.317 74.9721 469.317 74.0561Z" fill="url(#paint37_linear_289_4588)"/>
<path d="M477.609 74.0563V18.8942C477.609 17.9784 478.351 17.2359 479.267 17.2359H480.925H482.584H484.242C485.158 17.2359 485.901 17.9784 485.901 18.8944V65.2331C485.901 66.149 485.158 66.8915 484.242 66.8915H482.584C482.126 66.8915 481.755 67.2627 481.755 67.7206V74.8854C481.755 75.3434 481.383 75.7146 480.925 75.7146H479.267C478.351 75.7146 477.609 74.9722 477.609 74.0563Z" fill="url(#paint38_linear_289_4588)"/>
<path d="M487.563 65.2332L487.708 7.30443C487.71 6.43955 488.372 5.73027 489.217 5.65308V5.64593H490.876H492.534H494.192H495.851H497.509H499.167C500.083 5.64593 500.826 6.38838 500.826 7.30425V15.184V17.2359H502.484H504.142H505.801H507.459H509.118H510.776H512.434H514.093H515.751C516.667 17.2359 517.409 17.9784 517.409 18.8942V64.2241H520.726V28.7433C520.726 27.8274 521.469 27.085 522.385 27.085H524.043H525.701H527.36C528.276 27.085 529.018 27.8274 529.018 28.7433V62.5658C529.018 63.4816 528.276 64.2241 527.36 64.2241H525.701H524.043H522.385H520.726H517.409H515.751H514.093H512.434H510.776V74.7999C510.776 75.7158 510.033 76.4582 509.118 76.4582H507.459H505.801H504.142H502.484H500.826H499.167H497.509H495.851C494.935 76.4582 494.192 75.7158 494.192 74.7999V66.8915H492.534H490.876H489.217C488.302 66.8915 487.561 66.1484 487.563 65.2332Z" fill="url(#paint39_linear_289_4588)"/>
<path d="M530.676 63.3949V57.4697C530.676 56.5538 531.419 55.8114 532.335 55.8114V28.7433C532.335 27.8274 533.077 27.085 533.993 27.085C534.909 27.085 535.651 27.8275 535.651 28.7434V76.7623H533.993C533.077 76.7623 532.335 76.0199 532.335 75.104V65.0532C532.335 64.5953 531.963 64.2241 531.505 64.2241C531.048 64.2241 530.676 63.8529 530.676 63.3949Z" fill="url(#paint40_linear_289_4588)"/>
<path d="M540.626 27.9142V75.1038C540.626 76.0198 541.369 76.7623 542.285 76.7623V27.9142C542.285 27.4562 541.914 27.085 541.456 27.085C540.998 27.085 540.626 27.4562 540.626 27.9142Z" fill="url(#paint41_linear_289_4588)"/>
<path d="M547.26 19.2962V76.3477C547.26 76.5767 547.445 76.7623 547.674 76.7623C547.904 76.7623 548.089 76.5767 548.089 76.3477V52.1263C548.089 51.6684 548.46 51.2972 548.918 51.2972V19.2962C548.918 18.8383 548.547 18.4671 548.089 18.4671C547.631 18.4671 547.26 18.8383 547.26 19.2962Z" fill="url(#paint42_linear_289_4588)"/>
<path d="M557.21 16.0048V50.468C557.21 50.926 557.581 51.2972 558.039 51.2972C558.497 51.2972 558.868 50.926 558.868 50.468V17.6631C558.868 16.7472 558.126 16.0048 557.21 16.0048Z" fill="url(#paint43_linear_289_4588)"/>
<path d="M560.527 49.6389V13.149C560.527 12.2331 561.269 11.4906 562.185 11.4906H563.844C564.759 11.4906 565.502 12.2332 565.502 13.1491V49.6387C565.502 50.5547 564.759 51.2972 563.844 51.2972H562.185C561.269 51.2972 560.527 50.5548 560.527 49.6389Z" fill="url(#paint44_linear_289_4588)"/>
<path d="M567.16 49.6389V10.2763C567.16 9.36046 567.903 8.618 568.819 8.618H570.477H572.135C573.051 8.618 573.794 9.36046 573.794 10.2763V51.2972H577.11V10.2765C577.11 9.36053 577.853 8.618 578.769 8.618H580.427C581.343 8.618 582.086 9.36046 582.086 10.2763V16.0048H583.744H585.402H587.061C587.977 16.0048 588.719 16.7472 588.719 17.6631V18.4671H590.377H592.036H593.694C594.61 18.4671 595.352 19.2095 595.352 20.1254V27.9057C596.268 27.9057 597.011 28.6482 597.011 29.564V74.7999C597.011 75.7158 596.268 76.4582 595.352 76.4582C594.437 76.4582 593.694 75.7158 593.694 74.7999V56.8373H592.036H590.377H588.719H587.061H585.402H583.744H582.086C581.628 56.8373 581.256 56.466 581.256 56.008V52.1263C581.256 51.6684 580.885 51.2972 580.427 51.2972H578.769H577.11H573.794H572.135H570.477H568.819C567.903 51.2972 567.16 50.5548 567.16 49.6389Z" fill="url(#paint45_linear_289_4588)"/>
<path d="M598.669 74.7999V29.564C598.669 28.6482 599.412 27.9057 600.327 27.9057H601.986H603.644H605.303C606.218 27.9057 606.961 28.6482 606.961 29.564V74.7999C606.961 75.7158 606.218 76.4582 605.303 76.4582H603.644H601.986H600.327C599.412 76.4582 598.669 75.7158 598.669 74.7999Z" fill="url(#paint46_linear_289_4588)"/>
<path d="M610.278 37.3528V76.4582C609.362 76.4582 608.619 75.7158 608.619 74.7999V37.3528C608.619 36.8949 608.991 36.5236 609.449 36.5236C609.906 36.5236 610.278 36.8949 610.278 37.3528Z" fill="url(#paint47_linear_289_4588)"/>
<path d="M613.594 74.7999V19.4123C613.594 18.4964 614.337 17.754 615.253 17.754H616.911V6.90072C616.911 5.98486 617.654 5.2424 618.57 5.2424H620.228H621.886H623.545H625.203H626.861C627.777 5.2424 628.52 5.98486 628.52 6.90072V8.9358H630.178C631.094 8.9358 631.836 9.67825 631.836 10.5941V54.3582C631.836 55.2741 631.094 56.0165 630.178 56.0165H628.52C628.062 56.0165 627.691 56.3878 627.691 56.8458V75.6291C627.691 76.087 627.319 76.4582 626.861 76.4582H625.203H623.545H621.886H620.228H618.57H616.911H615.253C614.337 76.4582 613.594 75.7158 613.594 74.7999Z" fill="url(#paint48_linear_289_4588)"/>
<path d="M633.495 54.3582V10.5941C633.495 9.67825 634.237 8.9358 635.153 8.9358H636.812H638.47H640.128C641.044 8.9358 641.787 9.67825 641.787 10.5941V54.3582C641.787 55.2741 641.044 56.0165 640.128 56.0165H638.47H636.812H635.153C634.237 56.0165 633.495 55.2741 633.495 54.3582Z" fill="url(#paint49_linear_289_4588)"/>
<path d="M646.762 54.3581V20.8367H648.42H650.078H651.737C652.653 20.8367 653.395 21.5792 653.395 22.495V48.0142V55.8114V63.7969C653.395 64.7128 652.653 65.4552 651.737 65.4552C651.279 65.4552 650.908 65.084 650.908 64.6261V56.8458C650.908 56.3878 650.536 56.0165 650.078 56.0165H648.42C647.504 56.0165 646.762 55.274 646.762 54.3581Z" fill="url(#paint50_linear_289_4588)"/>
<path d="M655.054 63.7968V22.4951C655.054 21.5792 655.796 20.8367 656.712 20.8367C657.628 20.8367 658.37 21.5792 658.37 22.495V63.7969C658.37 64.7128 657.628 65.4552 656.712 65.4552C655.796 65.4552 655.054 64.7127 655.054 63.7968Z" fill="url(#paint51_linear_289_4588)"/>
<path d="M661.687 63.7967V22.4952C661.687 21.5792 662.429 20.8367 663.345 20.8367C664.261 20.8367 665.004 21.5792 665.004 22.4951V75.7104C665.004 75.9394 664.818 76.125 664.589 76.125C664.36 76.125 664.174 75.9394 664.174 75.7104V66.2843C664.174 65.8264 663.803 65.4552 663.345 65.4552C662.429 65.4552 661.687 64.7127 661.687 63.7967Z" fill="url(#paint52_linear_289_4588)"/>
<path d="M668.32 74.4667V22.495C668.32 21.5792 669.063 20.8367 669.979 20.8367C670.895 20.8367 671.637 21.5793 671.637 22.4952V74.4665C671.637 75.3825 670.895 76.125 669.979 76.125C669.063 76.125 668.32 75.3826 668.32 74.4667Z" fill="url(#paint53_linear_289_4588)"/>
<path d="M673.295 75.2957V22.3209C673.295 21.405 674.038 20.6625 674.954 20.6625C675.87 20.6625 676.612 21.405 676.612 22.3209V73.6376C676.612 75.0114 675.499 76.125 674.125 76.125C673.667 76.125 673.295 75.7537 673.295 75.2957Z" fill="url(#paint54_linear_289_4588)"/>
<path d="M678.271 74.4667V9.99859C678.271 9.0827 679.013 8.34023 679.929 8.34023H681.587H683.246H684.075H686.562H688.221C689.137 8.34023 689.879 9.0827 689.879 9.99859V69.7642C689.421 69.7642 689.05 70.1354 689.05 70.5932V75.2957C689.05 75.7537 688.679 76.125 688.221 76.125H686.562H684.904H683.246H681.587H679.929C679.013 76.125 678.271 75.3825 678.271 74.4667Z" fill="url(#paint55_linear_289_4588)"/>
<path d="M693.196 68.1058V56.2386C693.196 55.3227 693.938 54.5802 694.854 54.5802H696.513H698.171H699.829V24.1458C699.829 23.2299 700.572 22.4874 701.488 22.4874C701.488 22.2608 701.671 22.0771 701.898 22.0771H703.146H704.804H706.463H708.121H709.78C710.695 22.0771 711.438 22.8195 711.438 23.7354V62.5658C711.438 63.4816 710.695 64.2241 709.78 64.2241H708.121H706.463C706.005 64.2241 705.634 64.5953 705.634 65.0532V68.935C705.634 69.3929 705.262 69.7642 704.804 69.7642H703.146H701.488H699.829H698.171H696.513H694.854C693.938 69.7642 693.196 69.0217 693.196 68.1058Z" fill="url(#paint56_linear_289_4588)"/>
<path d="M713.096 62.5656V30.5484C713.096 29.6325 713.839 28.8899 714.755 28.8899C715.67 28.8899 716.413 29.6324 716.413 30.5483V62.5657C716.413 63.4816 715.67 64.2241 714.755 64.2241C713.839 64.2241 713.096 63.4816 713.096 62.5656Z" fill="url(#paint57_linear_289_4588)"/>
<path d="M718.071 62.5658V28.086C718.071 27.1701 718.814 26.4277 719.73 26.4277C720.646 26.4277 721.388 27.1702 721.388 28.086V62.5657C721.388 63.4816 720.646 64.2241 719.73 64.2241C718.814 64.2241 718.071 63.4816 718.071 62.5658Z" fill="url(#paint58_linear_289_4588)"/>
<path d="M723.046 62.5657V28.086C723.046 27.1702 723.789 26.4277 724.705 26.4277H726.363C727.279 26.4277 728.021 27.1702 728.021 28.086V81.0495H729.68V25.1966V23.5718C729.68 22.656 730.422 21.9135 731.338 21.9135C732.254 21.9135 732.997 22.656 732.997 23.5719V25.1966V79.3912C732.997 80.3071 732.254 81.0495 731.338 81.0495H729.68H728.021C727.564 81.0495 727.192 80.6784 727.192 80.2205V65.0534C727.192 64.5954 726.821 64.2241 726.363 64.2241H724.705C723.789 64.2241 723.046 63.4816 723.046 62.5657Z" fill="url(#paint59_linear_289_4588)"/>
<path d="M736.313 79.3911V23.572C736.313 22.656 737.056 21.9135 737.972 21.9135C738.888 21.9135 739.63 22.656 739.63 23.5719V79.3912C739.63 80.3071 738.888 81.0495 737.972 81.0495C737.056 81.0495 736.313 80.307 736.313 79.3911Z" fill="url(#paint60_linear_289_4588)"/>
<path d="M744.605 81.0495H742.947V32.8473C742.947 31.9313 743.689 31.1887 744.605 31.1887C745.521 31.1887 746.263 31.9312 746.263 32.847V81.0495H749.58V32.8471C749.58 31.9312 750.323 31.1887 751.238 31.1887H752.897C753.813 31.1887 754.555 31.9312 754.555 32.8471V75.0822C754.555 75.9981 753.813 76.7406 752.897 76.7406C752.439 76.7406 752.068 77.1118 752.068 77.5698V80.2203C752.068 80.6783 751.696 81.0495 751.238 81.0495H749.58H746.263H744.605Z" fill="url(#paint61_linear_289_4588)"/>
<path d="M757.872 75.0821V36.1303C757.872 35.2143 758.614 34.4717 759.53 34.4717H761.189H762.847H764.505H766.164H767.822C768.738 34.4717 769.481 35.2142 769.481 36.1301V75.0822C769.481 75.9981 768.738 76.7406 767.822 76.7406H766.164H764.505H762.847H761.189H759.53C758.614 76.7406 757.872 75.998 757.872 75.0821Z" fill="url(#paint62_linear_289_4588)"/>
<path d="M771.167 75.0825L771.758 40.4094C771.774 39.4891 772.524 38.7513 773.445 38.7513H775.103H776.762H778.42H780.078V30.1504C780.078 29.2344 780.821 28.4919 781.737 28.4919H783.395H784.643C784.87 28.4919 785.053 28.6756 785.053 28.9023H786.712H788.37V24.8155C788.37 23.8995 789.113 23.157 790.029 23.157H791.687C792.599 23.157 793.336 23.9029 793.324 24.8152L792.719 71.1838C792.707 72.1031 791.959 72.842 791.039 72.842H789.381H787.722H786.064H784.406C783.948 72.842 783.577 72.4707 783.577 72.0128V63.822C783.577 63.3641 783.205 62.993 782.747 62.993H781.089H779.431H777.772H776.114V75.0823C776.114 75.9981 775.372 76.7406 774.456 76.7406H772.797C771.886 76.7406 771.152 75.9936 771.167 75.0825Z" fill="url(#paint63_linear_289_4588)"/>
<path d="M794.377 71.1836L794.982 24.8154C794.994 23.896 795.743 23.157 796.662 23.157C797.574 23.157 798.311 23.9029 798.299 24.8152L797.694 71.1838C797.682 72.1031 796.934 72.842 796.014 72.842C795.102 72.842 794.366 72.096 794.377 71.1836Z" fill="url(#paint64_linear_289_4588)"/>
<path d="M799.355 71.1838L799.955 29.7397C799.968 28.8201 800.717 28.0815 801.637 28.0815H803.295H804.954C805.866 28.0815 806.601 28.8278 806.588 29.7396L805.988 71.1839C805.975 72.1035 805.226 72.842 804.306 72.842H802.648H800.989C800.077 72.842 799.342 72.0957 799.355 71.1838Z" fill="url(#paint65_linear_289_4588)"/>
<path d="M809.301 71.1837L809.909 20.3012C809.92 19.3821 810.668 18.6429 811.587 18.6429H813.246C814.159 18.6429 814.896 19.3882 814.886 20.301L814.265 76.942C814.26 77.3988 813.889 77.7665 813.432 77.7665C812.971 77.7665 812.598 77.3933 812.598 76.9328V72.842H810.94C810.027 72.842 809.29 72.0963 809.301 71.1837Z" fill="url(#paint66_linear_289_4588)"/>
<path d="M815.933 76.1083L816.544 20.301C816.554 19.3823 817.302 18.6429 818.221 18.6429H819.879H821.537H823.196H824.854H826.513H828.171C829.084 18.6429 829.821 19.3882 829.811 20.301L829.2 76.1083C829.19 77.027 828.442 77.7665 827.523 77.7665H825.865H824.206H822.548H820.89H819.231H817.573C816.66 77.7665 815.923 77.0212 815.933 76.1083Z" fill="url(#paint67_linear_289_4588)"/>
<path d="M832.519 76.1083L833.126 26.8671C833.137 25.948 833.885 25.2089 834.804 25.2089H836.463C837.375 25.2089 838.112 25.9546 838.101 26.867L837.494 76.1084C837.482 77.0274 836.734 77.7665 835.815 77.7665H834.157C833.244 77.7665 832.508 77.0208 832.519 76.1083Z" fill="url(#paint68_linear_289_4588)"/>
<path d="M839.152 76.1082L839.759 26.8672C839.77 25.948 840.519 25.2089 841.438 25.2089H843.096C844.009 25.2089 844.745 25.9546 844.734 26.867L844.127 76.1084C844.116 77.0274 843.368 77.7665 842.448 77.7665H840.79C839.878 77.7665 839.141 77.0207 839.152 76.1082Z" fill="url(#paint69_linear_289_4588)"/>
<path d="M847.448 76.1083L848.047 35.485C848.06 34.5653 848.81 33.8268 849.73 33.8268H851.388C852.3 33.8268 853.035 34.5731 853.022 35.4849L852.423 76.1084C852.409 77.0281 851.66 77.7665 850.74 77.7665H849.082C848.17 77.7665 847.435 77.0201 847.448 76.1083Z" fill="url(#paint70_linear_289_4588)"/>
<path d="M854.081 76.1083L854.68 35.4851C854.694 34.5653 855.443 33.8268 856.363 33.8268C857.275 33.8268 858.011 34.5729 857.999 35.485L857.374 81.0495C856.916 81.0495 856.544 80.6783 856.544 80.2203V78.5957C856.544 78.1377 856.173 77.7665 855.715 77.7665C854.803 77.7665 854.068 77.0201 854.081 76.1083Z" fill="url(#paint71_linear_289_4588)"/>
<path d="M865.666 79.3913V33.2574C865.666 32.3415 866.408 31.5991 867.324 31.5991H868.982H871.358H873.957H875.616C876.532 31.5991 877.274 32.3417 877.274 33.2576V86.5854C877.274 86.8144 877.089 87 876.859 87C876.63 87 876.445 86.8144 876.445 86.5854V80.6476C876.445 80.1897 876.074 79.8184 875.616 79.8184H873.957H871.374C871.365 79.8184 871.358 79.8116 871.358 79.8032H868.982C868.982 79.8116 868.975 79.8184 868.967 79.8184H868.568C868.339 79.8184 868.153 80.004 868.153 80.2329V80.434C868.153 80.7739 867.878 81.0495 867.538 81.0495H867.324C866.408 81.0495 865.666 80.3071 865.666 79.3913Z" fill="url(#paint72_linear_289_4588)"/>
<path d="M878.932 85.3416V23.4084C878.932 22.4925 879.675 21.7501 880.591 21.7501H882.249H883.907C884.823 21.7501 885.566 22.4926 885.566 23.4085V25.0331H887.224H888.883H890.541C891.457 25.0331 892.199 25.7756 892.199 26.6916V85.3415C892.199 86.2575 891.457 87 890.541 87H888.883H887.224H885.566H883.907H882.249H880.591C879.675 87 878.932 86.2575 878.932 85.3416Z" fill="url(#paint73_linear_289_4588)"/>
<path d="M893.858 85.3416V29.5641C893.858 28.6482 894.6 27.9057 895.516 27.9057H897.174C898.09 27.9057 898.833 28.6482 898.833 29.5641V85.3416C898.833 86.2575 898.09 87 897.174 87H895.516C894.6 87 893.858 86.2575 893.858 85.3416Z" fill="url(#paint74_linear_289_4588)"/>
<path d="M902.149 79.3912V36.9509C902.149 36.035 902.892 35.2925 903.808 35.2925H905.466H907.125H908.783C909.699 35.2925 910.441 36.035 910.441 36.9509V76.1082C910.441 77.024 909.699 77.7665 908.783 77.7665C908.325 77.7665 907.954 78.1378 907.954 78.5957V80.2205C907.954 80.6784 907.583 81.0495 907.125 81.0495H905.466H903.808C902.892 81.0495 902.149 80.3071 902.149 79.3912Z" fill="url(#paint75_linear_289_4588)"/>
<path d="M912.1 76.108V60.7359V36.951C912.1 36.035 912.842 35.2925 913.758 35.2925V27.9226C913.758 27.0067 914.501 26.2642 915.416 26.2642H917.075H918.733H920.391H922.05V20.1253C922.05 19.2095 922.792 18.4671 923.708 18.4671C924.624 18.4671 925.367 19.2095 925.367 20.1254V35.2925V77.7665H923.708H922.05H920.391H918.733H917.075H915.416H913.758C912.842 77.7665 912.1 77.024 912.1 76.108Z" fill="url(#paint76_linear_289_4588)"/>
<path d="M928.683 76.1082V20.1254C928.683 19.2095 929.426 18.4671 930.342 18.4671C931.258 18.4671 932 19.2095 932 20.1253V76.1082C932 77.0241 931.258 77.7665 930.342 77.7665C929.426 77.7665 928.683 77.024 928.683 76.1082Z" fill="url(#paint77_linear_289_4588)"/>
<path d="M0 43.9676C0 42.0346 1.567 40.4676 3.5 40.4676H7.17917C9.11216 40.4676 10.6792 42.0346 10.6792 43.9676V50.0236C10.6792 51.9566 12.2462 53.5236 14.1792 53.5236H31.1264C33.0594 53.5236 34.6264 55.0906 34.6264 57.0236V63.767C34.6264 65.7 36.1934 67.267 38.1264 67.267H52.1611C54.0941 67.267 55.6611 65.7 55.6611 63.767V54.733C55.6611 52.8 57.2281 51.233 59.1611 51.233H76.1083C78.0413 51.233 79.6083 52.8 79.6083 54.733V67.0393C79.6083 68.9723 81.1753 70.5393 83.1083 70.5393H85.1435C87.0765 70.5393 88.6435 68.9723 88.6435 67.0393V66.8403C88.6435 64.9073 90.2106 63.3403 92.1435 63.3403H100.056C101.989 63.3403 103.556 61.7733 103.556 59.8403V54.733C103.556 52.8 105.123 51.233 107.056 51.233H122.815C124.532 51.233 125.924 49.8412 125.924 48.1243C125.924 46.4075 127.315 45.0157 129.032 45.0157H140.649C142.582 45.0157 144.149 43.4487 144.149 41.5157V31.6619C144.149 29.7289 145.716 28.1619 147.649 28.1619H162.512C164.445 28.1619 166.012 29.7289 166.012 31.6619V64.0309C166.012 65.8182 167.461 67.267 169.249 67.267C171.036 67.267 172.485 65.8182 172.485 64.0309V31.6195C172.485 29.7031 174.026 28.1431 175.942 28.1197L182.21 28.0432C184.16 28.0194 185.753 29.5933 185.753 31.543V63.767C185.753 65.7 187.32 67.267 189.253 67.267H206.14V55.1399C206.14 53.2069 207.707 51.6399 209.64 51.6399H214.938C216.87 51.6399 218.438 53.2069 218.438 55.1399V67.267H238.406C240.339 67.267 241.906 65.7 241.906 63.767V31.5C241.906 29.567 243.473 28 245.406 28H263.479C265.412 28 266.979 29.567 266.979 31.5V63.767C266.979 65.7 268.546 67.267 270.479 67.267H287.007C288.814 67.267 290.279 68.7321 290.279 70.5393C290.279 72.3465 291.744 73.8115 293.551 73.8115H332.848C334.781 73.8115 336.348 72.2445 336.348 70.3115V58.6597C336.348 56.7267 337.915 55.1597 339.848 55.1597H356.873C358.806 55.1597 360.373 56.7267 360.373 58.6597V70.3115C360.373 72.2445 361.94 73.8115 363.873 73.8115H381.597C383.53 73.8115 385.097 72.2445 385.097 70.3115V58.6597C385.097 56.7267 386.664 55.1597 388.597 55.1597H409.751C411.684 55.1597 413.251 56.7267 413.251 58.6597V60.8335C413.251 62.762 414.811 64.3271 416.74 64.3334L443.698 64.4219C445.293 64.4271 446.583 65.7217 446.583 67.317C446.583 68.9159 447.88 70.212 449.478 70.212H477.826C479.759 70.212 481.326 68.645 481.326 66.712V59.6414C481.326 57.7084 482.893 56.1414 484.826 56.1414H490.331C492.264 56.1414 493.831 57.7084 493.831 59.6414V68.0557C493.831 69.9887 495.398 71.5557 497.331 71.5557H506.822C508.755 71.5557 510.322 69.9887 510.322 68.0557V55.3874C510.322 53.4544 511.889 51.8874 513.822 51.8874H528.361C530.294 51.8874 531.861 53.4544 531.861 55.3874V68.5415C531.861 70.4744 533.428 72.0415 535.361 72.0415H544.102C546.035 72.0415 547.602 70.4745 547.602 68.5415V34.7723C547.602 32.8393 549.169 31.2723 551.102 31.2723H577.058C578.991 31.2723 580.558 32.8393 580.558 34.7723V36.6073C580.558 38.5403 582.125 40.1073 584.058 40.1073H589.356C591.289 40.1073 592.856 41.6743 592.856 43.6073V67.8938C592.856 69.8268 594.423 71.3938 596.356 71.3938H623.632C625.565 71.3938 627.132 69.8268 627.132 67.8938V42.2984C627.132 40.3654 628.699 38.7984 630.632 38.7984H646.635C648.568 38.7984 650.135 40.3654 650.135 42.2984V50.3508C650.135 52.2838 651.702 53.8508 653.635 53.8508H659.903C661.836 53.8508 663.403 55.4178 663.403 57.3508V67.3665C663.403 69.2995 664.97 70.8665 666.903 70.8665H684.937C686.87 70.8665 688.437 69.2995 688.437 67.3665V55.3874C688.437 53.4544 690.004 51.8874 691.937 51.8874H722.683C724.616 51.8874 726.183 53.4544 726.183 55.3874V75.2199C726.183 77.1529 727.75 78.7199 729.683 78.7199H747.963C749.861 78.7199 751.399 77.1816 751.399 75.284C751.399 73.3865 752.937 71.8482 754.835 71.8482H771.924C773.857 71.8482 775.424 70.2812 775.424 68.3482V65.9883C775.424 64.0553 776.991 62.4883 778.924 62.4883H807.793C809.726 62.4883 811.293 64.0553 811.293 65.9883V69.9843C811.293 71.9173 812.86 73.4843 814.793 73.4843H852.363C853.809 73.4843 854.981 74.6563 854.981 76.1021C854.981 77.5479 856.153 78.7199 857.598 78.7199H863.881C865.814 78.7199 867.381 77.1529 867.381 75.2199V53.4241C867.381 51.4911 868.948 49.9241 870.881 49.9241H871.544C873.477 49.9241 875.044 51.4911 875.044 53.4241V84.7094C875.044 86.6424 876.611 88.2094 878.544 88.2094H897.848C899.781 88.2094 901.348 86.6424 901.348 84.7094V76.9843C901.348 75.0513 902.915 73.4843 904.848 73.4843H924.881V59.9974C924.881 58.0644 926.448 56.4974 928.381 56.4974H928.5C930.433 56.4974 932 58.0644 932 59.9974V73.4843V149.5C932 151.433 930.433 153 928.5 153H3.50002C1.56703 153 0 151.433 0 149.5V43.9676Z" fill="url(#paint78_linear_289_4588)"/>
<defs>
<linearGradient id="paint0_linear_289_4588" x1="470.215" y1="207.369" x2="468.942" y2="-124.917" gradientUnits="userSpaceOnUse">
<stop stop-color="#202C32"/>
<stop offset="0.665" stop-color="#D7C796"/>
</linearGradient>
<linearGradient id="paint1_linear_289_4588" x1="470.215" y1="207.369" x2="468.942" y2="-124.917" gradientUnits="userSpaceOnUse">
<stop stop-color="#202C32"/>
<stop offset="0.665" stop-color="#D7C796"/>
</linearGradient>
<linearGradient id="paint2_linear_289_4588" x1="470.215" y1="207.369" x2="468.942" y2="-124.917" gradientUnits="userSpaceOnUse">
<stop stop-color="#202C32"/>
<stop offset="0.665" stop-color="#D7C796"/>
</linearGradient>
<linearGradient id="paint3_linear_289_4588" x1="470.215" y1="207.369" x2="468.942" y2="-124.917" gradientUnits="userSpaceOnUse">
<stop stop-color="#202C32"/>
<stop offset="0.665" stop-color="#D7C796"/>
</linearGradient>
<linearGradient id="paint4_linear_289_4588" x1="470.215" y1="207.369" x2="468.942" y2="-124.917" gradientUnits="userSpaceOnUse">
<stop stop-color="#202C32"/>
<stop offset="0.665" stop-color="#D7C796"/>
</linearGradient>
<linearGradient id="paint5_linear_289_4588" x1="470.215" y1="207.369" x2="468.942" y2="-124.917" gradientUnits="userSpaceOnUse">
<stop stop-color="#202C32"/>
<stop offset="0.665" stop-color="#D7C796"/>
</linearGradient>
<linearGradient id="paint6_linear_289_4588" x1="470.215" y1="207.369" x2="468.942" y2="-124.917" gradientUnits="userSpaceOnUse">
<stop stop-color="#202C32"/>
<stop offset="0.665" stop-color="#D7C796"/>
</linearGradient>
<linearGradient id="paint7_linear_289_4588" x1="470.215" y1="207.369" x2="468.942" y2="-124.917" gradientUnits="userSpaceOnUse">
<stop stop-color="#202C32"/>
<stop offset="0.665" stop-color="#D7C796"/>
</linearGradient>
<linearGradient id="paint8_linear_289_4588" x1="470.215" y1="207.369" x2="468.942" y2="-124.917" gradientUnits="userSpaceOnUse">
<stop stop-color="#202C32"/>
<stop offset="0.665" stop-color="#D7C796"/>
</linearGradient>
<linearGradient id="paint9_linear_289_4588" x1="470.215" y1="207.369" x2="468.942" y2="-124.917" gradientUnits="userSpaceOnUse">
<stop stop-color="#202C32"/>
<stop offset="0.665" stop-color="#D7C796"/>
</linearGradient>
<linearGradient id="paint10_linear_289_4588" x1="470.215" y1="207.369" x2="468.942" y2="-124.917" gradientUnits="userSpaceOnUse">
<stop stop-color="#202C32"/>
<stop offset="0.665" stop-color="#D7C796"/>
</linearGradient>
<linearGradient id="paint11_linear_289_4588" x1="470.215" y1="207.369" x2="468.942" y2="-124.917" gradientUnits="userSpaceOnUse">
<stop stop-color="#202C32"/>
<stop offset="0.665" stop-color="#D7C796"/>
</linearGradient>
<linearGradient id="paint12_linear_289_4588" x1="470.215" y1="207.369" x2="468.942" y2="-124.917" gradientUnits="userSpaceOnUse">
<stop stop-color="#202C32"/>
<stop offset="0.665" stop-color="#D7C796"/>
</linearGradient>
<linearGradient id="paint13_linear_289_4588" x1="470.215" y1="207.369" x2="468.942" y2="-124.917" gradientUnits="userSpaceOnUse">
<stop stop-color="#202C32"/>
<stop offset="0.665" stop-color="#D7C796"/>
</linearGradient>
<linearGradient id="paint14_linear_289_4588" x1="470.215" y1="207.369" x2="468.942" y2="-124.917" gradientUnits="userSpaceOnUse">
<stop stop-color="#202C32"/>
<stop offset="0.665" stop-color="#D7C796"/>
</linearGradient>
<linearGradient id="paint15_linear_289_4588" x1="470.215" y1="207.369" x2="468.942" y2="-124.917" gradientUnits="userSpaceOnUse">
<stop stop-color="#202C32"/>
<stop offset="0.665" stop-color="#D7C796"/>
</linearGradient>
<linearGradient id="paint16_linear_289_4588" x1="470.215" y1="207.369" x2="468.942" y2="-124.917" gradientUnits="userSpaceOnUse">
<stop stop-color="#202C32"/>
<stop offset="0.665" stop-color="#D7C796"/>
</linearGradient>
<linearGradient id="paint17_linear_289_4588" x1="470.215" y1="207.369" x2="468.942" y2="-124.917" gradientUnits="userSpaceOnUse">
<stop stop-color="#202C32"/>
<stop offset="0.665" stop-color="#D7C796"/>
</linearGradient>
<linearGradient id="paint18_linear_289_4588" x1="470.215" y1="207.369" x2="468.942" y2="-124.917" gradientUnits="userSpaceOnUse">
<stop stop-color="#202C32"/>
<stop offset="0.665" stop-color="#D7C796"/>
</linearGradient>
<linearGradient id="paint19_linear_289_4588" x1="470.215" y1="207.369" x2="468.942" y2="-124.917" gradientUnits="userSpaceOnUse">
<stop stop-color="#202C32"/>
<stop offset="0.665" stop-color="#D7C796"/>
</linearGradient>
<linearGradient id="paint20_linear_289_4588" x1="470.215" y1="207.369" x2="468.942" y2="-124.917" gradientUnits="userSpaceOnUse">
<stop stop-color="#202C32"/>
<stop offset="0.665" stop-color="#D7C796"/>
</linearGradient>
<linearGradient id="paint21_linear_289_4588" x1="470.215" y1="207.369" x2="468.942" y2="-124.917" gradientUnits="userSpaceOnUse">
<stop stop-color="#202C32"/>
<stop offset="0.665" stop-color="#D7C796"/>
</linearGradient>
<linearGradient id="paint22_linear_289_4588" x1="470.215" y1="207.369" x2="468.942" y2="-124.917" gradientUnits="userSpaceOnUse">
<stop stop-color="#202C32"/>
<stop offset="0.665" stop-color="#D7C796"/>
</linearGradient>
<linearGradient id="paint23_linear_289_4588" x1="470.215" y1="207.369" x2="468.942" y2="-124.917" gradientUnits="userSpaceOnUse">
<stop stop-color="#202C32"/>
<stop offset="0.665" stop-color="#D7C796"/>
</linearGradient>
<linearGradient id="paint24_linear_289_4588" x1="470.215" y1="207.369" x2="468.942" y2="-124.917" gradientUnits="userSpaceOnUse">
<stop stop-color="#202C32"/>
<stop offset="0.665" stop-color="#D7C796"/>
</linearGradient>
<linearGradient id="paint25_linear_289_4588" x1="470.215" y1="207.369" x2="468.942" y2="-124.917" gradientUnits="userSpaceOnUse">
<stop stop-color="#202C32"/>
<stop offset="0.665" stop-color="#D7C796"/>
</linearGradient>
<linearGradient id="paint26_linear_289_4588" x1="470.215" y1="207.369" x2="468.942" y2="-124.917" gradientUnits="userSpaceOnUse">
<stop stop-color="#202C32"/>
<stop offset="0.665" stop-color="#D7C796"/>
</linearGradient>
<linearGradient id="paint27_linear_289_4588" x1="470.215" y1="207.369" x2="468.942" y2="-124.917" gradientUnits="userSpaceOnUse">
<stop stop-color="#202C32"/>
<stop offset="0.665" stop-color="#D7C796"/>
</linearGradient>
<linearGradient id="paint28_linear_289_4588" x1="470.215" y1="207.369" x2="468.942" y2="-124.917" gradientUnits="userSpaceOnUse">
<stop stop-color="#202C32"/>
<stop offset="0.665" stop-color="#D7C796"/>
</linearGradient>
<linearGradient id="paint29_linear_289_4588" x1="470.215" y1="207.369" x2="468.942" y2="-124.917" gradientUnits="userSpaceOnUse">
<stop stop-color="#202C32"/>
<stop offset="0.665" stop-color="#D7C796"/>
</linearGradient>
<linearGradient id="paint30_linear_289_4588" x1="470.215" y1="207.369" x2="468.942" y2="-124.917" gradientUnits="userSpaceOnUse">
<stop stop-color="#202C32"/>
<stop offset="0.665" stop-color="#D7C796"/>
</linearGradient>
<linearGradient id="paint31_linear_289_4588" x1="470.215" y1="207.369" x2="468.942" y2="-124.917" gradientUnits="userSpaceOnUse">
<stop stop-color="#202C32"/>
<stop offset="0.665" stop-color="#D7C796"/>
</linearGradient>
<linearGradient id="paint32_linear_289_4588" x1="470.215" y1="207.369" x2="468.942" y2="-124.917" gradientUnits="userSpaceOnUse">
<stop stop-color="#202C32"/>
<stop offset="0.665" stop-color="#D7C796"/>
</linearGradient>
<linearGradient id="paint33_linear_289_4588" x1="470.215" y1="207.369" x2="468.942" y2="-124.917" gradientUnits="userSpaceOnUse">
<stop stop-color="#202C32"/>
<stop offset="0.665" stop-color="#D7C796"/>
</linearGradient>
<linearGradient id="paint34_linear_289_4588" x1="470.215" y1="207.369" x2="468.942" y2="-124.917" gradientUnits="userSpaceOnUse">
<stop stop-color="#202C32"/>
<stop offset="0.665" stop-color="#D7C796"/>
</linearGradient>
<linearGradient id="paint35_linear_289_4588" x1="470.215" y1="207.369" x2="468.942" y2="-124.917" gradientUnits="userSpaceOnUse">
<stop stop-color="#202C32"/>
<stop offset="0.665" stop-color="#D7C796"/>
</linearGradient>
<linearGradient id="paint36_linear_289_4588" x1="470.215" y1="207.369" x2="468.942" y2="-124.917" gradientUnits="userSpaceOnUse">
<stop stop-color="#202C32"/>
<stop offset="0.665" stop-color="#D7C796"/>
</linearGradient>
<linearGradient id="paint37_linear_289_4588" x1="470.215" y1="207.369" x2="468.942" y2="-124.917" gradientUnits="userSpaceOnUse">
<stop stop-color="#202C32"/>
<stop offset="0.665" stop-color="#D7C796"/>
</linearGradient>
<linearGradient id="paint38_linear_289_4588" x1="470.215" y1="207.369" x2="468.942" y2="-124.917" gradientUnits="userSpaceOnUse">
<stop stop-color="#202C32"/>
<stop offset="0.665" stop-color="#D7C796"/>
</linearGradient>
<linearGradient id="paint39_linear_289_4588" x1="470.215" y1="207.369" x2="468.942" y2="-124.917" gradientUnits="userSpaceOnUse">
<stop stop-color="#202C32"/>
<stop offset="0.665" stop-color="#D7C796"/>
</linearGradient>
<linearGradient id="paint40_linear_289_4588" x1="470.215" y1="207.369" x2="468.942" y2="-124.917" gradientUnits="userSpaceOnUse">
<stop stop-color="#202C32"/>
<stop offset="0.665" stop-color="#D7C796"/>
</linearGradient>
<linearGradient id="paint41_linear_289_4588" x1="470.215" y1="207.369" x2="468.942" y2="-124.917" gradientUnits="userSpaceOnUse">
<stop stop-color="#202C32"/>
<stop offset="0.665" stop-color="#D7C796"/>
</linearGradient>
<linearGradient id="paint42_linear_289_4588" x1="470.215" y1="207.369" x2="468.942" y2="-124.917" gradientUnits="userSpaceOnUse">
<stop stop-color="#202C32"/>
<stop offset="0.665" stop-color="#D7C796"/>
</linearGradient>
<linearGradient id="paint43_linear_289_4588" x1="470.215" y1="207.369" x2="468.942" y2="-124.917" gradientUnits="userSpaceOnUse">
<stop stop-color="#202C32"/>
<stop offset="0.665" stop-color="#D7C796"/>
</linearGradient>
<linearGradient id="paint44_linear_289_4588" x1="470.215" y1="207.369" x2="468.942" y2="-124.917" gradientUnits="userSpaceOnUse">
<stop stop-color="#202C32"/>
<stop offset="0.665" stop-color="#D7C796"/>
</linearGradient>
<linearGradient id="paint45_linear_289_4588" x1="470.215" y1="207.369" x2="468.942" y2="-124.917" gradientUnits="userSpaceOnUse">
<stop stop-color="#202C32"/>
<stop offset="0.665" stop-color="#D7C796"/>
</linearGradient>
<linearGradient id="paint46_linear_289_4588" x1="470.215" y1="207.369" x2="468.942" y2="-124.917" gradientUnits="userSpaceOnUse">
<stop stop-color="#202C32"/>
<stop offset="0.665" stop-color="#D7C796"/>
</linearGradient>
<linearGradient id="paint47_linear_289_4588" x1="470.215" y1="207.369" x2="468.942" y2="-124.917" gradientUnits="userSpaceOnUse">
<stop stop-color="#202C32"/>
<stop offset="0.665" stop-color="#D7C796"/>
</linearGradient>
<linearGradient id="paint48_linear_289_4588" x1="470.215" y1="207.369" x2="468.942" y2="-124.917" gradientUnits="userSpaceOnUse">
<stop stop-color="#202C32"/>
<stop offset="0.665" stop-color="#D7C796"/>
</linearGradient>
<linearGradient id="paint49_linear_289_4588" x1="470.215" y1="207.369" x2="468.942" y2="-124.917" gradientUnits="userSpaceOnUse">
<stop stop-color="#202C32"/>
<stop offset="0.665" stop-color="#D7C796"/>
</linearGradient>
<linearGradient id="paint50_linear_289_4588" x1="470.215" y1="207.369" x2="468.942" y2="-124.917" gradientUnits="userSpaceOnUse">
<stop stop-color="#202C32"/>
<stop offset="0.665" stop-color="#D7C796"/>
</linearGradient>
<linearGradient id="paint51_linear_289_4588" x1="470.215" y1="207.369" x2="468.942" y2="-124.917" gradientUnits="userSpaceOnUse">
<stop stop-color="#202C32"/>
<stop offset="0.665" stop-color="#D7C796"/>
</linearGradient>
<linearGradient id="paint52_linear_289_4588" x1="470.215" y1="207.369" x2="468.942" y2="-124.917" gradientUnits="userSpaceOnUse">
<stop stop-color="#202C32"/>
<stop offset="0.665" stop-color="#D7C796"/>
</linearGradient>
<linearGradient id="paint53_linear_289_4588" x1="470.215" y1="207.369" x2="468.942" y2="-124.917" gradientUnits="userSpaceOnUse">
<stop stop-color="#202C32"/>
<stop offset="0.665" stop-color="#D7C796"/>
</linearGradient>
<linearGradient id="paint54_linear_289_4588" x1="470.215" y1="207.369" x2="468.942" y2="-124.917" gradientUnits="userSpaceOnUse">
<stop stop-color="#202C32"/>
<stop offset="0.665" stop-color="#D7C796"/>
</linearGradient>
<linearGradient id="paint55_linear_289_4588" x1="470.215" y1="207.369" x2="468.942" y2="-124.917" gradientUnits="userSpaceOnUse">
<stop stop-color="#202C32"/>
<stop offset="0.665" stop-color="#D7C796"/>
</linearGradient>
<linearGradient id="paint56_linear_289_4588" x1="470.215" y1="207.369" x2="468.942" y2="-124.917" gradientUnits="userSpaceOnUse">
<stop stop-color="#202C32"/>
<stop offset="0.665" stop-color="#D7C796"/>
</linearGradient>
<linearGradient id="paint57_linear_289_4588" x1="470.215" y1="207.369" x2="468.942" y2="-124.917" gradientUnits="userSpaceOnUse">
<stop stop-color="#202C32"/>
<stop offset="0.665" stop-color="#D7C796"/>
</linearGradient>
<linearGradient id="paint58_linear_289_4588" x1="470.215" y1="207.369" x2="468.942" y2="-124.917" gradientUnits="userSpaceOnUse">
<stop stop-color="#202C32"/>
<stop offset="0.665" stop-color="#D7C796"/>
</linearGradient>
<linearGradient id="paint59_linear_289_4588" x1="470.215" y1="207.369" x2="468.942" y2="-124.917" gradientUnits="userSpaceOnUse">
<stop stop-color="#202C32"/>
<stop offset="0.665" stop-color="#D7C796"/>
</linearGradient>
<linearGradient id="paint60_linear_289_4588" x1="470.215" y1="207.369" x2="468.942" y2="-124.917" gradientUnits="userSpaceOnUse">
<stop stop-color="#202C32"/>
<stop offset="0.665" stop-color="#D7C796"/>
</linearGradient>
<linearGradient id="paint61_linear_289_4588" x1="470.215" y1="207.369" x2="468.942" y2="-124.917" gradientUnits="userSpaceOnUse">
<stop stop-color="#202C32"/>
<stop offset="0.665" stop-color="#D7C796"/>
</linearGradient>
<linearGradient id="paint62_linear_289_4588" x1="470.215" y1="207.369" x2="468.942" y2="-124.917" gradientUnits="userSpaceOnUse">
<stop stop-color="#202C32"/>
<stop offset="0.665" stop-color="#D7C796"/>
</linearGradient>
<linearGradient id="paint63_linear_289_4588" x1="470.215" y1="207.369" x2="468.942" y2="-124.917" gradientUnits="userSpaceOnUse">
<stop stop-color="#202C32"/>
<stop offset="0.665" stop-color="#D7C796"/>
</linearGradient>
<linearGradient id="paint64_linear_289_4588" x1="470.215" y1="207.369" x2="468.942" y2="-124.917" gradientUnits="userSpaceOnUse">
<stop stop-color="#202C32"/>
<stop offset="0.665" stop-color="#D7C796"/>
</linearGradient>
<linearGradient id="paint65_linear_289_4588" x1="470.215" y1="207.369" x2="468.942" y2="-124.917" gradientUnits="userSpaceOnUse">
<stop stop-color="#202C32"/>
<stop offset="0.665" stop-color="#D7C796"/>
</linearGradient>
<linearGradient id="paint66_linear_289_4588" x1="470.215" y1="207.369" x2="468.942" y2="-124.917" gradientUnits="userSpaceOnUse">
<stop stop-color="#202C32"/>
<stop offset="0.665" stop-color="#D7C796"/>
</linearGradient>
<linearGradient id="paint67_linear_289_4588" x1="470.215" y1="207.369" x2="468.942" y2="-124.917" gradientUnits="userSpaceOnUse">
<stop stop-color="#202C32"/>
<stop offset="0.665" stop-color="#D7C796"/>
</linearGradient>
<linearGradient id="paint68_linear_289_4588" x1="470.215" y1="207.369" x2="468.942" y2="-124.917" gradientUnits="userSpaceOnUse">
<stop stop-color="#202C32"/>
<stop offset="0.665" stop-color="#D7C796"/>
</linearGradient>
<linearGradient id="paint69_linear_289_4588" x1="470.215" y1="207.369" x2="468.942" y2="-124.917" gradientUnits="userSpaceOnUse">
<stop stop-color="#202C32"/>
<stop offset="0.665" stop-color="#D7C796"/>
</linearGradient>
<linearGradient id="paint70_linear_289_4588" x1="470.215" y1="207.369" x2="468.942" y2="-124.917" gradientUnits="userSpaceOnUse">
<stop stop-color="#202C32"/>
<stop offset="0.665" stop-color="#D7C796"/>
</linearGradient>
<linearGradient id="paint71_linear_289_4588" x1="470.215" y1="207.369" x2="468.942" y2="-124.917" gradientUnits="userSpaceOnUse">
<stop stop-color="#202C32"/>
<stop offset="0.665" stop-color="#D7C796"/>
</linearGradient>
<linearGradient id="paint72_linear_289_4588" x1="470.215" y1="207.369" x2="468.942" y2="-124.917" gradientUnits="userSpaceOnUse">
<stop stop-color="#202C32"/>
<stop offset="0.665" stop-color="#D7C796"/>
</linearGradient>
<linearGradient id="paint73_linear_289_4588" x1="470.215" y1="207.369" x2="468.942" y2="-124.917" gradientUnits="userSpaceOnUse">
<stop stop-color="#202C32"/>
<stop offset="0.665" stop-color="#D7C796"/>
</linearGradient>
<linearGradient id="paint74_linear_289_4588" x1="470.215" y1="207.369" x2="468.942" y2="-124.917" gradientUnits="userSpaceOnUse">
<stop stop-color="#202C32"/>
<stop offset="0.665" stop-color="#D7C796"/>
</linearGradient>
<linearGradient id="paint75_linear_289_4588" x1="470.215" y1="207.369" x2="468.942" y2="-124.917" gradientUnits="userSpaceOnUse">
<stop stop-color="#202C32"/>
<stop offset="0.665" stop-color="#D7C796"/>
</linearGradient>
<linearGradient id="paint76_linear_289_4588" x1="470.215" y1="207.369" x2="468.942" y2="-124.917" gradientUnits="userSpaceOnUse">
<stop stop-color="#202C32"/>
<stop offset="0.665" stop-color="#D7C796"/>
</linearGradient>
<linearGradient id="paint77_linear_289_4588" x1="470.215" y1="207.369" x2="468.942" y2="-124.917" gradientUnits="userSpaceOnUse">
<stop stop-color="#202C32"/>
<stop offset="0.665" stop-color="#D7C796"/>
</linearGradient>
<linearGradient id="paint78_linear_289_4588" x1="0" y1="90.5" x2="932" y2="90.5" gradientUnits="userSpaceOnUse">
<stop stop-color="#242725"/>
<stop offset="1" stop-color="#404546"/>
</linearGradient>
</defs>
</svg>
