<svg width="1440" height="467" viewBox="0 0 1440 467" fill="none" xmlns="http://www.w3.org/2000/svg">
<path d="M0 194.883V92.6174C0 89.7912 2.29116 87.5 5.11745 87.5H7.67623H10.2349H12.7936C15.6198 87.5 17.9109 89.7911 17.9109 92.6174V131.203L17.911 169.936C17.911 168.523 19.0566 167.377 20.4697 167.377C21.8829 167.377 23.0285 168.523 23.0285 169.936V174.906H26.3823V89.0588C26.3823 87.6456 27.5279 86.5 28.9411 86.5C30.3506 86.5 31.4897 87.6494 31.477 89.0588L30.7048 174.906H35.8221V89.0587C35.8221 87.6456 36.9677 86.5 38.3808 86.5H40.9397H43.4984H46.057C47.4701 86.5 48.6157 87.6456 48.6157 89.0587V197.441C48.6157 198.855 47.4701 200 46.057 200H43.4984H40.9397C40.2331 200 39.6602 199.427 39.6602 198.721V176.185C39.6602 175.479 39.0874 174.906 38.3808 174.906H35.8221H30.7048H26.3823H23.0285H17.911L17.911 194.883C17.9109 197.709 15.6198 200 12.7936 200H10.2349H5.11745C2.29116 200 0 197.709 0 194.883Z" fill="url(#paint0_linear_29_23)"/>
<path d="M51.1743 199.36V157.389C51.1743 155.976 52.32 154.83 53.7333 154.83H56.2919H58.8506C60.2637 154.83 61.4092 155.976 61.4092 157.389V226.349H63.9681V157.389C63.9681 155.976 65.1137 154.83 66.5268 154.83H69.0855C70.4986 154.83 71.6441 155.976 71.6441 157.389V226.349H76.7617V169.936C76.7617 168.523 77.9073 167.377 79.3204 167.377H81.879H84.4377C85.8509 167.377 86.9966 168.523 86.9966 169.936V211.92H89.5553V169.936C89.5553 168.523 90.7008 167.377 92.1139 167.377C93.527 167.377 94.6726 168.523 94.6726 169.936V209.361C94.6726 210.774 93.527 211.92 92.1139 211.92H89.5553H86.9966H84.4377V223.79C84.4377 225.204 83.2921 226.349 81.879 226.349H79.3204H76.7617H71.6441H69.0855H66.5268H63.9681H61.4092H58.8506H56.2919H53.7333C53.0266 226.349 52.4538 225.776 52.4538 225.07V200.64C52.4538 200.286 52.1674 200 51.8141 200C51.4608 200 51.1743 199.714 51.1743 199.36Z" fill="url(#paint1_linear_29_23)"/>
<path d="M97.2312 209.361V169.936C97.2312 168.523 98.3769 167.377 99.7902 167.377C101.203 167.377 102.349 168.523 102.349 169.936V183.689H104.907C106.321 183.689 107.466 184.834 107.466 186.247V209.361C107.466 210.774 106.321 211.92 104.907 211.92H102.349H99.7902C98.3769 211.92 97.2312 210.774 97.2312 209.361Z" fill="url(#paint2_linear_29_23)"/>
<path d="M115.142 211.92H112.584V186.247C112.584 184.834 113.729 183.689 115.142 183.689H117.701V169.936C117.701 168.523 118.847 167.377 120.26 167.377C121.673 167.377 122.818 168.523 122.818 169.936V171.142C124.232 171.142 125.377 172.287 125.377 173.701V231.343C125.377 232.05 124.804 232.623 124.098 232.623C123.391 232.623 122.818 232.05 122.818 231.343V209.361C122.818 210.774 121.673 211.92 120.26 211.92H117.701H115.142Z" fill="url(#paint3_linear_29_23)"/>
<path d="M127.936 230.064V173.7C127.936 172.287 129.081 171.142 130.495 171.142H133.053H135.612H138.171H140.73H143.288H145.847V124.779C145.847 124.073 146.42 123.5 147.127 123.5C147.833 123.5 148.406 124.073 148.406 124.779V171.142H150.965V126.059C150.965 124.64 152.104 123.483 153.523 123.462L156.082 123.5H158.641H161.2H163.758H166.317C167.73 123.5 168.876 124.646 168.876 126.059V193.05C168.876 194.463 167.73 195.609 166.317 195.609H163.758H161.2C160.493 195.609 159.92 196.181 159.92 196.888V217.542C159.92 218.248 159.347 218.821 158.641 218.821H156.082H153.523H150.965C149.552 218.821 148.406 217.675 148.406 216.262V171.142H145.847V216.262C145.847 217.675 144.702 218.821 143.288 218.821H140.73H138.171C137.464 218.821 136.892 219.394 136.892 220.1V231.344C136.892 232.05 136.319 232.623 135.612 232.623H133.053H130.495C129.081 232.623 127.936 231.477 127.936 230.064Z" fill="url(#paint4_linear_29_23)"/>
<path d="M171.434 193.05V126.021C171.434 124.608 172.58 123.462 173.993 123.462C175.406 123.462 176.552 124.608 176.552 126.021V193.05C176.552 194.463 175.406 195.609 173.993 195.609C172.58 195.609 171.434 194.463 171.434 193.05Z" fill="url(#paint5_linear_29_23)"/>
<path d="M181.669 193.05V126.021C181.669 124.608 182.815 123.462 184.228 123.462H186.787H189.345V119.748C189.345 118.334 190.491 117.189 191.904 117.189H194.463H197.022H199.58C200.993 117.189 202.139 118.334 202.139 119.747V181.13C202.139 182.543 200.993 183.689 199.58 183.689H197.022H194.463V193.05C194.463 194.463 193.317 195.609 191.904 195.609H189.345H186.787H184.228C182.815 195.609 181.669 194.463 181.669 193.05Z" fill="url(#paint6_linear_29_23)"/>
<path d="M204.698 181.13V119.747C204.698 118.334 205.843 117.189 207.256 117.189H209.815C211.228 117.189 212.374 118.334 212.374 119.747V181.13C212.374 182.543 211.228 183.689 209.815 183.689H207.256C205.843 183.689 204.698 182.543 204.698 181.13Z" fill="url(#paint7_linear_29_23)"/>
<path d="M214.933 181.13V85.8702C214.933 84.4571 216.078 83.3115 217.491 83.3115C218.904 83.3115 220.05 84.4571 220.05 85.8702V181.13C220.05 182.543 218.904 183.689 217.491 183.689C216.078 183.689 214.933 182.543 214.933 181.13Z" fill="url(#paint8_linear_29_23)"/>
<path d="M222.609 177.366V85.8702C222.609 84.4571 223.754 83.3115 225.167 83.3115C226.581 83.3115 227.726 84.4572 227.726 85.8704V179.925H225.167C223.754 179.925 222.609 178.779 222.609 177.366Z" fill="url(#paint9_linear_29_23)"/>
<path d="M235.402 177.366V75.8324C235.402 74.4193 236.548 73.2738 237.961 73.2738H240.52H243.078H245.637H248.196H250.754H253.313H255.872H258.431H260.99H263.548H266.107H268.666V59.5212C268.666 58.108 269.811 56.9625 271.225 56.9625H273.783H276.342H278.901H281.459H284.018H286.577V26.2219V16.8362C286.577 16.1296 287.15 15.5569 287.856 15.5569C288.563 15.5569 289.135 16.1296 289.135 16.8362V26.2219V56.9625V225.07C289.135 225.776 288.563 226.349 287.856 226.349C287.15 226.349 286.577 225.776 286.577 225.07V208.156H284.018H281.459H278.901H276.342H273.783H271.225H268.666H266.107H263.548H260.99H258.431H255.872C255.165 208.156 254.593 207.583 254.593 206.876V181.204C254.593 180.497 254.02 179.925 253.313 179.925H250.754H248.196H245.637H243.078H240.52H237.961C236.548 179.925 235.402 178.779 235.402 177.366Z" fill="url(#paint10_linear_29_23)"/>
<path d="M291.694 223.79V16.8608C291.694 15.4477 292.84 14.3021 294.253 14.3021H296.812H299.37C300.784 14.3021 301.929 15.4478 301.929 16.8611V223.79C301.929 225.203 300.784 226.349 299.37 226.349H296.812H294.253C292.84 226.349 291.694 225.204 291.694 223.79Z" fill="url(#paint11_linear_29_23)"/>
<path d="M304.488 223.79V14.3021V3.05865C304.488 1.64555 305.633 0.5 307.047 0.5C308.46 0.5 309.605 1.64555 309.605 3.05865V26.2219V223.79C309.605 225.204 308.46 226.349 307.047 226.349C305.633 226.349 304.488 225.204 304.488 223.79Z" fill="url(#paint12_linear_29_23)"/>
<path d="M312.164 223.79V3.0589C312.164 1.64566 313.31 0.5 314.723 0.5C316.136 0.5 317.281 1.64555 317.281 3.05866V223.79C317.281 225.204 316.136 226.349 314.723 226.349C313.31 226.349 312.164 225.203 312.164 223.79Z" fill="url(#paint13_linear_29_23)"/>
<path d="M319.84 223.79V3.05926C319.84 1.64614 320.986 0.500587 322.399 0.500587C323.812 0.500587 324.958 1.64625 324.958 3.05949V5.51945H327.516V3.05924C327.516 1.64614 328.662 0.500587 330.075 0.500587C331.488 0.500587 332.634 1.64615 332.634 3.05927V18.0666H335.192C336.606 18.0666 337.751 19.2123 337.751 20.6255V31.8685H340.31V20.6253C340.31 19.2122 341.455 18.0666 342.869 18.0666C344.282 18.0666 345.427 19.2122 345.427 20.6253V72.0191V223.79C345.427 225.204 344.282 226.349 342.869 226.349H340.31H337.751H335.192H332.634H330.075H327.516H324.958H322.399C320.986 226.349 319.84 225.204 319.84 223.79Z" fill="url(#paint14_linear_29_23)"/>
<path d="M347.986 223.79V72.0191V20.6253C347.986 19.2122 349.132 18.0666 350.545 18.0666C351.958 18.0666 353.103 19.2122 353.103 20.6254V72.0191H354.407C355.1 72.0191 355.662 72.5808 355.662 73.2738H358.221H360.78V49.4834C360.78 48.0703 361.925 46.9248 363.338 46.9248H365.897C367.31 46.9248 368.456 48.0703 368.456 49.4834V223.79C368.456 225.204 367.31 226.349 365.897 226.349H363.338H360.78H358.221H355.662H353.103H350.545C349.132 226.349 347.986 225.204 347.986 223.79Z" fill="url(#paint15_linear_29_23)"/>
<path d="M371.015 225.07V49.4834C371.015 48.0703 372.16 46.9248 373.573 46.9248H376.132C377.545 46.9248 378.691 48.0704 378.691 49.4837V151.066H376.132H373.573V225.07C373.573 225.776 373 226.349 372.294 226.349C371.587 226.349 371.015 225.776 371.015 225.07Z" fill="url(#paint16_linear_29_23)"/>
<path d="M388.926 151.066H386.367V29.4082C386.367 27.995 387.512 26.8493 388.926 26.8493H390.23C390.923 26.8493 391.484 27.4111 391.484 28.104C392.897 28.104 394.043 29.2496 394.043 30.6627V148.507C394.043 149.921 392.897 151.066 391.484 151.066H388.926Z" fill="url(#paint17_linear_29_23)"/>
<path d="M396.602 148.508V30.6627C396.602 29.2496 397.747 28.104 399.16 28.104H401.719H404.278H406.837H409.395H411.954C413.367 28.104 414.513 29.2496 414.513 30.6627V226.349H417.072H419.63V58.2664C419.63 56.8533 420.776 55.7078 422.189 55.7078H424.748H427.306C428.72 55.7078 429.865 56.8533 429.865 58.2664V223.79C429.865 225.204 428.72 226.349 427.306 226.349H424.748H422.189H419.63H417.072H414.513C413.1 226.349 411.954 225.204 411.954 223.79V151.066H409.395H406.837H404.278H401.719H399.16C397.747 151.066 396.602 149.921 396.602 148.508Z" fill="url(#paint18_linear_29_23)"/>
<path d="M432.424 223.79V43.2101C432.424 41.7969 433.569 40.6512 434.983 40.6512H437.541H440.1H442.659C444.072 40.6512 445.218 41.7969 445.218 43.2101V223.79C445.218 225.203 444.072 226.349 442.659 226.349H440.1H437.541H434.983C433.569 226.349 432.424 225.203 432.424 223.79Z" fill="url(#paint19_linear_29_23)"/>
<path d="M447.776 225.07V59.5211C447.776 58.108 448.922 56.9625 450.335 56.9625H452.893H455.452C456.865 56.9625 458.011 58.1081 458.011 59.5214V223.79C458.011 225.203 456.865 226.349 455.452 226.349C454.039 226.349 452.893 225.204 452.893 223.79V56.9625H450.335V225.07C450.335 225.776 449.762 226.349 449.056 226.349C448.349 226.349 447.776 225.776 447.776 225.07Z" fill="url(#paint20_linear_29_23)"/>
<path d="M460.57 223.79V89.6343C460.57 88.2212 461.715 87.0757 463.128 87.0757C464.542 87.0757 465.687 88.2212 465.687 89.6343V223.79C465.687 225.204 464.542 226.349 463.128 226.349C461.715 226.349 460.57 225.204 460.57 223.79Z" fill="url(#paint21_linear_29_23)"/>
<path d="M468.246 223.79V89.6346C468.246 88.2213 469.391 87.0757 470.805 87.0757H473.363H475.922V67.0494C475.922 65.6363 477.068 64.4908 478.481 64.4908H481.04H483.598H486.157H488.716C490.129 64.4908 491.274 65.6363 491.274 67.0494V236.338C491.274 237.751 490.129 238.896 488.716 238.896H486.157H483.598H481.04C479.626 238.896 478.481 237.751 478.481 236.337V226.349H475.922H473.363H470.805C469.391 226.349 468.246 225.203 468.246 223.79Z" fill="url(#paint22_linear_29_23)"/>
<path d="M498.95 238.896H496.392V67.0494C496.392 65.6363 497.537 64.4908 498.95 64.4908C500.364 64.4908 501.509 65.6364 501.509 67.0497V236.337C501.509 237.751 500.364 238.896 498.95 238.896Z" fill="url(#paint23_linear_29_23)"/>
<path d="M509.185 238.896H506.627V82.106C506.627 80.6929 507.772 79.5474 509.185 79.5474H511.744H514.303H516.862H518.165C518.858 79.5474 519.42 80.1091 519.42 80.8021H521.979H524.538C525.951 80.8021 527.096 81.9476 527.096 83.3607V200.578C527.096 201.991 525.951 203.137 524.538 203.137H521.979H519.42V236.338C519.42 237.751 518.275 238.896 516.862 238.896H514.303H511.744H509.185Z" fill="url(#paint24_linear_29_23)"/>
<path d="M529.655 200.578V105.946C529.655 104.533 530.801 103.387 532.214 103.387H534.773C536.186 103.387 537.331 104.533 537.331 105.946V200.578C537.331 201.991 536.186 203.137 534.773 203.137H532.214C530.801 203.137 529.655 201.991 529.655 200.578Z" fill="url(#paint25_linear_29_23)"/>
<path d="M542.449 200.578V105.946C542.449 104.533 543.594 103.387 545.007 103.387C546.421 103.387 547.566 104.533 547.566 105.946V203.137H550.125H552.684V69.5588C552.684 68.1457 553.829 67.0002 555.242 67.0002H557.801H560.36C561.773 67.0002 562.918 68.1458 562.918 69.5589V221.941C562.918 223.354 561.773 224.5 560.36 224.5H557.801C557.094 224.5 556.522 223.927 556.522 223.221V204.416C556.522 203.71 555.949 203.137 555.242 203.137H552.684H550.125H547.566H545.007C543.594 203.137 542.449 201.991 542.449 200.578Z" fill="url(#paint26_linear_29_23)"/>
<path d="M565.477 221.941V69.5589C565.477 68.1457 566.623 67.0002 568.036 67.0002H570.595C572.008 67.0002 573.153 68.1457 573.153 69.5589V220.662C573.153 222.782 571.435 224.5 569.315 224.5H568.036C566.623 224.5 565.477 223.354 565.477 221.941Z" fill="url(#paint27_linear_29_23)"/>
<path d="M575.712 221.941V54.4777C575.712 53.7711 576.285 53.1983 576.991 53.1983C577.698 53.1983 578.271 53.7711 578.271 54.4777V224.5H580.83V55.7571C580.83 54.3439 581.975 53.1983 583.388 53.1983H585.947C587.36 53.1983 588.506 54.3439 588.506 55.757V221.941C588.506 223.354 587.36 224.5 585.947 224.5H583.388H580.83H578.271C576.858 224.5 575.712 223.354 575.712 221.941Z" fill="url(#paint28_linear_29_23)"/>
<path d="M591.064 221.941V54.4777C591.064 53.7711 591.637 53.1983 592.344 53.1983C593.05 53.1983 593.623 53.7711 593.623 54.4777V224.5L596.182 196.863V54.4777C596.182 53.7711 596.755 53.1983 597.461 53.1983C598.168 53.1983 598.74 53.7711 598.74 54.4777V201.858C598.74 202.564 598.168 203.137 597.461 203.137C596.755 203.137 596.182 202.564 596.182 201.858V196.863L593.623 224.5C592.21 224.5 591.064 223.354 591.064 221.941Z" fill="url(#paint29_linear_29_23)"/>
<path d="M603.858 203.137V23.1344C603.858 21.7213 605.004 20.5757 606.417 20.5757H608.975H611.534H614.093H616.652H619.21C620.623 20.5757 621.769 21.7213 621.769 23.1344V203.137H619.21H616.652H614.093H611.534H608.975H606.417H603.858Z" fill="url(#paint30_linear_29_23)"/>
<path d="M629.445 200.578V98.3927C629.445 97.6861 630.03 97.1134 630.737 97.1134C631.43 97.1134 632.004 97.6751 632.004 98.3681H634.563H637.121H639.68V26.8739C639.68 26.1674 640.253 25.5946 640.959 25.5946C641.666 25.5946 642.239 26.1674 642.239 26.8739V98.3681H644.797V20.3217C644.797 18.9085 645.943 17.7628 647.356 17.7628C648.769 17.7628 649.915 18.9084 649.915 20.3215V218.144C649.915 219.557 648.769 220.703 647.356 220.703H644.797H642.239H639.68C638.973 220.703 638.401 220.13 638.401 219.423V204.416C638.401 203.71 637.828 203.137 637.121 203.137H634.563H632.004C630.591 203.137 629.445 201.991 629.445 200.578Z" fill="url(#paint31_linear_29_23)"/>
<path d="M652.474 218.144V100.927C652.474 99.5136 653.619 98.3681 655.032 98.3681H657.591H660.15C661.563 98.3681 662.708 99.5136 662.708 100.927V133.5H665.267H667.826H670.385C671.798 133.5 672.943 134.646 672.943 136.059V220.703H670.385H667.826H665.267H662.708H660.15H657.591H655.032C653.619 220.703 652.474 219.557 652.474 218.144Z" fill="url(#paint32_linear_29_23)"/>
<path d="M678.061 218.144V151.116C678.061 149.702 679.206 148.557 680.62 148.557C682.033 148.557 683.178 149.702 683.178 151.115V218.144C683.178 219.557 682.033 220.703 680.62 220.703C679.206 220.703 678.061 219.557 678.061 218.144Z" fill="url(#paint33_linear_29_23)"/>
<path d="M688.296 220.063V141.078C688.296 139.665 689.441 138.519 690.854 138.519H693.413C694.826 138.519 695.972 139.665 695.972 141.078V229.437C695.972 230.85 694.826 231.995 693.413 231.995H690.854C690.148 231.995 689.575 231.422 689.575 230.716V221.343C689.575 220.989 689.289 220.703 688.935 220.703C688.582 220.703 688.296 220.416 688.296 220.063Z" fill="url(#paint34_linear_29_23)"/>
<path d="M698.53 229.437V124.766C698.53 123.353 699.676 122.208 701.089 122.208H703.648C705.061 122.208 706.207 123.353 706.207 124.766V229.437C706.207 230.85 705.061 231.995 703.648 231.995H701.089C699.676 231.995 698.53 230.85 698.53 229.437Z" fill="url(#paint35_linear_29_23)"/>
<path d="M713.883 231.995H711.324V124.767C711.324 123.353 712.47 122.208 713.883 122.208C715.296 122.208 716.442 123.353 716.442 124.766V229.437C716.442 230.85 715.296 231.995 713.883 231.995Z" fill="url(#paint36_linear_29_23)"/>
<path d="M724.118 229.436V127.227V55.7573C724.118 54.344 725.263 53.1983 726.677 53.1983H729.235C730.648 53.1983 731.794 54.3439 731.794 55.757V229.437C731.794 230.85 730.648 231.995 729.235 231.995H726.677C725.263 231.995 724.118 230.85 724.118 229.436Z" fill="url(#paint37_linear_29_23)"/>
<path d="M736.911 229.437V55.757C736.911 54.3439 738.057 53.1983 739.47 53.1983H742.029H744.587H747.146C748.559 53.1983 749.705 54.344 749.705 55.7572V202.46C749.705 203.873 748.559 205.019 747.146 205.019H744.587C743.881 205.019 743.308 205.592 743.308 206.298V230.716C743.308 231.422 742.735 231.995 742.029 231.995H739.47C738.057 231.995 736.911 230.85 736.911 229.437Z" fill="url(#paint38_linear_29_23)"/>
<path d="M752.267 202.46L752.497 20.3215C752.498 18.9876 753.519 17.8928 754.822 17.7736V17.7623H757.381H759.94H762.498H765.057H767.616H770.175C771.588 17.7623 772.733 18.9078 772.733 20.3209V46.9248V53.1983H775.292H777.851H780.41H782.968H785.527H788.086H790.645H793.203H795.762C797.175 53.1983 798.32 54.3439 798.32 55.757V196.863H800.879H803.438V85.8702C803.438 84.457 804.584 83.3115 805.997 83.3115H808.555H811.114H813.673C815.086 83.3115 816.232 84.457 816.232 85.8702V194.305C816.232 195.718 815.086 196.863 813.673 196.863H811.114H808.555H805.997H803.438H800.879H798.32H795.762H793.203H790.645H788.086V231.71C788.086 233.123 786.94 234.269 785.527 234.269H782.968H780.41H777.851H775.292H772.733H770.175H767.616H765.057C763.644 234.269 762.498 233.123 762.498 231.71V205.019H759.94H757.381H754.822C753.41 205.019 752.265 203.873 752.267 202.46Z" fill="url(#paint39_linear_29_23)"/>
<path d="M818.79 195.584V173.7C818.79 172.287 819.936 171.142 821.349 171.142V85.8702C821.349 84.4571 822.495 83.3115 823.908 83.3115C825.321 83.3115 826.466 84.4572 826.466 85.8704V235.199H823.908H821.349V198.143C821.349 197.436 820.776 196.863 820.07 196.863C819.363 196.863 818.79 196.291 818.79 195.584Z" fill="url(#paint40_linear_29_23)"/>
<path d="M834.143 84.591V232.64C834.143 234.053 835.288 235.199 836.701 235.199V84.591C836.701 83.8843 836.129 83.3115 835.422 83.3115C834.715 83.3115 834.143 83.8843 834.143 84.591Z" fill="url(#paint41_linear_29_23)"/>
<path d="M844.377 58.2418V234.559C844.377 234.912 844.664 235.199 845.017 235.199C845.37 235.199 845.657 234.912 845.657 234.559V158.619C845.657 157.912 846.23 157.34 846.936 157.34V58.2418C846.936 57.5353 846.363 56.9625 845.657 56.9625C844.95 56.9625 844.377 57.5353 844.377 58.2418Z" fill="url(#paint42_linear_29_23)"/>
<path d="M859.73 49.4342V156.06C859.73 156.767 860.303 157.34 861.009 157.34C861.716 157.34 862.289 156.767 862.289 156.06V51.9928C862.289 50.5797 861.143 49.4342 859.73 49.4342Z" fill="url(#paint43_linear_29_23)"/>
<path d="M864.847 154.781V38.191C864.847 36.7779 865.993 35.6323 867.406 35.6323H869.965C871.378 35.6323 872.523 36.778 872.523 38.1912V154.781C872.523 156.194 871.378 157.34 869.965 157.34H867.406C865.993 157.34 864.847 156.194 864.847 154.781Z" fill="url(#paint44_linear_29_23)"/>
<path d="M875.082 154.781V29.408C875.082 27.9948 876.228 26.8493 877.641 26.8493H880.199H882.758C884.171 26.8493 885.317 27.9948 885.317 29.408V157.34H887.876H890.434V29.4082C890.434 27.995 891.58 26.8493 892.993 26.8493H895.552C896.965 26.8493 898.111 27.9948 898.111 29.408V49.4342H900.669H903.228H905.787C907.2 49.4342 908.345 50.5797 908.345 51.9928V56.9625H910.904H913.463H916.022C917.435 56.9625 918.58 58.108 918.58 59.5211V85.8209C919.993 85.8209 921.139 86.9665 921.139 88.3796V231.71C921.139 233.123 919.993 234.269 918.58 234.269C917.167 234.269 916.022 233.123 916.022 231.71V174.278H913.463H910.904H908.345H905.787H903.228H900.669H898.111C897.404 174.278 896.831 173.706 896.831 172.999V158.619C896.831 157.912 896.258 157.34 895.552 157.34H892.993H890.434H887.876H885.317H882.758H880.199H877.641C876.228 157.34 875.082 156.194 875.082 154.781Z" fill="url(#paint45_linear_29_23)"/>
<path d="M923.698 231.71V88.3796C923.698 86.9665 924.843 85.8209 926.256 85.8209H928.815H931.374H933.933C935.346 85.8209 936.491 86.9665 936.491 88.3796V231.71C936.491 233.123 935.346 234.269 933.933 234.269H931.374H928.815H926.256C924.843 234.269 923.698 233.123 923.698 231.71Z" fill="url(#paint46_linear_29_23)"/>
<path d="M941.609 113.449V234.269C940.196 234.269 939.05 233.123 939.05 231.71V113.449C939.05 112.743 939.623 112.17 940.329 112.17C941.036 112.17 941.609 112.743 941.609 113.449Z" fill="url(#paint47_linear_29_23)"/>
<path d="M946.726 231.71V57.3409C946.726 55.9278 947.872 54.7823 949.285 54.7823H951.844V19.0871C951.844 17.674 952.989 16.5285 954.402 16.5285H956.961H959.52H962.079H964.637H967.196C968.609 16.5285 969.755 17.674 969.755 19.0871V27.8209H972.313C973.727 27.8209 974.872 28.9665 974.872 30.3796V169.21C974.872 170.623 973.727 171.769 972.313 171.769H969.755C969.048 171.769 968.475 172.342 968.475 173.048V232.99C968.475 233.696 967.903 234.269 967.196 234.269H964.637H962.079H959.52H956.961H954.402H951.844H949.285C947.872 234.269 946.726 233.123 946.726 231.71Z" fill="url(#paint48_linear_29_23)"/>
<path d="M977.431 169.21V30.3796C977.431 28.9665 978.577 27.8209 979.99 27.8209H982.548H985.107H987.666C989.079 27.8209 990.225 28.9665 990.225 30.3796V169.21C990.225 170.623 989.079 171.769 987.666 171.769H985.107H982.548H979.99C978.577 171.769 977.431 170.623 977.431 169.21Z" fill="url(#paint49_linear_29_23)"/>
<path d="M997.901 169.21V64.2077H1000.46H1003.02H1005.58C1006.99 64.2077 1008.14 65.3532 1008.14 66.7663V147.302V171.142V198.069C1008.14 199.482 1006.99 200.627 1005.58 200.627C1004.87 200.627 1004.3 200.055 1004.3 199.348V173.048C1004.3 172.342 1003.72 171.769 1003.02 171.769H1000.46C999.046 171.769 997.901 170.623 997.901 169.21Z" fill="url(#paint50_linear_29_23)"/>
<path d="M1010.69 198.069V66.7664C1010.69 65.3533 1011.84 64.2077 1013.25 64.2077C1014.67 64.2077 1015.81 65.3532 1015.81 66.7663V198.069C1015.81 199.482 1014.67 200.627 1013.25 200.627C1011.84 200.627 1010.69 199.482 1010.69 198.069Z" fill="url(#paint51_linear_29_23)"/>
<path d="M1020.93 198.069V66.7666C1020.93 65.3533 1022.07 64.2077 1023.49 64.2077C1024.9 64.2077 1026.05 65.3533 1026.05 66.7664V232.61C1026.05 232.964 1025.76 233.25 1025.41 233.25C1025.05 233.25 1024.77 232.964 1024.77 232.61V201.907C1024.77 201.2 1024.19 200.627 1023.49 200.627C1022.07 200.627 1020.93 199.482 1020.93 198.069Z" fill="url(#paint52_linear_29_23)"/>
<path d="M1031.16 230.691V66.7663C1031.16 65.3532 1032.31 64.2077 1033.72 64.2077C1035.14 64.2077 1036.28 65.3534 1036.28 66.7666V230.691C1036.28 232.104 1035.14 233.25 1033.72 233.25C1032.31 233.25 1031.16 232.105 1031.16 230.691Z" fill="url(#paint53_linear_29_23)"/>
<path d="M1038.84 231.971V66.2338C1038.84 64.8206 1039.99 63.675 1041.4 63.675C1042.81 63.675 1043.96 64.8206 1043.96 66.2338V229.412C1043.96 231.532 1042.24 233.25 1040.12 233.25C1039.41 233.25 1038.84 232.677 1038.84 231.971Z" fill="url(#paint54_linear_29_23)"/>
<path d="M1046.52 230.691V28.5587C1046.52 27.1456 1047.66 26 1049.08 26H1051.63H1054.19H1055.47H1059.31H1061.87C1063.28 26 1064.43 27.1456 1064.43 28.5587V213.802C1063.72 213.802 1063.15 214.375 1063.15 215.081V231.971C1063.15 232.677 1062.58 233.25 1061.87 233.25H1059.31H1056.75H1054.19H1051.63H1049.08C1047.66 233.25 1046.52 232.104 1046.52 230.691Z" fill="url(#paint55_linear_29_23)"/>
<path d="M1069.54 211.243V169.936C1069.54 168.523 1070.69 167.377 1072.1 167.377H1074.66H1077.22H1079.78V71.8134C1079.78 70.4003 1080.93 69.2547 1082.34 69.2547C1082.34 68.5618 1082.9 68 1083.59 68H1084.9H1087.46H1090.01H1092.57H1095.13C1096.55 68 1097.69 69.1455 1097.69 70.5586V194.305C1097.69 195.718 1096.55 196.863 1095.13 196.863H1092.57H1090.01C1089.31 196.863 1088.74 197.436 1088.74 198.143V212.523C1088.74 213.229 1088.16 213.802 1087.46 213.802H1084.9H1082.34H1079.78H1077.22H1074.66H1072.1C1070.69 213.802 1069.54 212.656 1069.54 211.243Z" fill="url(#paint56_linear_29_23)"/>
<path d="M1100.25 194.304V91.389C1100.25 89.9758 1101.39 88.8302 1102.81 88.8302C1104.22 88.8302 1105.37 89.9757 1105.37 91.3889V194.305C1105.37 195.718 1104.22 196.863 1102.81 196.863C1101.39 196.863 1100.25 195.718 1100.25 194.304Z" fill="url(#paint57_linear_29_23)"/>
<path d="M1107.93 194.305V83.8605C1107.93 82.4474 1109.07 81.3019 1110.48 81.3019C1111.9 81.3019 1113.04 82.4475 1113.04 83.8606V194.305C1113.04 195.718 1111.9 196.863 1110.48 196.863C1109.07 196.863 1107.93 195.718 1107.93 194.305Z" fill="url(#paint58_linear_29_23)"/>
<path d="M1115.6 194.305V83.8606C1115.6 82.4474 1116.75 81.3019 1118.16 81.3019H1120.72C1122.13 81.3019 1123.28 82.4474 1123.28 83.8606V248.307H1125.84V77.5377V70.0586C1125.84 68.6455 1126.98 67.5 1128.4 67.5C1129.81 67.5 1130.95 68.6456 1130.95 70.0587V77.5377V245.748C1130.95 247.161 1129.81 248.307 1128.4 248.307H1125.84H1123.28C1122.57 248.307 1122 247.734 1122 247.027V198.143C1122 197.436 1121.43 196.863 1120.72 196.863H1118.16C1116.75 196.863 1115.6 195.718 1115.6 194.305Z" fill="url(#paint59_linear_29_23)"/>
<path d="M1136.07 245.748V70.0588C1136.07 68.6456 1137.22 67.5 1138.63 67.5C1140.04 67.5 1141.19 68.6456 1141.19 70.0587V245.748C1141.19 247.161 1140.04 248.307 1138.63 248.307C1137.22 248.307 1136.07 247.161 1136.07 245.748Z" fill="url(#paint60_linear_29_23)"/>
<path d="M1148.87 248.307H1146.31V98.4176C1146.31 97.0043 1147.45 95.8587 1148.87 95.8587C1150.28 95.8587 1151.42 97.0042 1151.42 98.4173V248.307H1153.98H1156.54V98.4174C1156.54 97.0042 1157.69 95.8587 1159.1 95.8587H1161.66C1163.07 95.8587 1164.22 97.0042 1164.22 98.4174V232.573C1164.22 233.987 1163.07 235.132 1161.66 235.132C1160.95 235.132 1160.38 235.705 1160.38 236.412V247.027C1160.38 247.734 1159.81 248.307 1159.1 248.307H1156.54H1153.98H1151.42H1148.87Z" fill="url(#paint61_linear_29_23)"/>
<path d="M1169.33 232.573V108.455C1169.33 107.042 1170.48 105.896 1171.89 105.896H1174.45H1177.01H1179.57H1182.13H1184.69C1186.1 105.896 1187.25 107.042 1187.25 108.455V232.573C1187.25 233.987 1186.1 235.132 1184.69 235.132H1182.13H1179.57H1177.01H1174.45H1171.89C1170.48 235.132 1169.33 233.986 1169.33 232.573Z" fill="url(#paint62_linear_29_23)"/>
<path d="M1189.83 232.574L1190.78 121.54C1190.79 120.123 1191.95 118.981 1193.36 118.981H1195.92H1198.48H1201.04H1203.6V90.1721C1203.6 88.7589 1204.74 87.6132 1206.16 87.6132H1208.71H1210.02C1210.71 87.6132 1211.27 88.1749 1211.27 88.8679H1213.83H1216.39V73.8608C1216.39 72.4476 1217.54 71.3019 1218.95 71.3019H1221.51C1222.92 71.3019 1224.06 72.4502 1224.05 73.8605L1223.08 220.654C1223.08 222.069 1221.92 223.212 1220.51 223.212H1217.95H1215.39H1212.83H1210.27C1209.57 223.212 1208.99 222.639 1208.99 221.933V194.378C1208.99 193.672 1208.42 193.099 1207.72 193.099H1205.16H1202.6H1200.04H1197.48V232.574C1197.48 233.987 1196.34 235.132 1194.92 235.132H1192.36C1190.95 235.132 1189.81 233.983 1189.83 232.574Z" fill="url(#paint63_linear_29_23)"/>
<path d="M1225.64 220.653L1226.61 73.8608C1226.62 72.4448 1227.77 71.3019 1229.18 71.3019C1230.59 71.3019 1231.74 72.4502 1231.73 73.8605L1230.76 220.654C1230.75 222.069 1229.6 223.212 1228.19 223.212C1226.77 223.212 1225.63 222.064 1225.64 220.653Z" fill="url(#paint64_linear_29_23)"/>
<path d="M1233.32 220.654L1234.28 88.9171C1234.29 87.501 1235.44 86.3585 1236.86 86.3585H1239.42H1241.98C1243.39 86.3585 1244.53 87.507 1244.52 88.917L1243.56 220.654C1243.55 222.07 1242.4 223.212 1240.98 223.212H1238.42H1235.86C1234.45 223.212 1233.31 222.064 1233.32 220.654Z" fill="url(#paint65_linear_29_23)"/>
<path d="M1248.67 220.654L1249.64 60.0588C1249.65 58.6431 1250.8 57.5 1252.21 57.5H1254.77C1256.18 57.5 1257.32 58.6478 1257.32 60.0586L1256.34 236.993C1256.33 237.699 1255.76 238.269 1255.06 238.269C1254.35 238.269 1253.77 237.695 1253.77 236.986V223.212H1251.21C1249.8 223.212 1248.66 222.064 1248.67 220.654Z" fill="url(#paint66_linear_29_23)"/>
<path d="M1258.9 235.71L1259.87 60.0586C1259.88 58.6432 1261.03 57.5 1262.45 57.5H1265.01H1267.57H1270.12H1272.68H1275.24H1277.8C1279.21 57.5 1280.35 58.6478 1280.34 60.0586L1279.37 235.71C1279.37 237.126 1278.22 238.269 1276.8 238.269H1274.24H1271.68H1269.12H1266.57H1264.01H1261.45C1260.04 238.269 1258.9 237.121 1258.9 235.71Z" fill="url(#paint67_linear_29_23)"/>
<path d="M1284.49 235.71L1285.46 80.1341C1285.47 78.7184 1286.62 77.5754 1288.04 77.5754H1290.59C1292 77.5754 1293.15 78.7235 1293.14 80.134L1292.17 235.71C1292.16 237.126 1291.01 238.269 1289.59 238.269H1287.04C1285.63 238.269 1284.48 237.121 1284.49 235.71Z" fill="url(#paint68_linear_29_23)"/>
<path d="M1294.73 235.71L1295.7 80.1342C1295.7 78.7185 1296.85 77.5754 1298.27 77.5754H1300.83C1302.24 77.5754 1303.38 78.7235 1303.37 80.134L1302.4 235.71C1302.4 237.126 1301.24 238.269 1299.83 238.269H1297.27C1295.86 238.269 1294.72 237.121 1294.73 235.71Z" fill="url(#paint69_linear_29_23)"/>
<path d="M1307.52 235.71L1308.49 106.483C1308.5 105.067 1309.65 103.924 1311.06 103.924H1313.62C1315.03 103.924 1316.17 105.073 1316.16 106.483L1315.2 235.71C1315.19 237.126 1314.04 238.269 1312.62 238.269H1310.06C1308.65 238.269 1307.51 237.12 1307.52 235.71Z" fill="url(#paint70_linear_29_23)"/>
<path d="M1317.76 235.71L1318.72 106.483C1318.73 105.067 1319.88 103.924 1321.3 103.924C1322.71 103.924 1323.85 105.073 1323.84 106.483L1322.86 248.307C1322.15 248.307 1321.58 247.734 1321.58 247.027V239.548C1321.58 238.842 1321.01 238.269 1320.3 238.269C1318.89 238.269 1317.75 237.12 1317.76 235.71Z" fill="url(#paint71_linear_29_23)"/>
<path d="M1335.65 245.748V99.672C1335.65 98.2589 1336.8 97.1134 1338.21 97.1134H1340.77H1344.44H1348.44H1351C1352.42 97.1134 1353.56 98.259 1353.56 99.6723V265.86C1353.56 266.214 1353.28 266.5 1352.92 266.5C1352.57 266.5 1352.28 266.214 1352.28 265.86V245.822C1352.28 245.115 1351.71 244.542 1351 244.542H1348.44H1344.48C1344.46 244.542 1344.44 244.522 1344.44 244.496H1340.77C1340.77 244.522 1340.75 244.542 1340.72 244.542H1340.13C1339.78 244.542 1339.49 244.829 1339.49 245.182V247.027C1339.49 247.734 1338.92 248.307 1338.21 248.307C1336.8 248.307 1335.65 247.161 1335.65 245.748Z" fill="url(#paint72_linear_29_23)"/>
<path d="M1356.12 263.941V69.5589C1356.12 68.1458 1357.27 67.0002 1358.68 67.0002H1361.24H1363.8C1365.21 67.0002 1366.36 68.1458 1366.36 69.559V77.0379H1368.91H1371.47H1374.03C1375.45 77.0379 1376.59 78.1836 1376.59 79.5969V263.941C1376.59 265.354 1375.45 266.5 1374.03 266.5H1371.47H1368.91H1366.36H1363.8H1361.24H1358.68C1357.27 266.5 1356.12 265.354 1356.12 263.941Z" fill="url(#paint73_linear_29_23)"/>
<path d="M1379.15 263.941V88.3797C1379.15 86.9665 1380.3 85.8209 1381.71 85.8209H1384.27C1385.68 85.8209 1386.83 86.9665 1386.83 88.3797V263.941C1386.83 265.354 1385.68 266.5 1384.27 266.5H1381.71C1380.3 266.5 1379.15 265.354 1379.15 263.941Z" fill="url(#paint74_linear_29_23)"/>
<path d="M1391.94 245.748V110.965C1391.94 109.551 1393.09 108.406 1394.5 108.406H1397.06H1399.62H1402.18C1403.59 108.406 1404.74 109.551 1404.74 110.965V235.71C1404.74 237.123 1403.59 238.269 1402.18 238.269C1401.47 238.269 1400.9 238.842 1400.9 239.548V247.027C1400.9 247.734 1400.33 248.307 1399.62 248.307H1397.06H1394.5C1393.09 248.307 1391.94 247.161 1391.94 245.748Z" fill="url(#paint75_linear_29_23)"/>
<path d="M1407.3 235.71V186.198V110.965C1407.3 109.551 1408.44 108.406 1409.85 108.406V83.3608C1409.85 81.9476 1411 80.8021 1412.41 80.8021H1414.97H1417.53H1420.09H1422.65V59.5211C1422.65 58.108 1423.79 56.9625 1425.21 56.9625C1426.62 56.9625 1427.77 58.1081 1427.77 59.5212V108.406V238.269H1425.21H1423.93H1422.65H1420.09H1417.53H1414.97H1412.41H1409.85C1408.44 238.269 1407.3 237.123 1407.3 235.71Z" fill="url(#paint76_linear_29_23)"/>
<path d="M1432.88 235.71V59.5212C1432.88 58.1081 1434.03 56.9625 1435.44 56.9625C1436.85 56.9625 1438 58.108 1438 59.5211V235.71C1438 237.123 1436.85 238.269 1435.44 238.269C1434.03 238.269 1432.88 237.123 1432.88 235.71Z" fill="url(#paint77_linear_29_23)"/>
<path d="M-0.5 159.817V123C-0.5 121.067 1.067 119.5 3 119.5H12.5C14.433 119.5 16 121.067 16 123V156.317C16 158.25 17.567 159.817 19.5 159.817H49.5C51.433 159.817 53 161.384 53 163.317V198.757C53 200.69 54.567 202.257 56.5 202.257H82C83.933 202.257 85.5 200.69 85.5 198.757V156.243C85.5 154.31 87.067 152.743 89 152.743H119C120.933 152.743 122.5 154.31 122.5 156.243V208.861C122.5 210.794 124.067 212.361 126 212.361H132.96C134.893 212.361 136.46 210.794 136.46 208.861V193.631C136.46 191.698 138.027 190.131 139.96 190.131H156C157.933 190.131 159.5 188.564 159.5 186.631V156.243C159.5 154.31 161.067 152.743 163 152.743H190.56C192.493 152.743 194.06 151.176 194.06 149.243V137.044C194.06 135.111 195.627 133.545 197.56 133.545H218.72C220.653 133.545 222.22 131.977 222.22 130.045V85C222.22 83.067 223.787 81.5 225.72 81.5H252.5C254.433 81.5 256 83.067 256 85V172.953V198.757C256 200.69 257.567 202.257 259.5 202.257H262.5C264.433 202.257 266 200.69 266 198.757V84.9157C266 83.0159 267.515 81.463 269.415 81.4167L282.915 81.0874C284.88 81.0395 286.5 82.62 286.5 84.5864V198.757C286.5 200.69 288.067 202.257 290 202.257H318V157.5C318 155.567 319.567 154 321.5 154H333.5C335.433 154 337 155.567 337 157.5V202.257H369.76C371.693 202.257 373.26 200.69 373.26 198.757V84.5C373.26 82.567 374.827 81 376.76 81H408.5C410.433 81 412 82.567 412 84.5V198.757C412 200.69 413.567 202.257 415.5 202.257H444.5C446.433 202.257 448 203.824 448 205.757V218.966C448 220.899 449.567 222.466 451.5 222.466H515.68C517.613 222.466 519.18 220.899 519.18 218.966V168.369C519.18 166.436 520.747 164.869 522.68 164.869H552.8C554.733 164.869 556.3 166.436 556.3 168.369V218.966C556.3 220.899 557.867 222.466 559.8 222.466H591C592.933 222.466 594.5 220.899 594.5 218.966V168.369C594.5 166.436 596.067 164.869 598 164.869H634.5C636.433 164.869 638 166.436 638 168.369V189.685C638 191.609 639.553 193.172 641.477 193.185L686.023 193.477C687.947 193.49 689.5 195.053 689.5 196.977V207.851C689.5 209.784 691.067 211.351 693 211.351H739.68C741.613 211.351 743.18 209.784 743.18 207.851V171.401C743.18 169.468 744.747 167.901 746.68 167.901H759C760.933 167.901 762.5 169.468 762.5 171.401V212C762.5 213.933 764.067 215.5 766 215.5H784.48C786.413 215.5 787.98 213.933 787.98 212V158.264C787.98 156.331 789.547 154.764 791.48 154.764H817.76C819.693 154.764 821.26 156.331 821.26 158.264V213.5C821.26 215.433 822.827 217 824.76 217H842.08C844.013 217 845.58 215.433 845.58 213.5V94.6047C845.58 92.6717 847.147 91.1047 849.08 91.1047H893C894.933 91.1047 896.5 92.6717 896.5 94.6047V114.887C896.5 116.82 898.067 118.387 900 118.387H912C913.933 118.387 915.5 119.954 915.5 121.887V211.5C915.5 213.433 917.067 215 919 215H964.96C966.893 215 968.46 213.433 968.46 211.5V117.846C968.46 115.913 970.027 114.346 971.96 114.346H1000.5C1002.43 114.346 1004 115.913 1004 117.846V157.327C1004 159.26 1005.57 160.827 1007.5 160.827H1021C1022.93 160.827 1024.5 162.394 1024.5 164.327V209.872C1024.5 211.805 1026.07 213.372 1028 213.372H1059.68C1061.61 213.372 1063.18 211.805 1063.18 209.872V158.264C1063.18 156.331 1064.75 154.764 1066.68 154.764H1088.78H1118C1119.93 154.764 1121.5 156.331 1121.5 158.264V234.123C1121.5 236.056 1123.07 237.623 1125 237.623H1156.96C1158.89 237.623 1160.46 236.056 1160.46 234.123V219.903C1160.46 217.97 1162.03 216.403 1163.96 216.403H1194.08C1196.01 216.403 1197.58 214.836 1197.58 212.903V191C1197.58 189.067 1199.15 187.5 1201.08 187.5H1208H1249.5C1251.43 187.5 1253 189.067 1253 191V217.956C1253 219.889 1254.57 221.456 1256.5 221.456H1317C1318.93 221.456 1320.5 223.023 1320.5 224.956V234.123C1320.5 236.056 1322.07 237.623 1324 237.623H1336.16C1338.09 237.623 1339.66 236.056 1339.66 234.123V152.202C1339.66 150.269 1341.23 148.702 1343.16 148.702H1348C1349.93 148.702 1351.5 150.269 1351.5 152.202V263.427C1351.5 265.36 1353.07 266.927 1355 266.927H1388.64C1390.57 266.927 1392.14 265.36 1392.14 263.427V224.956C1392.14 223.023 1393.71 221.456 1395.64 221.456H1428.5V172.5C1428.5 170.567 1430.07 169 1432 169H1436C1437.93 169 1439.5 170.567 1439.5 172.5V221.456V463.5C1439.5 465.433 1437.93 467 1436 467H3C1.06701 467 -0.5 465.433 -0.5 463.5V159.817Z" fill="url(#paint78_linear_29_23)"/>
<defs>
<linearGradient id="paint0_linear_29_23" x1="725.504" y1="361.024" x2="723.009" y2="-216.674" gradientUnits="userSpaceOnUse">
<stop stop-color="#202C32"/>
<stop offset="0.665" stop-color="#D7C796"/>
</linearGradient>
<linearGradient id="paint1_linear_29_23" x1="725.504" y1="361.024" x2="723.009" y2="-216.674" gradientUnits="userSpaceOnUse">
<stop stop-color="#202C32"/>
<stop offset="0.665" stop-color="#D7C796"/>
</linearGradient>
<linearGradient id="paint2_linear_29_23" x1="725.504" y1="361.024" x2="723.009" y2="-216.674" gradientUnits="userSpaceOnUse">
<stop stop-color="#202C32"/>
<stop offset="0.665" stop-color="#D7C796"/>
</linearGradient>
<linearGradient id="paint3_linear_29_23" x1="725.504" y1="361.024" x2="723.009" y2="-216.674" gradientUnits="userSpaceOnUse">
<stop stop-color="#202C32"/>
<stop offset="0.665" stop-color="#D7C796"/>
</linearGradient>
<linearGradient id="paint4_linear_29_23" x1="725.504" y1="361.024" x2="723.009" y2="-216.674" gradientUnits="userSpaceOnUse">
<stop stop-color="#202C32"/>
<stop offset="0.665" stop-color="#D7C796"/>
</linearGradient>
<linearGradient id="paint5_linear_29_23" x1="725.504" y1="361.024" x2="723.009" y2="-216.674" gradientUnits="userSpaceOnUse">
<stop stop-color="#202C32"/>
<stop offset="0.665" stop-color="#D7C796"/>
</linearGradient>
<linearGradient id="paint6_linear_29_23" x1="725.504" y1="361.024" x2="723.009" y2="-216.674" gradientUnits="userSpaceOnUse">
<stop stop-color="#202C32"/>
<stop offset="0.665" stop-color="#D7C796"/>
</linearGradient>
<linearGradient id="paint7_linear_29_23" x1="725.504" y1="361.024" x2="723.009" y2="-216.674" gradientUnits="userSpaceOnUse">
<stop stop-color="#202C32"/>
<stop offset="0.665" stop-color="#D7C796"/>
</linearGradient>
<linearGradient id="paint8_linear_29_23" x1="725.504" y1="361.024" x2="723.009" y2="-216.674" gradientUnits="userSpaceOnUse">
<stop stop-color="#202C32"/>
<stop offset="0.665" stop-color="#D7C796"/>
</linearGradient>
<linearGradient id="paint9_linear_29_23" x1="725.504" y1="361.024" x2="723.009" y2="-216.674" gradientUnits="userSpaceOnUse">
<stop stop-color="#202C32"/>
<stop offset="0.665" stop-color="#D7C796"/>
</linearGradient>
<linearGradient id="paint10_linear_29_23" x1="725.504" y1="361.024" x2="723.009" y2="-216.674" gradientUnits="userSpaceOnUse">
<stop stop-color="#202C32"/>
<stop offset="0.665" stop-color="#D7C796"/>
</linearGradient>
<linearGradient id="paint11_linear_29_23" x1="725.504" y1="361.024" x2="723.009" y2="-216.674" gradientUnits="userSpaceOnUse">
<stop stop-color="#202C32"/>
<stop offset="0.665" stop-color="#D7C796"/>
</linearGradient>
<linearGradient id="paint12_linear_29_23" x1="725.504" y1="361.024" x2="723.009" y2="-216.674" gradientUnits="userSpaceOnUse">
<stop stop-color="#202C32"/>
<stop offset="0.665" stop-color="#D7C796"/>
</linearGradient>
<linearGradient id="paint13_linear_29_23" x1="725.504" y1="361.024" x2="723.009" y2="-216.674" gradientUnits="userSpaceOnUse">
<stop stop-color="#202C32"/>
<stop offset="0.665" stop-color="#D7C796"/>
</linearGradient>
<linearGradient id="paint14_linear_29_23" x1="725.504" y1="361.024" x2="723.009" y2="-216.674" gradientUnits="userSpaceOnUse">
<stop stop-color="#202C32"/>
<stop offset="0.665" stop-color="#D7C796"/>
</linearGradient>
<linearGradient id="paint15_linear_29_23" x1="725.504" y1="361.024" x2="723.009" y2="-216.674" gradientUnits="userSpaceOnUse">
<stop stop-color="#202C32"/>
<stop offset="0.665" stop-color="#D7C796"/>
</linearGradient>
<linearGradient id="paint16_linear_29_23" x1="725.504" y1="361.024" x2="723.009" y2="-216.674" gradientUnits="userSpaceOnUse">
<stop stop-color="#202C32"/>
<stop offset="0.665" stop-color="#D7C796"/>
</linearGradient>
<linearGradient id="paint17_linear_29_23" x1="725.504" y1="361.024" x2="723.009" y2="-216.674" gradientUnits="userSpaceOnUse">
<stop stop-color="#202C32"/>
<stop offset="0.665" stop-color="#D7C796"/>
</linearGradient>
<linearGradient id="paint18_linear_29_23" x1="725.504" y1="361.024" x2="723.009" y2="-216.674" gradientUnits="userSpaceOnUse">
<stop stop-color="#202C32"/>
<stop offset="0.665" stop-color="#D7C796"/>
</linearGradient>
<linearGradient id="paint19_linear_29_23" x1="725.504" y1="361.024" x2="723.009" y2="-216.674" gradientUnits="userSpaceOnUse">
<stop stop-color="#202C32"/>
<stop offset="0.665" stop-color="#D7C796"/>
</linearGradient>
<linearGradient id="paint20_linear_29_23" x1="725.504" y1="361.024" x2="723.009" y2="-216.674" gradientUnits="userSpaceOnUse">
<stop stop-color="#202C32"/>
<stop offset="0.665" stop-color="#D7C796"/>
</linearGradient>
<linearGradient id="paint21_linear_29_23" x1="725.504" y1="361.024" x2="723.009" y2="-216.674" gradientUnits="userSpaceOnUse">
<stop stop-color="#202C32"/>
<stop offset="0.665" stop-color="#D7C796"/>
</linearGradient>
<linearGradient id="paint22_linear_29_23" x1="725.504" y1="361.024" x2="723.009" y2="-216.674" gradientUnits="userSpaceOnUse">
<stop stop-color="#202C32"/>
<stop offset="0.665" stop-color="#D7C796"/>
</linearGradient>
<linearGradient id="paint23_linear_29_23" x1="725.504" y1="361.024" x2="723.009" y2="-216.674" gradientUnits="userSpaceOnUse">
<stop stop-color="#202C32"/>
<stop offset="0.665" stop-color="#D7C796"/>
</linearGradient>
<linearGradient id="paint24_linear_29_23" x1="725.504" y1="361.024" x2="723.009" y2="-216.674" gradientUnits="userSpaceOnUse">
<stop stop-color="#202C32"/>
<stop offset="0.665" stop-color="#D7C796"/>
</linearGradient>
<linearGradient id="paint25_linear_29_23" x1="725.504" y1="361.024" x2="723.009" y2="-216.674" gradientUnits="userSpaceOnUse">
<stop stop-color="#202C32"/>
<stop offset="0.665" stop-color="#D7C796"/>
</linearGradient>
<linearGradient id="paint26_linear_29_23" x1="725.504" y1="361.024" x2="723.009" y2="-216.674" gradientUnits="userSpaceOnUse">
<stop stop-color="#202C32"/>
<stop offset="0.665" stop-color="#D7C796"/>
</linearGradient>
<linearGradient id="paint27_linear_29_23" x1="725.504" y1="361.024" x2="723.009" y2="-216.674" gradientUnits="userSpaceOnUse">
<stop stop-color="#202C32"/>
<stop offset="0.665" stop-color="#D7C796"/>
</linearGradient>
<linearGradient id="paint28_linear_29_23" x1="725.504" y1="361.024" x2="723.009" y2="-216.674" gradientUnits="userSpaceOnUse">
<stop stop-color="#202C32"/>
<stop offset="0.665" stop-color="#D7C796"/>
</linearGradient>
<linearGradient id="paint29_linear_29_23" x1="725.504" y1="361.024" x2="723.009" y2="-216.674" gradientUnits="userSpaceOnUse">
<stop stop-color="#202C32"/>
<stop offset="0.665" stop-color="#D7C796"/>
</linearGradient>
<linearGradient id="paint30_linear_29_23" x1="725.504" y1="361.024" x2="723.009" y2="-216.674" gradientUnits="userSpaceOnUse">
<stop stop-color="#202C32"/>
<stop offset="0.665" stop-color="#D7C796"/>
</linearGradient>
<linearGradient id="paint31_linear_29_23" x1="725.504" y1="361.024" x2="723.009" y2="-216.674" gradientUnits="userSpaceOnUse">
<stop stop-color="#202C32"/>
<stop offset="0.665" stop-color="#D7C796"/>
</linearGradient>
<linearGradient id="paint32_linear_29_23" x1="725.504" y1="361.024" x2="723.009" y2="-216.674" gradientUnits="userSpaceOnUse">
<stop stop-color="#202C32"/>
<stop offset="0.665" stop-color="#D7C796"/>
</linearGradient>
<linearGradient id="paint33_linear_29_23" x1="725.504" y1="361.024" x2="723.009" y2="-216.674" gradientUnits="userSpaceOnUse">
<stop stop-color="#202C32"/>
<stop offset="0.665" stop-color="#D7C796"/>
</linearGradient>
<linearGradient id="paint34_linear_29_23" x1="725.504" y1="361.024" x2="723.009" y2="-216.674" gradientUnits="userSpaceOnUse">
<stop stop-color="#202C32"/>
<stop offset="0.665" stop-color="#D7C796"/>
</linearGradient>
<linearGradient id="paint35_linear_29_23" x1="725.504" y1="361.024" x2="723.009" y2="-216.674" gradientUnits="userSpaceOnUse">
<stop stop-color="#202C32"/>
<stop offset="0.665" stop-color="#D7C796"/>
</linearGradient>
<linearGradient id="paint36_linear_29_23" x1="725.504" y1="361.024" x2="723.009" y2="-216.674" gradientUnits="userSpaceOnUse">
<stop stop-color="#202C32"/>
<stop offset="0.665" stop-color="#D7C796"/>
</linearGradient>
<linearGradient id="paint37_linear_29_23" x1="725.504" y1="361.024" x2="723.009" y2="-216.674" gradientUnits="userSpaceOnUse">
<stop stop-color="#202C32"/>
<stop offset="0.665" stop-color="#D7C796"/>
</linearGradient>
<linearGradient id="paint38_linear_29_23" x1="725.504" y1="361.024" x2="723.009" y2="-216.674" gradientUnits="userSpaceOnUse">
<stop stop-color="#202C32"/>
<stop offset="0.665" stop-color="#D7C796"/>
</linearGradient>
<linearGradient id="paint39_linear_29_23" x1="725.504" y1="361.024" x2="723.009" y2="-216.674" gradientUnits="userSpaceOnUse">
<stop stop-color="#202C32"/>
<stop offset="0.665" stop-color="#D7C796"/>
</linearGradient>
<linearGradient id="paint40_linear_29_23" x1="725.504" y1="361.024" x2="723.009" y2="-216.674" gradientUnits="userSpaceOnUse">
<stop stop-color="#202C32"/>
<stop offset="0.665" stop-color="#D7C796"/>
</linearGradient>
<linearGradient id="paint41_linear_29_23" x1="725.504" y1="361.024" x2="723.009" y2="-216.674" gradientUnits="userSpaceOnUse">
<stop stop-color="#202C32"/>
<stop offset="0.665" stop-color="#D7C796"/>
</linearGradient>
<linearGradient id="paint42_linear_29_23" x1="725.504" y1="361.024" x2="723.009" y2="-216.674" gradientUnits="userSpaceOnUse">
<stop stop-color="#202C32"/>
<stop offset="0.665" stop-color="#D7C796"/>
</linearGradient>
<linearGradient id="paint43_linear_29_23" x1="725.504" y1="361.024" x2="723.009" y2="-216.674" gradientUnits="userSpaceOnUse">
<stop stop-color="#202C32"/>
<stop offset="0.665" stop-color="#D7C796"/>
</linearGradient>
<linearGradient id="paint44_linear_29_23" x1="725.504" y1="361.024" x2="723.009" y2="-216.674" gradientUnits="userSpaceOnUse">
<stop stop-color="#202C32"/>
<stop offset="0.665" stop-color="#D7C796"/>
</linearGradient>
<linearGradient id="paint45_linear_29_23" x1="725.504" y1="361.024" x2="723.009" y2="-216.674" gradientUnits="userSpaceOnUse">
<stop stop-color="#202C32"/>
<stop offset="0.665" stop-color="#D7C796"/>
</linearGradient>
<linearGradient id="paint46_linear_29_23" x1="725.504" y1="361.024" x2="723.009" y2="-216.674" gradientUnits="userSpaceOnUse">
<stop stop-color="#202C32"/>
<stop offset="0.665" stop-color="#D7C796"/>
</linearGradient>
<linearGradient id="paint47_linear_29_23" x1="725.504" y1="361.024" x2="723.009" y2="-216.674" gradientUnits="userSpaceOnUse">
<stop stop-color="#202C32"/>
<stop offset="0.665" stop-color="#D7C796"/>
</linearGradient>
<linearGradient id="paint48_linear_29_23" x1="725.504" y1="361.024" x2="723.009" y2="-216.674" gradientUnits="userSpaceOnUse">
<stop stop-color="#202C32"/>
<stop offset="0.665" stop-color="#D7C796"/>
</linearGradient>
<linearGradient id="paint49_linear_29_23" x1="725.504" y1="361.024" x2="723.009" y2="-216.674" gradientUnits="userSpaceOnUse">
<stop stop-color="#202C32"/>
<stop offset="0.665" stop-color="#D7C796"/>
</linearGradient>
<linearGradient id="paint50_linear_29_23" x1="725.504" y1="361.024" x2="723.009" y2="-216.674" gradientUnits="userSpaceOnUse">
<stop stop-color="#202C32"/>
<stop offset="0.665" stop-color="#D7C796"/>
</linearGradient>
<linearGradient id="paint51_linear_29_23" x1="725.504" y1="361.024" x2="723.009" y2="-216.674" gradientUnits="userSpaceOnUse">
<stop stop-color="#202C32"/>
<stop offset="0.665" stop-color="#D7C796"/>
</linearGradient>
<linearGradient id="paint52_linear_29_23" x1="725.504" y1="361.024" x2="723.009" y2="-216.674" gradientUnits="userSpaceOnUse">
<stop stop-color="#202C32"/>
<stop offset="0.665" stop-color="#D7C796"/>
</linearGradient>
<linearGradient id="paint53_linear_29_23" x1="725.504" y1="361.024" x2="723.009" y2="-216.674" gradientUnits="userSpaceOnUse">
<stop stop-color="#202C32"/>
<stop offset="0.665" stop-color="#D7C796"/>
</linearGradient>
<linearGradient id="paint54_linear_29_23" x1="725.504" y1="361.024" x2="723.009" y2="-216.674" gradientUnits="userSpaceOnUse">
<stop stop-color="#202C32"/>
<stop offset="0.665" stop-color="#D7C796"/>
</linearGradient>
<linearGradient id="paint55_linear_29_23" x1="725.504" y1="361.024" x2="723.009" y2="-216.674" gradientUnits="userSpaceOnUse">
<stop stop-color="#202C32"/>
<stop offset="0.665" stop-color="#D7C796"/>
</linearGradient>
<linearGradient id="paint56_linear_29_23" x1="725.504" y1="361.024" x2="723.009" y2="-216.674" gradientUnits="userSpaceOnUse">
<stop stop-color="#202C32"/>
<stop offset="0.665" stop-color="#D7C796"/>
</linearGradient>
<linearGradient id="paint57_linear_29_23" x1="725.504" y1="361.024" x2="723.009" y2="-216.674" gradientUnits="userSpaceOnUse">
<stop stop-color="#202C32"/>
<stop offset="0.665" stop-color="#D7C796"/>
</linearGradient>
<linearGradient id="paint58_linear_29_23" x1="725.504" y1="361.024" x2="723.009" y2="-216.674" gradientUnits="userSpaceOnUse">
<stop stop-color="#202C32"/>
<stop offset="0.665" stop-color="#D7C796"/>
</linearGradient>
<linearGradient id="paint59_linear_29_23" x1="725.504" y1="361.024" x2="723.009" y2="-216.674" gradientUnits="userSpaceOnUse">
<stop stop-color="#202C32"/>
<stop offset="0.665" stop-color="#D7C796"/>
</linearGradient>
<linearGradient id="paint60_linear_29_23" x1="725.504" y1="361.024" x2="723.009" y2="-216.674" gradientUnits="userSpaceOnUse">
<stop stop-color="#202C32"/>
<stop offset="0.665" stop-color="#D7C796"/>
</linearGradient>
<linearGradient id="paint61_linear_29_23" x1="725.504" y1="361.024" x2="723.009" y2="-216.674" gradientUnits="userSpaceOnUse">
<stop stop-color="#202C32"/>
<stop offset="0.665" stop-color="#D7C796"/>
</linearGradient>
<linearGradient id="paint62_linear_29_23" x1="725.504" y1="361.024" x2="723.009" y2="-216.674" gradientUnits="userSpaceOnUse">
<stop stop-color="#202C32"/>
<stop offset="0.665" stop-color="#D7C796"/>
</linearGradient>
<linearGradient id="paint63_linear_29_23" x1="725.504" y1="361.024" x2="723.009" y2="-216.674" gradientUnits="userSpaceOnUse">
<stop stop-color="#202C32"/>
<stop offset="0.665" stop-color="#D7C796"/>
</linearGradient>
<linearGradient id="paint64_linear_29_23" x1="725.504" y1="361.024" x2="723.009" y2="-216.674" gradientUnits="userSpaceOnUse">
<stop stop-color="#202C32"/>
<stop offset="0.665" stop-color="#D7C796"/>
</linearGradient>
<linearGradient id="paint65_linear_29_23" x1="725.504" y1="361.024" x2="723.009" y2="-216.674" gradientUnits="userSpaceOnUse">
<stop stop-color="#202C32"/>
<stop offset="0.665" stop-color="#D7C796"/>
</linearGradient>
<linearGradient id="paint66_linear_29_23" x1="725.504" y1="361.024" x2="723.009" y2="-216.674" gradientUnits="userSpaceOnUse">
<stop stop-color="#202C32"/>
<stop offset="0.665" stop-color="#D7C796"/>
</linearGradient>
<linearGradient id="paint67_linear_29_23" x1="725.504" y1="361.024" x2="723.009" y2="-216.674" gradientUnits="userSpaceOnUse">
<stop stop-color="#202C32"/>
<stop offset="0.665" stop-color="#D7C796"/>
</linearGradient>
<linearGradient id="paint68_linear_29_23" x1="725.504" y1="361.024" x2="723.009" y2="-216.674" gradientUnits="userSpaceOnUse">
<stop stop-color="#202C32"/>
<stop offset="0.665" stop-color="#D7C796"/>
</linearGradient>
<linearGradient id="paint69_linear_29_23" x1="725.504" y1="361.024" x2="723.009" y2="-216.674" gradientUnits="userSpaceOnUse">
<stop stop-color="#202C32"/>
<stop offset="0.665" stop-color="#D7C796"/>
</linearGradient>
<linearGradient id="paint70_linear_29_23" x1="725.504" y1="361.024" x2="723.009" y2="-216.674" gradientUnits="userSpaceOnUse">
<stop stop-color="#202C32"/>
<stop offset="0.665" stop-color="#D7C796"/>
</linearGradient>
<linearGradient id="paint71_linear_29_23" x1="725.504" y1="361.024" x2="723.009" y2="-216.674" gradientUnits="userSpaceOnUse">
<stop stop-color="#202C32"/>
<stop offset="0.665" stop-color="#D7C796"/>
</linearGradient>
<linearGradient id="paint72_linear_29_23" x1="725.504" y1="361.024" x2="723.009" y2="-216.674" gradientUnits="userSpaceOnUse">
<stop stop-color="#202C32"/>
<stop offset="0.665" stop-color="#D7C796"/>
</linearGradient>
<linearGradient id="paint73_linear_29_23" x1="725.504" y1="361.024" x2="723.009" y2="-216.674" gradientUnits="userSpaceOnUse">
<stop stop-color="#202C32"/>
<stop offset="0.665" stop-color="#D7C796"/>
</linearGradient>
<linearGradient id="paint74_linear_29_23" x1="725.504" y1="361.024" x2="723.009" y2="-216.674" gradientUnits="userSpaceOnUse">
<stop stop-color="#202C32"/>
<stop offset="0.665" stop-color="#D7C796"/>
</linearGradient>
<linearGradient id="paint75_linear_29_23" x1="725.504" y1="361.024" x2="723.009" y2="-216.674" gradientUnits="userSpaceOnUse">
<stop stop-color="#202C32"/>
<stop offset="0.665" stop-color="#D7C796"/>
</linearGradient>
<linearGradient id="paint76_linear_29_23" x1="725.504" y1="361.024" x2="723.009" y2="-216.674" gradientUnits="userSpaceOnUse">
<stop stop-color="#202C32"/>
<stop offset="0.665" stop-color="#D7C796"/>
</linearGradient>
<linearGradient id="paint77_linear_29_23" x1="725.504" y1="361.024" x2="723.009" y2="-216.674" gradientUnits="userSpaceOnUse">
<stop stop-color="#202C32"/>
<stop offset="0.665" stop-color="#D7C796"/>
</linearGradient>
<linearGradient id="paint78_linear_29_23" x1="-0.5" y1="274" x2="1439.5" y2="274" gradientUnits="userSpaceOnUse">
<stop stop-color="#242725"/>
<stop offset="1" stop-color="#404546"/>
</linearGradient>
</defs>
</svg>
