<svg width="22" height="22" viewBox="0 0 22 22" fill="none" xmlns="http://www.w3.org/2000/svg">
<path d="M14.8106 15.7909H17C18.1046 15.7909 19 14.8955 19 13.7909V10.3203C19 9.21571 18.1051 8.32028 17.0005 8.32028C13.1645 8.32028 8.02616 8.32028 8.22733 8.32028M7.58884 9.15036L11.6764 11.5768C12.3156 11.9563 13.1125 11.9499 13.7455 11.5603L18.5605 8.59697M8.22733 8.32028C8.22733 8.87366 7.62888 9.15036 7.0304 9.42705C6.80483 9.53133 6.5704 9.80349 6.36466 10.1104C5.97926 10.6854 6.07379 11.4329 6.4689 12.0012L8.1687 14.4461C8.40169 14.7812 8.70003 15.112 9.10603 15.0701C9.26761 15.0534 9.47051 15.0193 9.72356 14.9609C10.0296 14.8901 10.3031 14.8175 10.54 14.7484C11.1645 14.5662 11.8714 14.582 12.3698 15C13.582 16.0167 13.9129 17.191 13.9129 17.7278C13.9129 17.82 13.5538 18.1705 12.1175 18.8345C10.8124 19.4379 8.42039 18.2596 7.09618 17.4165C6.85258 17.2614 6.65518 17.0456 6.50845 16.7969L3.30421 11.3651C3.1956 11.181 3.11452 10.981 3.07983 10.77C2.72523 8.61401 3.61076 6.99195 4.57543 5.98518C5.22401 5.30831 6.27371 5.50145 6.85825 6.23432C7.55067 7.10244 8.22733 8.03202 8.22733 8.32028Z" stroke="white"/>
<circle cx="11" cy="11" r="10.5" stroke="white"/>
</svg>
