<svg width="15" height="22" viewBox="0 0 15 22" fill="none" xmlns="http://www.w3.org/2000/svg">
<path d="M11.5 4C11.5 5.87926 9.76613 7.5 7.5 7.5C5.23387 7.5 3.5 5.87926 3.5 4C3.5 2.12074 5.23387 0.5 7.5 0.5C9.76613 0.5 11.5 2.12074 11.5 4Z" stroke="white"/>
<mask id="path-2-inside-1_431_1266" fill="white">
<path d="M15 14.5C15 12.5109 14.2098 10.6032 12.8033 9.1967C11.3968 7.79018 9.48912 7 7.5 7C5.51088 7 3.60322 7.79018 2.1967 9.1967C0.790177 10.6032 3.00349e-07 12.5109 0 14.5L7.5 14.5H15Z"/>
</mask>
<path d="M15 14.5C15 12.5109 14.2098 10.6032 12.8033 9.1967C11.3968 7.79018 9.48912 7 7.5 7C5.51088 7 3.60322 7.79018 2.1967 9.1967C0.790177 10.6032 3.00349e-07 12.5109 0 14.5L7.5 14.5H15Z" stroke="white" stroke-width="2" mask="url(#path-2-inside-1_431_1266)"/>
</svg>
