<svg width="166" height="37" viewBox="0 0 166 37" fill="none" xmlns="http://www.w3.org/2000/svg">
<path d="M49.838 24.2846C49.838 25.6766 49.28 26.7386 48.164 27.4706C47.204 28.1066 45.998 28.4246 44.546 28.4246C43.67 28.4246 42.692 28.2206 41.612 27.8126L41.63 24.9506H42.17C42.242 25.8986 42.524 26.5826 43.016 27.0026C43.244 27.1946 43.58 27.3566 44.024 27.4886C44.468 27.6206 44.87 27.6806 45.23 27.6686C46.058 27.6566 46.784 27.4346 47.408 27.0026C48.02 26.5586 48.338 25.9646 48.362 25.2206C48.362 24.4406 48.086 23.8166 47.534 23.3486C46.994 22.8806 46.244 22.5926 45.284 22.4846C42.728 22.1726 41.45 21.1046 41.45 19.2806C41.45 18.0086 41.936 17.0426 42.908 16.3826C43.736 15.8066 44.744 15.5186 45.932 15.5186C46.28 15.5186 46.694 15.5726 47.174 15.6806C47.654 15.7766 47.96 15.8246 48.092 15.8246C48.236 15.8246 48.332 15.7346 48.38 15.5546H48.884V18.7766H48.344C48.26 17.8886 47.99 17.2466 47.534 16.8506C47.09 16.4546 46.424 16.2626 45.536 16.2746C43.784 16.2986 42.92 17.0846 42.944 18.6326C42.968 20.0126 43.928 20.7986 45.824 20.9906C48.5 21.2786 49.838 22.3766 49.838 24.2846ZM52.5505 18.5066H53.4685V20.7206L55.7185 20.6846L55.6825 21.5126H53.4685V26.1566C53.4685 26.9606 53.7805 27.3626 54.4045 27.3626C54.6805 27.3626 55.0225 27.2546 55.4305 27.0386L55.5565 27.2366C55.1485 28.0646 54.5245 28.4786 53.6845 28.4786C52.5325 28.4546 51.9565 27.8246 51.9565 26.5886V21.5126L50.6065 21.5486V21.0626C50.6905 21.0386 50.8045 21.0086 50.9485 20.9726C51.5005 20.8406 51.9025 20.5826 52.1545 20.1986C52.4065 19.8026 52.5385 19.2386 52.5505 18.5066ZM63.9326 21.0086C64.7006 21.7646 65.0846 22.7666 65.0846 24.0146C65.0846 25.2506 64.6586 26.2886 63.8066 27.1286C62.9546 27.9686 61.8386 28.4006 60.4586 28.4246C59.3666 28.4366 58.4426 28.0586 57.6866 27.2906C56.9666 26.5106 56.6066 25.4846 56.6066 24.2126C56.6066 22.9286 57.0086 21.8786 57.8126 21.0626C58.6166 20.2466 59.7086 19.8386 61.0886 19.8386C62.2286 19.8386 63.1766 20.2286 63.9326 21.0086ZM61.1786 27.8486C61.9346 27.8486 62.4986 27.5306 62.8706 26.8946C63.2546 26.2586 63.4466 25.4366 63.4466 24.4286C63.4466 23.4086 63.1886 22.4846 62.6726 21.6566C62.1446 20.8406 61.4906 20.4326 60.7106 20.4326C59.0666 20.4326 58.2446 21.4826 58.2446 23.5826C58.2446 24.6986 58.4486 25.6406 58.8566 26.4086C59.3726 27.3686 60.1466 27.8486 61.1786 27.8486ZM67.625 23.6726C67.625 24.9686 67.943 25.9346 68.579 26.5706C69.215 27.2066 69.983 27.5246 70.883 27.5246C71.495 27.5246 72.095 27.3566 72.683 27.0206L72.863 27.2726C72.143 28.0286 71.219 28.4066 70.091 28.4066C68.975 28.4066 68.039 28.0646 67.283 27.3806C66.491 26.6246 66.095 25.6346 66.095 24.4106C66.095 23.1746 66.539 22.0946 67.427 21.1706C68.351 20.2706 69.455 19.8446 70.739 19.8926C71.483 19.9406 72.023 20.1266 72.359 20.4506C72.695 20.7626 72.851 21.0866 72.827 21.4226C72.815 21.7466 72.707 21.9926 72.503 22.1606C72.299 22.3286 72.083 22.4126 71.855 22.4126C71.627 22.4126 71.417 22.3646 71.225 22.2686C71.033 22.1606 70.955 22.0406 70.991 21.9086C71.027 21.7766 71.141 21.6626 71.333 21.5666C71.549 21.4346 71.639 21.2966 71.603 21.1526C71.567 20.7446 71.153 20.5406 70.361 20.5406C69.821 20.5406 69.269 20.7746 68.705 21.2426C67.985 21.8306 67.625 22.6406 67.625 23.6726ZM79.1925 27.7586C79.7085 27.7946 79.9665 27.7046 79.9665 27.4886C79.9665 27.3806 79.9245 27.2846 79.8405 27.2006L76.6545 24.1226L76.6365 27.3626C76.6725 27.6266 76.8045 27.7586 77.0325 27.7586H78.0405V28.2446H73.7745V27.7586H74.8005C75.0285 27.7586 75.1605 27.6266 75.1965 27.3626V16.7426C75.1605 16.4786 75.0285 16.3466 74.8005 16.3466H73.7745V15.8606H76.6545V23.7626L77.9145 22.7726L79.6785 21.1706C79.7985 21.0866 79.8585 20.9846 79.8585 20.8646C79.8585 20.7326 79.7625 20.6666 79.5705 20.6666H78.5445V20.1986H82.8285V20.6666L82.0005 20.7026C81.5565 20.7266 81.0045 21.0566 80.3445 21.6926L78.1305 23.4026C78.2505 23.5826 78.6165 23.9786 79.2285 24.5906C81.3405 26.7026 82.6125 27.7586 83.0445 27.7586H83.6565V28.2446H79.1925V27.7586ZM90.8407 25.7066C90.8407 26.5346 90.5167 27.2066 89.8687 27.7226C89.2327 28.2266 88.5007 28.4786 87.6727 28.4786C86.8567 28.4786 86.1187 28.3226 85.4587 28.0106C85.2667 27.9386 85.1527 28.0466 85.1167 28.3346C84.9127 28.2986 84.7747 28.2986 84.7027 28.3346V25.3826H85.2247V25.9046C85.2247 26.2886 85.4527 26.7086 85.9087 27.1646C86.3767 27.6086 86.9107 27.8246 87.5107 27.8126C88.1107 27.8006 88.5967 27.6746 88.9687 27.4346C89.3407 27.1946 89.5267 26.8406 89.5267 26.3726C89.5267 25.9046 89.2147 25.5386 88.5907 25.2746C87.7387 24.9746 86.9107 24.6626 86.1067 24.3386C85.1107 23.9306 84.6127 23.2886 84.6127 22.4126C84.6127 21.5366 84.9607 20.8766 85.6567 20.4326C86.2327 20.0486 86.9827 19.8566 87.9067 19.8566C88.2907 19.8566 88.8727 19.9826 89.6527 20.2346V19.8926H90.1387V22.2866H89.6167V21.9086C89.6167 21.4766 89.4127 21.1286 89.0047 20.8646C88.6087 20.5886 88.0987 20.4506 87.4747 20.4506C86.8627 20.4506 86.4127 20.6126 86.1247 20.9366C85.8967 21.2246 85.8067 21.5426 85.8547 21.8906C85.9147 22.2386 86.0887 22.4966 86.3767 22.6646C86.5087 22.7606 87.0307 22.9766 87.9427 23.3126C88.8667 23.6366 89.5447 23.9306 89.9767 24.1946C90.5527 24.5906 90.8407 25.0946 90.8407 25.7066ZM97.3039 15.8426C98.7799 15.8426 99.8959 16.1666 100.652 16.8146C101.408 17.4626 101.786 18.3386 101.786 19.4426C101.786 20.5466 101.276 21.4106 100.256 22.0346C99.3679 22.5866 98.1799 22.8626 96.6919 22.8626H95.1799V27.6866H96.8539V28.2446H91.8499V27.6866H93.5419V16.4006H91.8499V15.8426H97.3039ZM98.9239 21.7106C99.6079 21.1946 99.9379 20.4206 99.9139 19.3886C99.8899 18.3566 99.6499 17.6006 99.1939 17.1206C98.7499 16.6406 98.0479 16.4006 97.0879 16.4006H95.1799V22.3766H96.7279C97.6279 22.3766 98.3599 22.1546 98.9239 21.7106ZM107.05 27.7586V28.2446H102.658V27.7586H103.702C103.978 27.7586 104.116 27.6206 104.116 27.3446L104.098 16.9586C104.086 16.5506 103.882 16.3466 103.486 16.3466H102.64V15.8606H105.592V27.3446C105.592 27.6206 105.73 27.7586 106.006 27.7586H107.05ZM115.927 27.7406V28.2446H113.047V26.7686C111.979 27.8966 110.971 28.4606 110.023 28.4606C109.387 28.4606 108.877 28.2746 108.493 27.9026C108.073 27.5306 107.863 27.0026 107.863 26.3186C107.863 25.3706 108.229 24.6626 108.961 24.1946C109.513 23.8586 110.287 23.6006 111.283 23.4206L113.047 23.1146C113.071 22.2626 112.999 21.6386 112.831 21.2426C112.591 20.6786 112.177 20.3966 111.589 20.3966C110.569 20.3966 110.053 20.7386 110.041 21.4226C110.041 21.5426 110.107 21.6866 110.239 21.8546C110.383 22.0106 110.455 22.0946 110.455 22.1066C110.467 22.2866 110.377 22.4366 110.185 22.5566C110.005 22.6766 109.837 22.7186 109.681 22.6826C109.081 22.6826 108.787 22.3526 108.799 21.6926C108.811 21.0206 109.225 20.5166 110.041 20.1806C110.545 19.9886 111.079 19.8926 111.643 19.8926C112.591 19.8926 113.299 20.1566 113.767 20.6846C114.235 21.2606 114.469 22.1726 114.469 23.4206V27.3446C114.469 27.4646 114.511 27.5606 114.595 27.6326C114.679 27.7046 114.775 27.7406 114.883 27.7406H115.927ZM113.047 26.0486V23.7086C112.003 23.8406 111.145 24.0386 110.473 24.3026C110.161 24.4226 109.903 24.6446 109.699 24.9686C109.495 25.2926 109.393 25.6466 109.393 26.0306C109.393 26.4146 109.525 26.7386 109.789 27.0026C110.065 27.2666 110.389 27.4106 110.761 27.4346C111.145 27.4466 111.547 27.3206 111.967 27.0566C112.399 26.7806 112.759 26.4446 113.047 26.0486ZM126.583 27.7586V28.2446H122.191V27.7586H123.253C123.481 27.7586 123.613 27.6206 123.649 27.3446V23.0786C123.649 22.3826 123.469 21.8426 123.109 21.4586C122.749 21.0626 122.287 20.8646 121.723 20.8646C121.159 20.8646 120.637 21.0506 120.157 21.4226C119.701 21.8066 119.473 22.1666 119.473 22.5026V27.3446C119.509 27.6206 119.647 27.7586 119.887 27.7586H120.931V28.2446H116.539V27.7586H117.583C117.823 27.7586 117.961 27.6206 117.997 27.3446V21.1166C117.985 20.7086 117.781 20.5046 117.385 20.5046H116.539V20.0186H119.491V20.5046C119.479 20.6486 119.473 20.8166 119.473 21.0086V21.3686C119.569 21.1406 119.821 20.8526 120.229 20.5046C120.841 20.0246 121.507 19.7846 122.227 19.7846C124.159 19.7846 125.125 20.8106 125.125 22.8626V27.3446C125.161 27.6206 125.299 27.7586 125.539 27.7586H126.583ZM129.584 26.1926C129.908 26.1926 130.178 26.3066 130.394 26.5346C130.622 26.7506 130.736 27.0206 130.736 27.3446C130.736 27.6566 130.628 27.9266 130.412 28.1546C130.196 28.3706 129.92 28.4786 129.584 28.4786C129.26 28.4786 128.984 28.3706 128.756 28.1546C128.54 27.9266 128.432 27.6566 128.432 27.3446C128.432 27.0206 128.546 26.7506 128.774 26.5346C129.002 26.3066 129.272 26.1926 129.584 26.1926ZM134.176 23.6726C134.176 24.9686 134.494 25.9346 135.13 26.5706C135.766 27.2066 136.534 27.5246 137.434 27.5246C138.046 27.5246 138.646 27.3566 139.234 27.0206L139.414 27.2726C138.694 28.0286 137.77 28.4066 136.642 28.4066C135.526 28.4066 134.59 28.0646 133.834 27.3806C133.042 26.6246 132.646 25.6346 132.646 24.4106C132.646 23.1746 133.09 22.0946 133.978 21.1706C134.902 20.2706 136.006 19.8446 137.29 19.8926C138.034 19.9406 138.574 20.1266 138.91 20.4506C139.246 20.7626 139.402 21.0866 139.378 21.4226C139.366 21.7466 139.258 21.9926 139.054 22.1606C138.85 22.3286 138.634 22.4126 138.406 22.4126C138.178 22.4126 137.968 22.3646 137.776 22.2686C137.584 22.1606 137.506 22.0406 137.542 21.9086C137.578 21.7766 137.692 21.6626 137.884 21.5666C138.1 21.4346 138.19 21.2966 138.154 21.1526C138.118 20.7446 137.704 20.5406 136.912 20.5406C136.372 20.5406 135.82 20.7746 135.256 21.2426C134.536 21.8306 134.176 22.6406 134.176 23.6726ZM147.903 21.0086C148.671 21.7646 149.055 22.7666 149.055 24.0146C149.055 25.2506 148.629 26.2886 147.777 27.1286C146.925 27.9686 145.809 28.4006 144.429 28.4246C143.337 28.4366 142.413 28.0586 141.657 27.2906C140.937 26.5106 140.577 25.4846 140.577 24.2126C140.577 22.9286 140.979 21.8786 141.783 21.0626C142.587 20.2466 143.679 19.8386 145.059 19.8386C146.199 19.8386 147.147 20.2286 147.903 21.0086ZM145.149 27.8486C145.905 27.8486 146.469 27.5306 146.841 26.8946C147.225 26.2586 147.417 25.4366 147.417 24.4286C147.417 23.4086 147.159 22.4846 146.643 21.6566C146.115 20.8406 145.461 20.4326 144.681 20.4326C143.037 20.4326 142.215 21.4826 142.215 23.5826C142.215 24.6986 142.419 25.6406 142.827 26.4086C143.343 27.3686 144.117 27.8486 145.149 27.8486ZM164.916 27.7586V28.2446H160.542V27.7586H161.604C161.832 27.7586 161.982 27.6206 162.054 27.3446V23.0966C162.054 22.4606 161.91 21.9386 161.622 21.5306C161.334 21.1106 160.932 20.9006 160.416 20.9006C159.9 20.9006 159.408 21.0986 158.94 21.4946C158.472 21.8666 158.238 22.2146 158.238 22.5386L158.22 27.3446C158.28 27.6206 158.418 27.7586 158.634 27.7586H159.678V28.2446H155.322V27.7586H156.348C156.576 27.7586 156.72 27.6206 156.78 27.3446V23.0966C156.78 22.4846 156.642 21.9746 156.366 21.5666C156.09 21.1226 155.682 20.9006 155.142 20.9006C154.614 20.9006 154.122 21.0866 153.666 21.4586C153.222 21.8186 153 22.1786 153 22.5386V27.3446C153.036 27.6206 153.168 27.7586 153.396 27.7586H154.44V28.2446H150.066V27.7586H151.11C151.338 27.7586 151.47 27.6206 151.506 27.3446V21.1346C151.494 20.7266 151.284 20.5226 150.876 20.5226H150.048V20.0186H153V21.3866C153.24 20.9546 153.558 20.6126 153.954 20.3606C154.482 20.0006 155.07 19.8206 155.718 19.8206C156.858 19.8206 157.662 20.3666 158.13 21.4586C158.838 20.3666 159.792 19.8206 160.992 19.8206C161.724 19.8206 162.324 20.0786 162.792 20.5946C163.272 21.0986 163.512 21.7826 163.512 22.6466L163.494 27.3446C163.518 27.6206 163.644 27.7586 163.872 27.7586H164.916Z" fill="#FFDCBC"/>
<path fill-rule="evenodd" clip-rule="evenodd" d="M8.19148 16.8828L0.0335716 16.9104L0 26.8517C0.299743 27.4919 0.883022 28.5428 1.65363 29.6022L1.34538 29.1649H2.04787V29.5917V30.0186H1.96633C2.65969 30.9124 3.47854 31.7743 4.36431 32.3593V31.9738H5.27075V33.0202L6.07647 33.4746V33.4058H6.5129H6.94933V34.1218L8.19148 34.7552V28.1184C8.00348 28.1625 7.28505 27.2923 6.94933 26.9343L8.19148 26.356V16.8828ZM3.59217 31.423L3.29002 31.4781L2.85359 31.0375V30.9273V30.5969H3.65931L3.59217 31.423Z" fill="url(#paint0_linear_87_2324)"/>
<path d="M5.27075 33.0202V31.9738H4.36431V32.3593L5.27075 33.0202Z" fill="url(#paint1_linear_87_2324)"/>
<path d="M6.94933 34.1218V33.4058H6.5129H6.07647V33.4746L6.94933 34.1218Z" fill="url(#paint2_linear_87_2324)"/>
<path d="M3.29002 31.4781L3.59217 31.423L3.65931 30.5969H2.85359V30.9273V31.0375L3.29002 31.4781Z" fill="url(#paint3_linear_87_2324)"/>
<path d="M2.04787 29.1649H1.34538L1.65363 29.6022C1.75472 29.7411 1.85902 29.8802 1.96633 30.0186H2.04787V29.5917V29.1649Z" fill="url(#paint4_linear_87_2324)"/>
<path d="M26.0638 16.8828H35V26.8946C33.8061 29.0092 30.3474 33.5416 26.0638 34.7552V26.8946C26.4859 26.2971 27.0768 24.5668 26.0638 22.4265V16.8828Z" fill="url(#paint5_linear_87_2324)"/>
<path d="M26.0641 14.567C25.1284 15.1689 23.2429 16.4913 23.186 16.9653C22.3806 15.8461 19.7679 13.7036 15.7599 14.0873C14.3505 14.3507 11.9012 15.4304 13.3793 17.6425C13.628 17.9246 14.7367 18.5905 17.1813 18.9968C20.237 19.5047 23.3638 20.069 24.8206 21.8183C25.986 23.2178 26.0879 24.9784 25.9931 25.6838C25.7918 26.6243 24.9058 28.7254 22.9729 29.6057C20.5568 30.7061 19.3132 31.1858 16.0443 30.9883C12.0351 30.7461 8.76028 28.0821 8.19177 27.4614L11.4252 25.4299C12.349 26.6714 15.1631 28.8552 19.0289 27.6589C22.8948 26.4626 21.9425 24.4894 20.9832 23.6523C20.7108 23.3514 19.569 22.6874 17.1813 22.4391L14.0545 21.6772C12.7635 21.2728 10.0821 20.2495 9.6841 19.3918C9.18666 18.3196 8.51156 18.6018 8.97347 15.2442C9.32878 14.2378 10.8993 12.0276 14.3387 11.2376C17.7782 10.4476 20.9358 11.341 22.0846 11.8865C23.3163 12.5543 25.8366 14.0253 26.0641 14.567Z" fill="url(#paint6_linear_87_2324)"/>
<path d="M11.9826 4.21415L12.8965 3.44864C13.0093 5.32934 13.2011 9.34024 13.0657 10.3382C12.9078 10.3288 12.5106 10.3836 12.1857 10.6785C12.2082 8.56149 12.1992 4.30487 11.9826 4.21415Z" fill="url(#paint7_linear_87_2324)"/>
<path d="M8.93616 7.02102V12.975C8.9368 12.9175 9.84153 12.1325 10.5421 11.6141L10.5026 5.63176L8.93616 7.02102Z" fill="url(#paint8_linear_87_2324)"/>
<path d="M12.1857 21.906C12.3323 22.0099 12.7205 22.2178 13.0996 22.2178V25.7052L12.1857 24.9113V21.906Z" fill="url(#paint9_linear_87_2324)"/>
<path d="M12.1518 30.8653C12.4452 30.9976 13.0522 31.2452 13.1334 31.1771L13.0319 36.6491C12.7273 36.6019 12.1247 36.496 12.1518 36.4507C12.1789 36.4053 12.1631 32.7082 12.1518 30.8653Z" fill="url(#paint10_linear_87_2324)"/>
<path d="M9.00386 20.0064V25.7052C9.29854 25.4121 10.0275 24.9799 10.6625 24.6353C10.4458 24.3465 10.4614 22.2418 10.4963 21.2255C9.84905 20.8445 9.27334 20.3051 9.00386 20.0064Z" fill="url(#paint11_linear_87_2324)"/>
<path d="M9.00386 35.515L10.4963 36.0254C10.4955 34.1352 10.5173 30.8244 10.6023 30.2582C10.0045 29.951 9.34604 29.4201 9.00386 29.1074V35.515Z" fill="url(#paint12_linear_87_2324)"/>
<path d="M11.3056 11.1605L11.2379 4.97966L10.5026 5.63176L10.5421 11.6141C10.897 11.3515 11.1994 11.1573 11.3056 11.1605Z" fill="url(#paint13_linear_87_2324)"/>
<path d="M11.441 24.2308L11.3394 21.5941C11.0574 21.5198 10.7705 21.3869 10.4963 21.2255C10.4614 22.2418 10.4458 24.3465 10.6625 24.6353C10.9611 24.4733 11.2389 24.3306 11.441 24.2308Z" fill="url(#paint14_linear_87_2324)"/>
<path d="M11.3394 36.2239V30.4967C11.1448 30.4902 10.91 30.41 10.6625 30.2884C10.6425 30.2786 10.6225 30.2685 10.6023 30.2582C10.5173 30.8244 10.4955 34.1352 10.4963 36.0254L11.3394 36.2239Z" fill="url(#paint15_linear_87_2324)"/>
<path d="M15.4352 1.91761C15.2998 2.18979 14.8146 2.40905 14.589 2.48466C14.589 4.9654 14.6093 9.92347 14.6905 9.9098C14.9384 9.87043 15.1947 9.84643 15.4352 9.83307C15.4916 7.08117 15.5706 1.64543 15.4352 1.91761Z" fill="url(#paint16_linear_87_2324)"/>
<path d="M13.7766 2.59807L13.8443 10.1398C14.0816 10.0327 14.3795 9.95917 14.6905 9.9098C14.6093 9.92347 14.589 4.9654 14.589 2.48466C14.8146 2.40905 15.2998 2.18979 15.4352 1.91761C15.5706 1.64543 15.4916 7.08117 15.4352 9.83307C15.7877 9.81347 16.1063 9.81672 16.3153 9.82789V0.608583C16.0805 0.955149 14.6033 2.02635 13.7766 2.59807Z" fill="url(#paint17_linear_87_2324)"/>
<path d="M16.3153 36.9894V31.6591C16.0742 31.6741 15.7775 31.6586 15.469 31.6268V36.876L16.3153 36.9894Z" fill="url(#paint18_linear_87_2324)"/>
<path d="M15.469 36.876V31.6268C15.2091 31.6 14.9409 31.5615 14.6905 31.5198V36.7909V36.8192L15.469 36.876Z" fill="url(#paint19_linear_87_2324)"/>
<path d="M14.6905 31.5198C14.3367 31.4609 14.0186 31.3955 13.8104 31.3473C13.8104 33.1713 13.824 36.8136 13.8781 36.7909C13.9323 36.7682 14.4423 36.7814 14.6905 36.7909V31.5198Z" fill="url(#paint20_linear_87_2324)"/>
<path d="M13.8104 22.3879V26.1872C14.0056 26.2846 14.2828 26.4101 14.589 26.5283V22.7238C14.291 22.6412 14.0163 22.5317 13.8104 22.3879Z" fill="url(#paint21_linear_87_2324)"/>
<path d="M16.3491 26.8676L16.383 22.955C16.1602 22.955 15.8293 22.9386 15.469 22.8935V26.8096C15.8089 26.8905 16.1248 26.9248 16.3491 26.8676Z" fill="url(#paint22_linear_87_2324)"/>
<path d="M15.469 22.8935C15.1811 22.8574 14.8744 22.803 14.589 22.7238V26.5283L15.469 26.8096V22.8935Z" fill="url(#paint23_linear_87_2324)"/>
<path d="M14.5551 15.2073V17.1563L15.469 17.4788V14.8745L14.5551 15.2073Z" fill="url(#paint24_linear_87_2324)"/>
<path d="M16.3491 17.7382L16.2814 14.7045C16.02 14.7319 15.7417 14.7943 15.469 14.8745V17.4788C15.7913 17.5811 16.1069 17.6724 16.3491 17.7382Z" fill="url(#paint25_linear_87_2324)"/>
<path d="M13.9458 15.4983V16.7742C13.9458 16.8734 14.1993 17.0119 14.5551 17.1563V15.2073C14.3006 15.3164 14.087 15.4217 13.9458 15.4983Z" fill="url(#paint26_linear_87_2324)"/>
<path d="M17.1274 0.5V9.93933C17.5516 9.90176 18.6397 9.91116 19.598 10.2493V2.50058L17.1274 0.5Z" fill="url(#paint27_linear_87_2324)"/>
<path d="M17.1274 14.7858C17.8636 14.9549 19.3884 15.3212 19.598 15.4339V18.477C18.8618 18.2798 17.337 17.9191 17.1274 18.0543V14.7858Z" fill="url(#paint28_linear_87_2324)"/>
<path d="M17.1274 23.2671C17.8511 23.3516 19.3285 23.6221 19.4483 24.0279C19.5681 24.4336 19.4982 25.6809 19.4483 26.2539C19.0739 26.4981 18.0857 26.9752 17.1274 26.9301V23.2671Z" fill="url(#paint29_linear_87_2324)"/>
<path d="M17.1274 31.6639C17.5891 31.6921 18.7146 31.6808 19.5231 31.4103L19.598 36.7921L17.1274 36.9894V31.6639Z" fill="url(#paint30_linear_87_2324)"/>
<path d="M22.6676 4.95198C23.5036 5.69398 25.1981 7.17234 25.288 7.1498C25.3778 7.12726 25.2505 10.8034 25.1757 12.6443C24.7639 12.2592 23.6858 11.4214 22.6676 11.1509V4.95198Z" fill="url(#paint31_linear_87_2324)"/>
<path d="M22.6676 17.8289L25.1757 15.8002L25.288 20.703C24.7265 20.2428 23.4163 19.3167 22.6676 19.2941V17.8289Z" fill="url(#paint32_linear_87_2324)"/>
<path d="M25.2131 28.818V35.496C24.5143 35.7026 23.0419 36.1497 22.7425 36.2849L22.6217 30.5323C22.9956 30.4677 23.9884 30.0471 25.2131 28.818Z" fill="url(#paint33_linear_87_2324)"/>
<path d="M20.4964 3.205L21.8066 4.30391L21.7317 10.8128C21.5695 10.6907 21.1029 10.4353 20.5339 10.3902L20.4964 3.205Z" fill="url(#paint34_linear_87_2324)"/>
<path d="M20.5339 15.9129L21.844 17.0118V19.0124C21.4073 18.8621 20.5339 18.5897 20.5339 18.7024V15.9129Z" fill="url(#paint35_linear_87_2324)"/>
<path d="M20.459 31.1849C20.6836 31.2224 21.2526 31.2018 21.7317 30.8186L21.8066 36.3976C21.4947 36.4258 20.8034 36.516 20.5339 36.6512L20.459 31.1849Z" fill="url(#paint36_linear_87_2324)"/>
<path d="M33.5106 16.8828V30.2871" stroke="#2D5686" stroke-width="0.744678"/>
<path d="M29.0425 16.8828V36.2445" stroke="#2D5686" stroke-width="0.744678"/>
<path d="M2.23377 31.0316L2.23376 16.138" stroke="#2D5686" stroke-width="0.744678"/>
<path d="M6.32996 34.0106L6.32996 14.6489" stroke="#2D5686" stroke-width="0.744678"/>
<defs>
<linearGradient id="paint0_linear_87_2324" x1="4.09574" y1="16.8828" x2="4.09574" y2="34.7552" gradientUnits="userSpaceOnUse">
<stop offset="0.235" stop-color="#E1B648"/>
<stop offset="1" stop-color="#FFECBC"/>
</linearGradient>
<linearGradient id="paint1_linear_87_2324" x1="4.09574" y1="16.8828" x2="4.09574" y2="34.7552" gradientUnits="userSpaceOnUse">
<stop offset="0.235" stop-color="#E1B648"/>
<stop offset="1" stop-color="#FFECBC"/>
</linearGradient>
<linearGradient id="paint2_linear_87_2324" x1="4.09574" y1="16.8828" x2="4.09574" y2="34.7552" gradientUnits="userSpaceOnUse">
<stop offset="0.235" stop-color="#E1B648"/>
<stop offset="1" stop-color="#FFECBC"/>
</linearGradient>
<linearGradient id="paint3_linear_87_2324" x1="4.09574" y1="16.8828" x2="4.09574" y2="34.7552" gradientUnits="userSpaceOnUse">
<stop offset="0.235" stop-color="#E1B648"/>
<stop offset="1" stop-color="#FFECBC"/>
</linearGradient>
<linearGradient id="paint4_linear_87_2324" x1="4.09574" y1="16.8828" x2="4.09574" y2="34.7552" gradientUnits="userSpaceOnUse">
<stop offset="0.235" stop-color="#E1B648"/>
<stop offset="1" stop-color="#FFECBC"/>
</linearGradient>
<linearGradient id="paint5_linear_87_2324" x1="30.5319" y1="16.8828" x2="30.5319" y2="41.8296" gradientUnits="userSpaceOnUse">
<stop offset="0.235" stop-color="#E1B648"/>
<stop offset="1" stop-color="white"/>
</linearGradient>
<linearGradient id="paint6_linear_87_2324" x1="17.1279" y1="10.9253" x2="17.3471" y2="57.0388" gradientUnits="userSpaceOnUse">
<stop offset="0.0001" stop-color="#FFF7E0"/>
<stop offset="0.32" stop-color="#FFDF8A"/>
</linearGradient>
<linearGradient id="paint7_linear_87_2324" x1="12.6596" y1="0.5" x2="12.6596" y2="36.9894" gradientUnits="userSpaceOnUse">
<stop stop-color="white"/>
<stop offset="0.235" stop-color="#E1B648"/>
</linearGradient>
<linearGradient id="paint8_linear_87_2324" x1="12.6596" y1="0.5" x2="12.6596" y2="36.9894" gradientUnits="userSpaceOnUse">
<stop stop-color="white"/>
<stop offset="0.235" stop-color="#E1B648"/>
</linearGradient>
<linearGradient id="paint9_linear_87_2324" x1="12.6596" y1="0.5" x2="12.6596" y2="36.9894" gradientUnits="userSpaceOnUse">
<stop stop-color="white"/>
<stop offset="0.235" stop-color="#E1B648"/>
</linearGradient>
<linearGradient id="paint10_linear_87_2324" x1="12.6596" y1="0.5" x2="12.6596" y2="36.9894" gradientUnits="userSpaceOnUse">
<stop stop-color="white"/>
<stop offset="0.235" stop-color="#E1B648"/>
</linearGradient>
<linearGradient id="paint11_linear_87_2324" x1="12.6596" y1="0.5" x2="12.6596" y2="36.9894" gradientUnits="userSpaceOnUse">
<stop stop-color="white"/>
<stop offset="0.235" stop-color="#E1B648"/>
</linearGradient>
<linearGradient id="paint12_linear_87_2324" x1="12.6596" y1="0.5" x2="12.6596" y2="36.9894" gradientUnits="userSpaceOnUse">
<stop stop-color="white"/>
<stop offset="0.235" stop-color="#E1B648"/>
</linearGradient>
<linearGradient id="paint13_linear_87_2324" x1="12.6596" y1="0.5" x2="12.6596" y2="36.9894" gradientUnits="userSpaceOnUse">
<stop stop-color="white"/>
<stop offset="0.235" stop-color="#E1B648"/>
</linearGradient>
<linearGradient id="paint14_linear_87_2324" x1="12.6596" y1="0.5" x2="12.6596" y2="36.9894" gradientUnits="userSpaceOnUse">
<stop stop-color="white"/>
<stop offset="0.235" stop-color="#E1B648"/>
</linearGradient>
<linearGradient id="paint15_linear_87_2324" x1="12.6596" y1="0.5" x2="12.6596" y2="36.9894" gradientUnits="userSpaceOnUse">
<stop stop-color="white"/>
<stop offset="0.235" stop-color="#E1B648"/>
</linearGradient>
<linearGradient id="paint16_linear_87_2324" x1="12.6596" y1="0.5" x2="12.6596" y2="36.9894" gradientUnits="userSpaceOnUse">
<stop stop-color="white"/>
<stop offset="0.235" stop-color="#E1B648"/>
</linearGradient>
<linearGradient id="paint17_linear_87_2324" x1="12.6596" y1="0.5" x2="12.6596" y2="36.9894" gradientUnits="userSpaceOnUse">
<stop stop-color="white"/>
<stop offset="0.235" stop-color="#E1B648"/>
</linearGradient>
<linearGradient id="paint18_linear_87_2324" x1="12.6596" y1="0.5" x2="12.6596" y2="36.9894" gradientUnits="userSpaceOnUse">
<stop stop-color="white"/>
<stop offset="0.235" stop-color="#E1B648"/>
</linearGradient>
<linearGradient id="paint19_linear_87_2324" x1="12.6596" y1="0.5" x2="12.6596" y2="36.9894" gradientUnits="userSpaceOnUse">
<stop stop-color="white"/>
<stop offset="0.235" stop-color="#E1B648"/>
</linearGradient>
<linearGradient id="paint20_linear_87_2324" x1="12.6596" y1="0.5" x2="12.6596" y2="36.9894" gradientUnits="userSpaceOnUse">
<stop stop-color="white"/>
<stop offset="0.235" stop-color="#E1B648"/>
</linearGradient>
<linearGradient id="paint21_linear_87_2324" x1="12.6596" y1="0.5" x2="12.6596" y2="36.9894" gradientUnits="userSpaceOnUse">
<stop stop-color="white"/>
<stop offset="0.235" stop-color="#E1B648"/>
</linearGradient>
<linearGradient id="paint22_linear_87_2324" x1="12.6596" y1="0.5" x2="12.6596" y2="36.9894" gradientUnits="userSpaceOnUse">
<stop stop-color="white"/>
<stop offset="0.235" stop-color="#E1B648"/>
</linearGradient>
<linearGradient id="paint23_linear_87_2324" x1="12.6596" y1="0.5" x2="12.6596" y2="36.9894" gradientUnits="userSpaceOnUse">
<stop stop-color="white"/>
<stop offset="0.235" stop-color="#E1B648"/>
</linearGradient>
<linearGradient id="paint24_linear_87_2324" x1="12.6596" y1="0.5" x2="12.6596" y2="36.9894" gradientUnits="userSpaceOnUse">
<stop stop-color="white"/>
<stop offset="0.235" stop-color="#E1B648"/>
</linearGradient>
<linearGradient id="paint25_linear_87_2324" x1="12.6596" y1="0.5" x2="12.6596" y2="36.9894" gradientUnits="userSpaceOnUse">
<stop stop-color="white"/>
<stop offset="0.235" stop-color="#E1B648"/>
</linearGradient>
<linearGradient id="paint26_linear_87_2324" x1="12.6596" y1="0.5" x2="12.6596" y2="36.9894" gradientUnits="userSpaceOnUse">
<stop stop-color="white"/>
<stop offset="0.235" stop-color="#E1B648"/>
</linearGradient>
<linearGradient id="paint27_linear_87_2324" x1="21.2231" y1="0.5" x2="21.2231" y2="36.9894" gradientUnits="userSpaceOnUse">
<stop stop-color="white"/>
<stop offset="0.235" stop-color="#E1B648"/>
</linearGradient>
<linearGradient id="paint28_linear_87_2324" x1="21.2231" y1="0.5" x2="21.2231" y2="36.9894" gradientUnits="userSpaceOnUse">
<stop stop-color="white"/>
<stop offset="0.235" stop-color="#E1B648"/>
</linearGradient>
<linearGradient id="paint29_linear_87_2324" x1="21.2231" y1="0.5" x2="21.2231" y2="36.9894" gradientUnits="userSpaceOnUse">
<stop stop-color="white"/>
<stop offset="0.235" stop-color="#E1B648"/>
</linearGradient>
<linearGradient id="paint30_linear_87_2324" x1="21.2231" y1="0.5" x2="21.2231" y2="36.9894" gradientUnits="userSpaceOnUse">
<stop stop-color="white"/>
<stop offset="0.235" stop-color="#E1B648"/>
</linearGradient>
<linearGradient id="paint31_linear_87_2324" x1="21.2231" y1="0.5" x2="21.2231" y2="36.9894" gradientUnits="userSpaceOnUse">
<stop stop-color="white"/>
<stop offset="0.235" stop-color="#E1B648"/>
</linearGradient>
<linearGradient id="paint32_linear_87_2324" x1="21.2231" y1="0.5" x2="21.2231" y2="36.9894" gradientUnits="userSpaceOnUse">
<stop stop-color="white"/>
<stop offset="0.235" stop-color="#E1B648"/>
</linearGradient>
<linearGradient id="paint33_linear_87_2324" x1="21.2231" y1="0.5" x2="21.2231" y2="36.9894" gradientUnits="userSpaceOnUse">
<stop stop-color="white"/>
<stop offset="0.235" stop-color="#E1B648"/>
</linearGradient>
<linearGradient id="paint34_linear_87_2324" x1="21.2231" y1="0.5" x2="21.2231" y2="36.9894" gradientUnits="userSpaceOnUse">
<stop stop-color="white"/>
<stop offset="0.235" stop-color="#E1B648"/>
</linearGradient>
<linearGradient id="paint35_linear_87_2324" x1="21.2231" y1="0.5" x2="21.2231" y2="36.9894" gradientUnits="userSpaceOnUse">
<stop stop-color="white"/>
<stop offset="0.235" stop-color="#E1B648"/>
</linearGradient>
<linearGradient id="paint36_linear_87_2324" x1="21.2231" y1="0.5" x2="21.2231" y2="36.9894" gradientUnits="userSpaceOnUse">
<stop stop-color="white"/>
<stop offset="0.235" stop-color="#E1B648"/>
</linearGradient>
</defs>
</svg>
