<svg width="430" height="153" viewBox="0 0 430 153" fill="none" xmlns="http://www.w3.org/2000/svg">
<path d="M0 63.7198V29.9851C0 29.14 0.685117 28.4549 1.53025 28.4549H3.82561C4.67074 28.4549 5.35584 29.14 5.35584 29.9851L5.35586 55.3454C5.35586 54.9228 5.69842 54.5802 6.12099 54.5802C6.54356 54.5802 6.88612 54.9228 6.88612 55.3454V57.0425H7.88901V28.893C7.88901 28.4704 8.23157 28.1278 8.65415 28.1278C9.07573 28.1278 9.41651 28.4714 9.41304 28.893L9.18155 57.0425H10.7118V28.8929C10.7118 28.4704 11.0543 28.1278 11.4769 28.1278H13.7723C14.1948 28.1278 14.5374 28.4704 14.5374 28.8929V64.4849C14.5374 64.9075 14.1948 65.25 13.7723 65.25H12.2421C12.0308 65.25 11.8595 65.0787 11.8595 64.8674V57.4251C11.8595 57.2138 11.6882 57.0425 11.4769 57.0425H10.7118H9.18155H7.88901H6.88612C6.04098 57.0425 5.35586 57.7276 5.35586 58.5727L5.35585 63.7198C5.35585 64.5649 4.67074 65.25 3.82561 65.25H1.53025C0.685117 65.25 0 64.5649 0 63.7198Z" fill="url(#paint0_linear_267_2064)"/>
<path d="M15.3025 65.0587V51.2416C15.3025 50.819 15.6451 50.4765 16.0677 50.4765H17.5979C18.0204 50.4765 18.363 50.819 18.363 51.2416V73.8679H19.1282V51.2416C19.1282 50.819 19.4707 50.4765 19.8933 50.4765H20.6584C21.0809 50.4765 21.4235 50.819 21.4235 51.2416V73.8679H22.9538V55.3453C22.9538 54.9228 23.2963 54.5802 23.7189 54.5802H25.2491C25.6717 54.5802 26.0143 54.9228 26.0143 55.3454V69.1486H26.7794V55.3453C26.7794 54.9228 27.1219 54.5802 27.5445 54.5802C27.9671 54.5802 28.3096 54.9228 28.3096 55.3453V68.3835C28.3096 68.8061 27.9671 69.1486 27.5445 69.1486H26.7794H26.0143C25.5917 69.1486 25.2491 69.4912 25.2491 69.9138V73.1028C25.2491 73.5254 24.9066 73.8679 24.484 73.8679H22.9538H21.4235H19.1282H18.363H16.0677C15.8564 73.8679 15.6851 73.6966 15.6851 73.4853V65.4413C15.6851 65.3357 15.5994 65.25 15.4938 65.25C15.3881 65.25 15.3025 65.1644 15.3025 65.0587Z" fill="url(#paint1_linear_267_2064)"/>
<path d="M29.0747 68.3834V55.3454C29.0747 54.9228 29.4173 54.5802 29.8399 54.5802C30.2625 54.5802 30.605 54.9228 30.605 55.3453V59.15C30.605 59.5726 30.9476 59.9151 31.3701 59.9151C31.7927 59.9151 32.1352 60.2577 32.1352 60.6802V68.3835C32.1352 68.8061 31.7927 69.1486 31.3701 69.1486H29.8399C29.4173 69.1486 29.0747 68.806 29.0747 68.3834Z" fill="url(#paint2_linear_267_2064)"/>
<path d="M35.9608 69.1486C34.6932 69.1486 33.6655 68.121 33.6655 66.8533V60.6802C33.6655 60.2577 34.0081 59.9151 34.4306 59.9151C34.8532 59.9151 35.1957 59.5726 35.1957 59.15V55.3453C35.1957 54.9228 35.5383 54.5802 35.9608 54.5802C36.3834 54.5802 36.7259 54.9228 36.7259 55.3453C36.7259 55.6027 36.9527 55.8014 37.1637 55.9489C37.3616 56.0872 37.4911 56.3167 37.4911 56.5765V75.5372C37.4911 75.7485 37.3198 75.9198 37.1085 75.9198C36.8972 75.9198 36.7259 75.7485 36.7259 75.5372V68.3835C36.7259 68.8061 36.3834 69.1486 35.9608 69.1486Z" fill="url(#paint3_linear_267_2064)"/>
<path d="M38.2562 75.1547V56.5765C38.2562 56.1539 38.5988 55.8114 39.0213 55.8114H43.6121V40.6119C43.6121 40.4006 43.7834 40.2293 43.9947 40.2293C44.206 40.2293 44.3773 40.4006 44.3773 40.6119V55.8114C44.7999 55.8114 45.1424 55.4688 45.1424 55.0462V40.9945C45.1424 40.5699 45.483 40.2239 45.9075 40.217L46.6726 40.2293H49.7331C50.1557 40.2293 50.4982 40.5719 50.4982 40.9944V63.0486C50.4982 63.4712 50.1557 63.8137 49.7331 63.8137H48.2029C47.9916 63.8137 47.8203 63.985 47.8203 64.1963V71.0232C47.8203 71.2344 47.6491 71.4057 47.4378 71.4057H45.1424C44.7199 71.4057 44.3773 71.0631 44.3773 70.6406V55.8114H43.6121V70.6406C43.6121 71.0631 43.2696 71.4057 42.847 71.4057H41.3168C41.1055 71.4057 40.9342 71.577 40.9342 71.7883V75.5373C40.9342 75.7486 40.763 75.9198 40.5517 75.9198H39.0213C38.5988 75.9198 38.2562 75.5773 38.2562 75.1547Z" fill="url(#paint4_linear_267_2064)"/>
<path d="M51.2634 63.0486V40.9821C51.2634 40.5596 51.606 40.217 52.0285 40.217C52.4511 40.217 52.7936 40.5596 52.7936 40.9821V63.0486C52.7936 63.4712 52.4511 63.8137 52.0285 63.8137C51.606 63.8137 51.2634 63.4712 51.2634 63.0486Z" fill="url(#paint5_linear_267_2064)"/>
<path d="M54.3239 63.0486V40.9821C54.3239 40.5596 54.6665 40.217 55.089 40.217H55.3325C56.0432 40.217 56.6192 39.6409 56.6192 38.9303C56.6192 38.5077 56.9618 38.1651 57.3844 38.1651H59.6797C60.1023 38.1651 60.4449 38.5077 60.4449 38.9302V59.15C60.4449 59.5726 60.1023 59.9151 59.6797 59.9151C58.8346 59.9151 58.1495 60.6002 58.1495 61.4453V63.0486C58.1495 63.4712 57.807 63.8137 57.3844 63.8137H55.089C54.6665 63.8137 54.3239 63.4712 54.3239 63.0486Z" fill="url(#paint6_linear_267_2064)"/>
<path d="M61.21 59.15V38.9302C61.21 38.5077 61.5526 38.1651 61.9751 38.1651H62.7403C63.1628 38.1651 63.5054 38.5077 63.5054 38.9302V59.15C63.5054 59.5726 63.1628 59.9151 62.7403 59.9151H61.9751C61.5526 59.9151 61.21 59.5726 61.21 59.15Z" fill="url(#paint7_linear_267_2064)"/>
<path d="M64.2705 59.15V27.8501C64.2705 27.4275 64.6131 27.085 65.0357 27.085C65.4582 27.085 65.8008 27.4275 65.8008 27.8501V59.15C65.8008 59.5726 65.4582 59.9151 65.0357 59.9151C64.6131 59.9151 64.2705 59.5726 64.2705 59.15Z" fill="url(#paint8_linear_267_2064)"/>
<path d="M66.5659 57.9189V27.8501C66.5659 27.4275 66.9084 27.085 67.331 27.085C67.7536 27.085 68.0962 27.4275 68.0962 27.8501V57.9188C68.0962 58.3414 67.7536 58.684 67.331 58.684C66.9084 58.684 66.5659 58.3414 66.5659 57.9189Z" fill="url(#paint9_linear_267_2064)"/>
<path d="M70.3915 57.9189V24.5671C70.3915 24.1445 70.734 23.8019 71.1566 23.8019H75.7684C78.2922 23.8019 80.3382 21.756 80.3382 19.2322C80.3382 18.8096 80.6807 18.4671 81.1033 18.4671C83.6387 18.4671 85.694 16.4117 85.694 13.8763V5.30717C85.694 5.09589 85.8653 4.92461 86.0766 4.92461C86.2878 4.92461 86.4591 5.09589 86.4591 5.30717V73.4854C86.4591 73.6967 86.2878 73.8679 86.0766 73.8679C85.8653 73.8679 85.694 73.6967 85.694 73.4854C85.694 70.4103 83.2012 67.9175 80.1261 67.9175H76.5125C76.3012 67.9175 76.1299 67.7462 76.1299 67.5349V59.0665C76.1299 58.8552 75.9586 58.684 75.7474 58.684H71.1566C70.734 58.684 70.3915 58.3414 70.3915 57.9189Z" fill="url(#paint10_linear_267_2064)"/>
<path d="M87.2243 73.1028V5.27934C87.2243 4.85679 87.5669 4.51424 87.9894 4.51424H89.5196C89.9422 4.51424 90.2848 4.85682 90.2848 5.27942V73.1027C90.2848 73.5254 89.9422 73.8679 89.5196 73.8679H87.9894C87.5669 73.8679 87.2243 73.5254 87.2243 73.1028Z" fill="url(#paint11_linear_267_2064)"/>
<path d="M91.0499 73.1028V0.765106C91.0499 0.34255 91.3925 0 91.815 0C92.2376 0 92.5801 0.342549 92.5801 0.765106V73.1028C92.5801 73.5254 92.2376 73.8679 91.815 73.8679C91.3925 73.8679 91.0499 73.5254 91.0499 73.1028Z" fill="url(#paint12_linear_267_2064)"/>
<path d="M93.3452 73.1028V0.765175C93.3452 0.342579 93.6878 0 94.1104 0C94.533 0 94.8755 0.342549 94.8755 0.765105V73.1028C94.8755 73.5254 94.533 73.8679 94.1104 73.8679C93.6878 73.8679 93.3452 73.5254 93.3452 73.1028Z" fill="url(#paint13_linear_267_2064)"/>
<path d="M95.6406 73.1028V0.765308C95.6406 0.342747 95.9832 0.000191964 96.4057 0.000191964C96.8283 0.000191964 97.1709 0.342775 97.1709 0.765371V1.25915C97.1709 1.47042 97.3422 1.6417 97.5535 1.6417C97.7648 1.6417 97.936 1.47042 97.936 1.25915V0.765298C97.936 0.342742 98.2786 0.000191964 98.7011 0.000191964C99.1237 0.000191964 99.4662 0.342746 99.4662 0.765307V4.98036C99.4662 5.40292 99.8088 5.74547 100.231 5.74547C100.654 5.74547 100.997 6.08805 100.997 6.51065V9.87706C100.997 10.0883 101.168 10.2596 101.379 10.2596C101.59 10.2596 101.762 10.0883 101.762 9.87706V6.51058C101.762 6.08802 102.104 5.74547 102.527 5.74547C102.949 5.74547 103.292 6.08802 103.292 6.51057V73.1028C103.292 73.5254 102.949 73.8679 102.527 73.8679H96.4057C95.9832 73.8679 95.6406 73.5254 95.6406 73.1028Z" fill="url(#paint14_linear_267_2064)"/>
<path d="M104.057 73.1028V6.51057C104.057 6.08802 104.4 5.74547 104.822 5.74547C105.245 5.74547 105.587 6.08803 105.587 6.5106V23.0368C105.587 23.2328 105.746 23.3916 105.942 23.3916C106.298 23.3916 106.641 23.8019 106.997 23.8019H107.118C107.54 23.8019 107.883 23.4594 107.883 23.0368V15.9492C107.883 15.5266 108.225 15.184 108.648 15.184H109.413C109.835 15.184 110.178 15.5266 110.178 15.9491V73.1028C110.178 73.5254 109.835 73.8679 109.413 73.8679H104.822C104.4 73.8679 104.057 73.5254 104.057 73.1028Z" fill="url(#paint15_linear_267_2064)"/>
<path d="M110.943 73.4854V15.9492C110.943 15.5266 111.286 15.184 111.708 15.184H112.473C112.896 15.184 113.239 15.5266 113.239 15.9492V48.4802C113.239 48.9028 112.896 49.2453 112.473 49.2453C112.051 49.2453 111.708 49.5879 111.708 50.0105V73.4854C111.708 73.6967 111.537 73.8679 111.326 73.8679C111.114 73.8679 110.943 73.6967 110.943 73.4854Z" fill="url(#paint16_linear_267_2064)"/>
<path d="M117.064 49.2453C116.219 49.2453 115.534 48.5602 115.534 47.715V9.38318C115.534 8.96059 115.876 8.618 116.299 8.618H116.654C117.01 8.618 117.398 9.01862 117.635 9.28425C117.756 9.41951 117.829 9.59794 117.829 9.7935V48.4802C117.829 48.9028 117.487 49.2453 117.064 49.2453Z" fill="url(#paint17_linear_267_2064)"/>
<path d="M118.594 48.4802V9.79349C118.594 9.37093 118.937 9.02838 119.359 9.02838H123.185C123.608 9.02838 123.95 9.37094 123.95 9.7935V73.8679H125.481V18.8218C125.481 18.3992 125.823 18.0567 126.246 18.0567H127.776C128.198 18.0567 128.541 18.3992 128.541 18.8218V73.1028C128.541 73.5254 128.198 73.8679 127.776 73.8679H125.481H123.95C123.528 73.8679 123.185 73.5254 123.185 73.1028V53.071C123.185 50.9581 121.472 49.2453 119.359 49.2453C118.937 49.2453 118.594 48.9028 118.594 48.4802Z" fill="url(#paint18_linear_267_2064)"/>
<path d="M129.306 73.1027V13.8973C129.306 13.4747 129.649 13.1322 130.071 13.1322H132.367C132.789 13.1322 133.132 13.4747 133.132 13.8973V73.1027C133.132 73.5254 132.789 73.8679 132.367 73.8679H130.071C129.649 73.8679 129.306 73.5254 129.306 73.1027Z" fill="url(#paint19_linear_267_2064)"/>
<path d="M133.897 73.4854V19.2322C133.897 18.8096 134.239 18.4671 134.662 18.4671H135.427H136.192C136.615 18.4671 136.957 18.8096 136.957 19.2322V73.1028C136.957 73.5254 136.615 73.8679 136.192 73.8679C135.77 73.8679 135.427 73.5254 135.427 73.1028V18.4671H134.662V73.4854C134.662 73.6967 134.491 73.8679 134.279 73.8679C134.068 73.8679 133.897 73.6967 133.897 73.4854Z" fill="url(#paint20_linear_267_2064)"/>
<path d="M137.723 73.1028V29.0812C137.723 28.6586 138.065 28.3161 138.488 28.3161C138.91 28.3161 139.253 28.6586 139.253 29.0812V73.1028C139.253 73.5254 138.91 73.8679 138.488 73.8679C138.065 73.8679 137.723 73.5254 137.723 73.1028Z" fill="url(#paint21_linear_267_2064)"/>
<path d="M140.018 73.1028V29.0813C140.018 28.6587 140.36 28.3161 140.783 28.3161C141.628 28.3161 142.313 27.631 142.313 26.7859V21.6944C142.313 21.2719 142.656 20.9293 143.078 20.9293H146.139C146.561 20.9293 146.904 21.2719 146.904 21.6944V77.2066C146.904 77.6292 146.561 77.9717 146.139 77.9717H143.844C143.421 77.9717 143.078 77.6291 143.078 77.2065V76.1633C143.078 74.8956 142.051 73.8679 140.783 73.8679C140.36 73.8679 140.018 73.5254 140.018 73.1028Z" fill="url(#paint22_linear_267_2064)"/>
<path d="M149.199 77.9717C148.777 77.9717 148.434 77.6291 148.434 77.2066V21.6944C148.434 21.2719 148.777 20.9293 149.199 20.9293C149.622 20.9293 149.965 21.2719 149.965 21.6945V77.2065C149.965 77.6291 149.622 77.9717 149.199 77.9717Z" fill="url(#paint23_linear_267_2064)"/>
<path d="M154.555 77.9717C152.865 77.9717 151.495 76.6015 151.495 74.9112V26.6189C151.495 26.1964 151.837 25.8538 152.26 25.8538H154.91C155.266 25.8538 155.609 26.2642 155.965 26.2642H156.851C157.273 26.2642 157.616 26.6068 157.616 27.0293V65.5109C157.616 65.9334 157.273 66.276 156.851 66.276C156.005 66.276 155.32 66.9611 155.32 67.8063V77.2066C155.32 77.6292 154.978 77.9717 154.555 77.9717Z" fill="url(#paint24_linear_267_2064)"/>
<path d="M158.381 65.5109V34.4161C158.381 33.9935 158.723 33.651 159.146 33.651H159.911C160.334 33.651 160.676 33.9935 160.676 34.4161V65.5109C160.676 65.9334 160.334 66.276 159.911 66.276H159.146C158.723 66.276 158.381 65.9334 158.381 65.5109Z" fill="url(#paint25_linear_267_2064)"/>
<path d="M162.206 65.5109V34.4161C162.206 33.9935 162.549 33.651 162.972 33.651C163.394 33.651 163.737 33.9936 163.737 34.4162V66.276H165.267V22.5152C165.267 22.0926 165.61 21.7501 166.032 21.7501H167.562C167.985 21.7501 168.327 22.0926 168.327 22.5152V72.498C168.327 72.9206 167.985 73.2632 167.562 73.2632H166.797C166.586 73.2632 166.415 73.0919 166.415 72.8806V66.6586C166.415 66.4473 166.243 66.276 166.032 66.276H165.267H163.737H162.972C162.549 66.276 162.206 65.9334 162.206 65.5109Z" fill="url(#paint26_linear_267_2064)"/>
<path d="M169.093 72.4981V22.5152C169.093 22.0926 169.435 21.7501 169.858 21.7501H170.623C171.045 21.7501 171.388 22.0926 171.388 22.5152V72.1155C171.388 72.7493 170.874 73.2632 170.24 73.2632H169.858C169.435 73.2632 169.093 72.9206 169.093 72.4981Z" fill="url(#paint27_linear_267_2064)"/>
<path d="M172.153 72.4981V17.6185C172.153 17.4072 172.324 17.2359 172.536 17.2359C172.747 17.2359 172.918 17.4072 172.918 17.6185V73.2632H173.683V18.001C173.683 17.5785 174.026 17.2359 174.449 17.2359H175.214C175.636 17.2359 175.979 17.5785 175.979 18.001V72.4981C175.979 72.9206 175.636 73.2632 175.214 73.2632H173.683H172.918C172.496 73.2632 172.153 72.9206 172.153 72.4981Z" fill="url(#paint28_linear_267_2064)"/>
<path d="M176.744 72.4981V17.6185C176.744 17.4072 176.915 17.2359 177.126 17.2359C177.338 17.2359 177.509 17.4072 177.509 17.6185V73.2632L178.274 64.2241V17.6185C178.274 17.4072 178.445 17.2359 178.657 17.2359C178.868 17.2359 179.039 17.4072 179.039 17.6185V65.8934C179.039 66.1047 178.868 66.276 178.657 66.276C178.445 66.276 178.274 66.1047 178.274 65.8934V64.2241L177.509 73.2632C177.086 73.2632 176.744 72.9206 176.744 72.4981Z" fill="url(#paint29_linear_267_2064)"/>
<path d="M183.247 66.276C181.768 66.276 180.57 65.077 180.57 63.5981V7.33123C180.57 6.90867 180.912 6.56612 181.335 6.56612H185.16C185.583 6.56612 185.925 6.90867 185.925 7.33123V63.598C185.925 65.077 184.726 66.276 183.247 66.276Z" fill="url(#paint30_linear_267_2064)"/>
<path d="M188.221 65.5109V31.9817C188.221 31.7704 188.392 31.5991 188.603 31.5991C188.815 31.5991 188.986 31.7704 188.986 31.9817C188.986 31.997 188.998 32.0095 189.014 32.0095H190.134C190.767 32.0095 191.281 31.4956 191.281 30.8618V8.59018C191.281 8.37891 191.452 8.20763 191.664 8.20763C191.875 8.20763 192.046 8.37891 192.046 8.59018V31.6269C192.046 31.8382 192.218 32.0095 192.429 32.0095C192.64 32.0095 192.811 31.8382 192.811 31.6269V6.4113C192.811 5.9887 193.154 5.64612 193.577 5.64612C193.999 5.64612 194.342 5.98867 194.342 6.41122V71.2561C194.342 71.6787 193.999 72.0212 193.577 72.0212H191.281C191.07 72.0212 190.899 71.85 190.899 71.6387V66.6585C190.899 66.4472 190.727 66.276 190.516 66.276H188.986C188.563 66.276 188.221 65.9334 188.221 65.5109Z" fill="url(#paint31_linear_267_2064)"/>
<path d="M195.107 71.2561V32.7746C195.107 32.352 195.449 32.0095 195.872 32.0095H197.402C197.825 32.0095 198.167 32.352 198.167 32.7746V41.2047C198.167 42.4724 199.195 43.5 200.463 43.5C200.885 43.5 201.228 43.8426 201.228 44.2652V66.6653C201.228 69.6233 198.83 72.0212 195.872 72.0212C195.449 72.0212 195.107 71.6787 195.107 71.2561Z" fill="url(#paint32_linear_267_2064)"/>
<path d="M202.758 71.2561V49.1897C202.758 48.7671 203.101 48.4246 203.523 48.4246C203.946 48.4246 204.288 48.7671 204.288 49.1897V71.2561C204.288 71.6787 203.946 72.0212 203.523 72.0212C203.101 72.0212 202.758 71.6787 202.758 71.2561Z" fill="url(#paint33_linear_267_2064)"/>
<path d="M205.819 71.8299V45.9067C205.819 45.4841 206.161 45.1415 206.584 45.1415H207.349C207.771 45.1415 208.114 45.4841 208.114 45.9067V74.9495C208.114 75.3721 207.771 75.7146 207.349 75.7146H206.584C206.372 75.7146 206.201 75.5433 206.201 75.332V72.2125C206.201 72.1069 206.116 72.0212 206.01 72.0212C205.904 72.0212 205.819 71.9356 205.819 71.8299Z" fill="url(#paint34_linear_267_2064)"/>
<path d="M208.879 74.9495V40.5718C208.879 40.1492 209.222 39.8066 209.644 39.8066H210.409C210.832 39.8066 211.174 40.1492 211.174 40.5718V74.9495C211.174 75.3721 210.832 75.7146 210.409 75.7146H209.644C209.222 75.7146 208.879 75.3721 208.879 74.9495Z" fill="url(#paint35_linear_267_2064)"/>
<path d="M213.47 75.7146C213.047 75.7146 212.705 75.3721 212.705 74.9495V40.5718C212.705 40.1492 213.047 39.8066 213.47 39.8066C213.892 39.8066 214.235 40.1492 214.235 40.5718V74.9495C214.235 75.3721 213.892 75.7146 213.47 75.7146Z" fill="url(#paint36_linear_267_2064)"/>
<path d="M216.53 74.9494V18.0011C216.53 17.5785 216.873 17.2359 217.295 17.2359H218.061C218.483 17.2359 218.826 17.5785 218.826 18.001V74.9495C218.826 75.3721 218.483 75.7146 218.061 75.7146H217.295C216.873 75.7146 216.53 75.372 216.53 74.9494Z" fill="url(#paint37_linear_267_2064)"/>
<path d="M220.356 74.9495V18.001C220.356 17.5785 220.699 17.2359 221.121 17.2359H223.416C223.839 17.2359 224.182 17.5785 224.182 18.0011V66.1264C224.182 66.549 223.839 66.8915 223.416 66.8915H222.651C222.44 66.8915 222.269 67.0628 222.269 67.274V75.332C222.269 75.5433 222.097 75.7146 221.886 75.7146H221.121C220.699 75.7146 220.356 75.3721 220.356 74.9495Z" fill="url(#paint38_linear_267_2064)"/>
<path d="M224.948 66.1264L225.017 6.41122C225.017 6.01292 225.321 5.6859 225.71 5.64949C225.711 5.6494 225.712 5.64863 225.712 5.64771C225.712 5.64672 225.713 5.64593 225.714 5.64593H230.303C230.725 5.64593 231.068 5.98847 231.068 6.41103V10.3498C231.068 14.1529 234.151 17.2359 237.954 17.2359C238.376 17.2359 238.719 17.5785 238.719 18.001V64.2241H240.249V27.8501C240.249 27.4275 240.592 27.085 241.014 27.085H243.31C243.732 27.085 244.075 27.4275 244.075 27.8501V63.459C244.075 63.8815 243.732 64.2241 243.31 64.2241H240.249H238.719C237.029 64.2241 235.658 65.5943 235.658 67.2846V75.6931C235.658 76.1157 235.316 76.4582 234.893 76.4582H228.772C228.35 76.4582 228.007 76.1157 228.007 75.6931V69.1869C228.007 67.9192 226.98 66.8915 225.712 66.8915C225.289 66.8915 224.947 66.5488 224.948 66.1264Z" fill="url(#paint39_linear_267_2064)"/>
<path d="M244.84 63.8415V56.5765C244.84 55.9127 245.605 55.2733 245.605 54.6095V27.8501C245.605 27.4275 245.948 27.085 246.37 27.085C246.793 27.085 247.135 27.4275 247.135 27.8501V75.9972C247.135 76.4198 246.793 76.7623 246.37 76.7623C245.948 76.7623 245.605 76.4198 245.605 75.9972V64.6066C245.605 64.3954 245.434 64.2241 245.222 64.2241C245.011 64.2241 244.84 64.0528 244.84 63.8415Z" fill="url(#paint40_linear_267_2064)"/>
<path d="M249.431 27.4676V75.9971C249.431 76.661 250.196 76.2242 250.196 75.5603V27.4676C250.196 27.2563 250.025 27.085 249.813 27.085C249.602 27.085 249.431 27.2563 249.431 27.4676Z" fill="url(#paint41_linear_267_2064)"/>
<path d="M252.491 18.8496V76.571C252.491 76.6767 252.577 76.7623 252.682 76.7623C252.788 76.7623 252.874 76.6767 252.874 76.571V51.6797C252.874 51.3479 253.256 51.0282 253.256 50.6963V18.8496C253.256 18.6383 253.085 18.4671 252.874 18.4671C252.662 18.4671 252.491 18.6383 252.491 18.8496Z" fill="url(#paint42_linear_267_2064)"/>
<path d="M257.847 16.7699C257.847 16.1061 257.082 16.5429 257.082 17.2067V50.9147C257.082 51.1259 257.253 51.2972 257.465 51.2972C257.676 51.2972 257.847 51.1259 257.847 50.9147V16.7699Z" fill="url(#paint43_linear_267_2064)"/>
<path d="M258.612 50.5321V12.2558C258.612 11.8332 258.955 11.4906 259.377 11.4906H260.142C260.565 11.4906 260.908 11.8332 260.908 12.2558V50.532C260.908 50.9546 260.565 51.2972 260.142 51.2972H259.377C258.955 51.2972 258.612 50.9547 258.612 50.5321Z" fill="url(#paint44_linear_267_2064)"/>
<path d="M261.673 50.5321V9.38311C261.673 8.96056 262.015 8.618 262.438 8.618H263.968C264.391 8.618 264.733 8.96056 264.733 9.38311V51.2972H266.263V9.38318C266.263 8.96059 266.606 8.618 267.029 8.618H267.794C268.216 8.618 268.559 8.96056 268.559 9.38311V13.7094C268.559 14.9771 269.586 16.0048 270.854 16.0048C271.277 16.0048 271.619 16.3473 271.619 16.7699C271.619 17.7072 272.379 18.4671 273.316 18.4671H273.915C274.337 18.4671 274.68 18.8096 274.68 19.2322V26.7038C274.68 27.3676 275.445 28.007 275.445 28.6708V75.6931C275.445 76.1157 275.102 76.4582 274.68 76.4582C274.257 76.4582 273.915 76.1157 273.915 75.6931V62.1932C273.915 59.2352 271.517 56.8373 268.559 56.8373C268.347 56.8373 268.176 56.666 268.176 56.4547V51.6797C268.176 51.4685 268.005 51.2972 267.794 51.2972H266.263H264.733H262.438C262.015 51.2972 261.673 50.9547 261.673 50.5321Z" fill="url(#paint45_linear_267_2064)"/>
<path d="M276.21 75.6931V28.6708C276.21 28.2483 276.553 27.9057 276.975 27.9057H279.271C279.693 27.9057 280.036 28.2483 280.036 28.6708V75.6931C280.036 76.1157 279.693 76.4582 279.271 76.4582H276.975C276.553 76.4582 276.21 76.1157 276.21 75.6931Z" fill="url(#paint46_linear_267_2064)"/>
<path d="M281.566 36.9062V75.2564C281.566 75.9201 280.801 76.3569 280.801 75.6931V36.9062C280.801 36.6949 280.972 36.5236 281.183 36.5236C281.395 36.5236 281.566 36.6949 281.566 36.9062Z" fill="url(#paint47_linear_267_2064)"/>
<path d="M283.096 75.6931V18.5191C283.096 18.0965 283.439 17.754 283.861 17.754C284.284 17.754 284.626 17.4114 284.626 16.9888V6.00751C284.626 5.58495 284.969 5.2424 285.392 5.2424H289.217C289.64 5.2424 289.982 5.58495 289.982 6.00751V8.17066C289.982 8.59323 290.325 8.9358 290.747 8.9358C291.17 8.9358 291.513 9.27835 291.513 9.7009V55.2514C291.513 55.674 291.17 56.0165 290.747 56.0165H289.982C289.771 56.0165 289.6 56.1878 289.6 56.3991V76.0757C289.6 76.287 289.428 76.4582 289.217 76.4582H283.861C283.439 76.4582 283.096 76.1157 283.096 75.6931Z" fill="url(#paint48_linear_267_2064)"/>
<path d="M292.278 55.2514V9.7009C292.278 9.27835 292.62 8.9358 293.043 8.9358H295.338C295.761 8.9358 296.103 9.27835 296.103 9.7009V55.2514C296.103 55.674 295.761 56.0165 295.338 56.0165H293.043C292.62 56.0165 292.278 55.674 292.278 55.2514Z" fill="url(#paint49_linear_267_2064)"/>
<path d="M298.399 55.2514V23.1321C298.399 21.8644 299.426 20.8367 300.694 20.8367C301.117 20.8367 301.459 21.1793 301.459 21.6018V64.6901C301.459 65.1127 301.117 65.4552 300.694 65.4552C300.483 65.4552 300.312 65.284 300.312 65.0727V56.3991C300.312 56.1878 300.14 56.0165 299.929 56.0165H299.164C298.741 56.0165 298.399 55.674 298.399 55.2514Z" fill="url(#paint50_linear_267_2064)"/>
<path d="M302.224 64.6901V21.6018C302.224 21.1793 302.567 20.8367 302.989 20.8367C303.412 20.8367 303.755 21.1793 303.755 21.6018V64.6901C303.755 65.1127 303.412 65.4552 302.989 65.4552C302.567 65.4552 302.224 65.1126 302.224 64.6901Z" fill="url(#paint51_linear_267_2064)"/>
<path d="M305.285 64.69V21.6019C305.285 21.1793 305.627 20.8367 306.05 20.8367C306.473 20.8367 306.815 21.1793 306.815 21.6018V75.9337C306.815 76.0394 306.729 76.125 306.624 76.125C306.518 76.125 306.432 76.0394 306.432 75.9337V65.8377C306.432 65.6265 306.261 65.4552 306.05 65.4552C305.627 65.4552 305.285 65.1126 305.285 64.69Z" fill="url(#paint52_linear_267_2064)"/>
<path d="M308.345 75.3599V21.6018C308.345 21.1793 308.688 20.8367 309.11 20.8367C309.533 20.8367 309.876 21.1793 309.876 21.6019V75.3598C309.876 75.7824 309.533 76.125 309.11 76.125C308.688 76.125 308.345 75.7825 308.345 75.3599Z" fill="url(#paint53_linear_267_2064)"/>
<path d="M310.641 75.7424V21.4276C310.641 21.0051 310.983 20.6625 311.406 20.6625C311.828 20.6625 312.171 21.0051 312.171 21.4276V74.9774C312.171 75.6112 311.657 76.125 311.023 76.125C310.812 76.125 310.641 75.9537 310.641 75.7424Z" fill="url(#paint54_linear_267_2064)"/>
<path d="M312.936 75.3599V9.10535C312.936 8.68278 313.279 8.34023 313.701 8.34023H317.527C317.949 8.34023 318.292 8.68278 318.292 9.10535V69.1633C318.292 69.4952 317.909 69.8148 317.909 70.1467V75.7424C317.909 75.9537 317.738 76.125 317.527 76.125H313.701C313.279 76.125 312.936 75.7825 312.936 75.3599Z" fill="url(#paint55_linear_267_2064)"/>
<path d="M319.822 68.999V55.3454C319.822 54.9228 320.165 54.5802 320.587 54.5802C321.855 54.5802 322.883 53.5526 322.883 52.2848V23.2526C322.883 23.057 322.956 22.8786 323.077 22.7433C323.314 22.4777 323.702 22.0771 324.058 22.0771H327.473C327.896 22.0771 328.238 22.4196 328.238 22.8422V63.459C328.238 63.8815 327.896 64.2241 327.473 64.2241H325.943C325.732 64.2241 325.561 64.3954 325.561 64.6066V69.3816C325.561 69.5929 325.389 69.7642 325.178 69.7642H320.587C320.165 69.7642 319.822 69.4216 319.822 68.999Z" fill="url(#paint56_linear_267_2064)"/>
<path d="M329.004 63.4589V29.6551C329.004 29.2325 329.346 28.8899 329.769 28.8899C330.191 28.8899 330.534 29.2325 330.534 29.6551V63.459C330.534 63.8815 330.191 64.2241 329.769 64.2241C329.346 64.2241 329.004 63.8815 329.004 63.4589Z" fill="url(#paint57_linear_267_2064)"/>
<path d="M331.299 63.459V27.1928C331.299 26.7702 331.642 26.4277 332.064 26.4277C332.487 26.4277 332.829 26.7702 332.829 27.1928V63.459C332.829 63.8815 332.487 64.2241 332.064 64.2241C331.642 64.2241 331.299 63.8815 331.299 63.459Z" fill="url(#paint58_linear_267_2064)"/>
<path d="M333.594 63.459V27.1928C333.594 26.7702 333.937 26.4277 334.359 26.4277H335.125C335.547 26.4277 335.89 26.7702 335.89 27.1928V81.0495H336.655V22.6786C336.655 22.2561 336.997 21.9135 337.42 21.9135C337.843 21.9135 338.185 22.2561 338.185 22.6787V80.2844C338.185 80.707 337.843 81.0495 337.42 81.0495H336.655H335.89C335.678 81.0495 335.507 80.8783 335.507 80.667V64.6067C335.507 64.3954 335.336 64.2241 335.125 64.2241H334.359C333.937 64.2241 333.594 63.8815 333.594 63.459Z" fill="url(#paint59_linear_267_2064)"/>
<path d="M339.715 80.2844V22.6787C339.715 22.2561 340.058 21.9135 340.48 21.9135C340.903 21.9135 341.246 22.2561 341.246 22.6787V80.2844C341.246 80.707 340.903 81.0495 340.48 81.0495C340.058 81.0495 339.715 80.707 339.715 80.2844Z" fill="url(#paint60_linear_267_2064)"/>
<path d="M344.306 81.0495C343.461 81.0495 342.776 80.3644 342.776 79.5193V31.9539C342.776 31.5313 343.118 31.1887 343.541 31.1887C343.964 31.1887 344.306 31.5313 344.306 31.9538V81.0495H345.836V31.9539C345.836 31.5313 346.179 31.1887 346.601 31.1887H347.367C347.789 31.1887 348.132 31.5313 348.132 31.9539V75.9754C348.132 76.398 347.789 76.7406 347.367 76.7406C347.155 76.7406 346.984 76.9119 346.984 77.1232V80.667C346.984 80.8783 346.813 81.0495 346.601 81.0495H345.836H344.306Z" fill="url(#paint61_linear_267_2064)"/>
<path d="M349.662 75.9754V35.2369C349.662 34.8143 350.005 34.4717 350.427 34.4717H354.253C354.675 34.4717 355.018 34.8143 355.018 35.2369V75.9754C355.018 76.398 354.675 76.7406 354.253 76.7406H350.427C350.005 76.7406 349.662 76.398 349.662 75.9754Z" fill="url(#paint62_linear_267_2064)"/>
<path d="M355.789 75.9755L356.076 39.5164C356.079 39.0929 356.423 38.7513 356.847 38.7513C358.537 38.7513 359.907 37.3811 359.907 35.6908V29.2571C359.907 28.8345 360.25 28.4919 360.673 28.4919H361.792C362.148 28.4919 362.491 28.9023 362.847 28.9023H362.968C363.39 28.9023 363.733 28.5597 363.733 28.1372V23.9222C363.733 23.4996 364.076 23.157 364.498 23.157H365.263C365.685 23.157 366.026 23.5003 366.024 23.9221L365.734 72.0769C365.732 72.5002 365.388 72.842 364.964 72.842H361.904C361.693 72.842 361.521 72.6707 361.521 72.4594V63.3755C361.521 63.1642 361.35 62.993 361.139 62.993C359.449 62.993 358.078 64.3632 358.078 66.0535V75.9755C358.078 76.398 357.736 76.7406 357.313 76.7406H356.548C356.126 76.7406 355.786 76.3971 355.789 75.9755Z" fill="url(#paint63_linear_267_2064)"/>
<path d="M366.499 72.0768L366.789 23.9222C366.791 23.4988 367.135 23.157 367.559 23.157C367.98 23.157 368.322 23.5003 368.319 23.9221L368.03 72.0769C368.027 72.5002 367.683 72.842 367.26 72.842C366.838 72.842 366.497 72.4987 366.499 72.0768Z" fill="url(#paint64_linear_267_2064)"/>
<path d="M368.795 72.0769L369.084 28.8466C369.087 28.4233 369.431 28.0815 369.854 28.0815H371.384C371.806 28.0815 372.147 28.4249 372.144 28.8466L371.856 72.0769C371.853 72.5003 371.509 72.842 371.085 72.842H369.555C369.133 72.842 368.792 72.4986 368.795 72.0769Z" fill="url(#paint65_linear_267_2064)"/>
<path d="M373.385 72.0769L373.675 19.408C373.678 18.9847 374.022 18.6429 374.445 18.6429H375.21C375.632 18.6429 375.973 18.986 375.971 19.4079L375.678 77.3849C375.677 77.596 375.506 77.7665 375.295 77.7665C375.083 77.7665 374.911 77.5948 374.911 77.383V73.6071C374.911 73.1846 374.569 72.842 374.146 72.842C373.724 72.842 373.383 72.4987 373.385 72.0769Z" fill="url(#paint66_linear_267_2064)"/>
<path d="M376.445 77.0014L376.736 19.4079C376.738 18.9848 377.082 18.6429 377.505 18.6429H382.096C382.518 18.6429 382.859 18.986 382.857 19.4079L382.566 77.0014C382.564 77.4246 382.22 77.7665 381.797 77.7665H377.206C376.784 77.7665 376.443 77.4233 376.445 77.0014Z" fill="url(#paint67_linear_267_2064)"/>
<path d="M384.097 77.0014L384.387 25.974C384.389 25.5507 384.733 25.2089 385.157 25.2089H385.922C386.343 25.2089 386.685 25.5521 386.682 25.974L386.392 77.0014C386.39 77.4247 386.046 77.7665 385.623 77.7665H384.858C384.436 77.7665 384.095 77.4233 384.097 77.0014Z" fill="url(#paint68_linear_267_2064)"/>
<path d="M387.157 77.0014L387.448 25.974C387.45 25.5508 387.794 25.2089 388.217 25.2089H388.982C389.404 25.2089 389.745 25.5521 389.743 25.974L389.453 77.0014C389.45 77.4247 389.107 77.7665 388.683 77.7665H387.918C387.496 77.7665 387.155 77.4232 387.157 77.0014Z" fill="url(#paint69_linear_267_2064)"/>
<path d="M390.984 77.0014L391.272 34.5919C391.275 34.1685 391.619 33.8268 392.043 33.8268H392.808C393.229 33.8268 393.57 34.1702 393.568 34.5919L393.279 77.0014C393.276 77.4248 392.932 77.7665 392.509 77.7665H391.744C391.322 77.7665 390.981 77.4231 390.984 77.0014Z" fill="url(#paint70_linear_267_2064)"/>
<path d="M394.044 77.0014L394.333 34.5919C394.336 34.1685 394.68 33.8268 395.103 33.8268C395.525 33.8268 395.866 34.1701 395.863 34.5919L395.573 80.4486C395.571 80.7811 395.187 80.9995 395.187 80.667V78.1491C395.187 77.9378 395.016 77.7665 394.804 77.7665C394.383 77.7665 394.042 77.4231 394.044 77.0014Z" fill="url(#paint71_linear_267_2064)"/>
<path d="M399.395 80.2844V32.3642C399.395 31.9416 399.738 31.5991 400.16 31.5991H403.986C404.408 31.5991 404.751 31.9417 404.751 32.3643V86.8087C404.751 86.9144 404.665 87 404.56 87C404.454 87 404.368 86.9144 404.368 86.8087V80.201C404.368 79.9897 404.197 79.8184 403.986 79.8184H402.037C402.024 79.8184 402.011 79.8032 401.998 79.8032H400.949C400.936 79.8032 400.923 79.8184 400.91 79.8184H400.734C400.628 79.8184 400.543 79.904 400.543 80.0097V80.6669C400.543 80.8782 400.371 81.0495 400.16 81.0495C399.738 81.0495 399.395 80.707 399.395 80.2844Z" fill="url(#paint72_linear_267_2064)"/>
<path d="M405.516 86.2349V22.5152C405.516 22.0926 405.859 21.7501 406.281 21.7501H407.811C408.234 21.7501 408.577 22.0926 408.577 22.5152V22.7377C408.577 24.0054 409.604 25.0331 410.872 25.0331C411.294 25.0331 411.637 25.3757 411.637 25.7983V86.2348C411.637 86.6574 411.294 87 410.872 87H406.281C405.859 87 405.516 86.6574 405.516 86.2349Z" fill="url(#paint73_linear_267_2064)"/>
<path d="M412.402 86.2349V28.6708C412.402 28.2483 412.745 27.9057 413.167 27.9057H413.932C414.355 27.9057 414.698 28.2483 414.698 28.6708V86.2349C414.698 86.6574 414.355 87 413.932 87H413.167C412.745 87 412.402 86.6574 412.402 86.2349Z" fill="url(#paint74_linear_267_2064)"/>
<path d="M416.228 80.2844V36.0576C416.228 35.6351 416.57 35.2925 416.993 35.2925H419.288C419.711 35.2925 420.053 35.6351 420.053 36.0576V77.0014C420.053 77.424 419.711 77.7665 419.288 77.7665C419.077 77.7665 418.906 77.9378 418.906 78.1491V80.667C418.906 80.8783 418.734 81.0495 418.523 81.0495H416.993C416.57 81.0495 416.228 80.707 416.228 80.2844Z" fill="url(#paint75_linear_267_2064)"/>
<path d="M420.818 77.0013V36.0577C420.818 35.3938 421.584 34.7543 421.584 34.0905V27.0293C421.584 26.6068 421.926 26.2642 422.349 26.2642C424.039 26.2642 425.409 24.894 425.409 23.2037V19.2321C425.409 18.8096 425.752 18.4671 426.174 18.4671C426.597 18.4671 426.94 18.8096 426.94 19.2322V72.4107C426.94 75.3686 424.542 77.7665 421.584 77.7665C421.161 77.7665 420.818 77.4239 420.818 77.0013Z" fill="url(#paint76_linear_267_2064)"/>
<path d="M428.47 77.0014V19.2322C428.47 18.8096 428.812 18.4671 429.235 18.4671C429.657 18.4671 430 18.8096 430 19.2321V77.0014C430 77.424 429.657 77.7665 429.235 77.7665C428.812 77.7665 428.47 77.424 428.47 77.0014Z" fill="url(#paint77_linear_267_2064)"/>
<path d="M0 42.9312C0 41.5706 1.10297 40.4676 2.46354 40.4676C3.82412 40.4676 4.92708 41.5706 4.92708 42.9312V50.0236C4.92708 51.9566 6.49409 53.5236 8.42708 53.5236H12.4757C14.4087 53.5236 15.9757 55.0906 15.9757 57.0236V63.767C15.9757 65.7 17.5427 67.267 19.4757 67.267H22.1806C24.1136 67.267 25.6806 65.7 25.6806 63.767V54.733C25.6806 52.8 27.2476 51.233 29.1806 51.233H33.2292C35.1622 51.233 36.7292 52.8 36.7292 54.733V68.455C36.7292 69.6061 37.6623 70.5393 38.8135 70.5393C39.9646 70.5393 40.8978 69.6061 40.8978 68.455V66.7803C40.8978 64.8805 42.4379 63.3403 44.3378 63.3403C46.2376 63.3403 47.7778 61.8002 47.7778 59.9003V54.733C47.7778 52.8 49.3448 51.233 51.2778 51.233H54.9891C56.706 51.233 58.0978 49.8412 58.0978 48.1243C58.0978 46.4075 59.4896 45.0157 61.2064 45.0157H63.0067C64.9397 45.0157 66.5067 43.4487 66.5067 41.5157V31.6619C66.5067 29.7289 68.0737 28.1619 70.0067 28.1619H73.0938C75.0267 28.1619 76.5938 29.7289 76.5938 31.6619V65.774C76.5938 66.5985 77.2622 67.267 78.0868 67.267C78.9114 67.267 79.5799 66.5985 79.5799 65.774V31.1428C79.5799 29.4839 80.9014 28.127 82.5597 28.0831C84.2812 28.0376 85.7014 29.4207 85.7014 31.1428V63.767C85.7014 65.7 87.2684 67.267 89.2014 67.267H91.6076C93.5406 67.267 95.1076 65.7 95.1076 63.767V54.4767C95.1076 52.91 96.3777 51.6399 97.9444 51.6399C99.5112 51.6399 100.781 52.91 100.781 54.4767V63.767C100.781 65.7 102.348 67.267 104.281 67.267H108.109C110.042 67.267 111.609 65.7 111.609 63.767V31.5C111.609 29.567 113.176 28 115.109 28H119.677C121.61 28 123.177 29.567 123.177 31.5V63.767C123.177 65.7 124.744 67.267 126.677 67.267H130.655C132.462 67.267 133.927 68.7321 133.927 70.5393C133.927 72.3465 135.392 73.8115 137.199 73.8115H151.682C153.615 73.8115 155.182 72.2445 155.182 70.3115V58.6597C155.182 56.7267 156.749 55.1597 158.682 55.1597H162.767C164.7 55.1597 166.267 56.7267 166.267 58.6597V70.3115C166.267 72.2445 167.834 73.8115 169.767 73.8115H174.174C176.107 73.8115 177.674 72.2445 177.674 70.3115V58.6597C177.674 56.7267 179.241 55.1597 181.174 55.1597H187.163C189.096 55.1597 190.663 56.7267 190.663 58.6597V60.8468C190.663 62.7701 192.215 64.333 194.138 64.3467L203.162 64.4109C204.756 64.4222 206.042 65.7175 206.042 67.3114C206.042 68.9134 207.34 70.212 208.942 70.212H218.571C220.504 70.212 222.071 68.645 222.071 66.712V59.0259C222.071 57.4328 223.363 56.1414 224.956 56.1414C226.549 56.1414 227.84 57.4328 227.84 59.0259V68.0557C227.84 69.9887 229.407 71.5557 231.34 71.5557H231.949C233.882 71.5557 235.449 69.9887 235.449 68.0557V55.3874C235.449 53.4544 237.016 51.8874 238.949 51.8874H241.887C243.82 51.8874 245.387 53.4544 245.387 55.3874V68.5415C245.387 70.4744 246.954 72.0415 248.887 72.0415H249.149C251.082 72.0415 252.649 70.4745 252.649 68.5415V34.7723C252.649 32.8393 254.216 31.2723 256.149 31.2723H264.354C266.287 31.2723 267.854 32.8393 267.854 34.7723V37.2705C267.854 38.8372 269.124 40.1073 270.691 40.1073C272.258 40.1073 273.528 41.3774 273.528 42.9441V67.8938C273.528 69.8268 275.095 71.3938 277.028 71.3938H285.842C287.775 71.3938 289.342 69.8268 289.342 67.8938V42.2984C289.342 40.3654 290.909 38.7984 292.842 38.7984H296.455C298.388 38.7984 299.955 40.3654 299.955 42.2984V50.79C299.955 52.4804 301.325 53.8508 303.016 53.8508C304.706 53.8508 306.076 55.2211 306.076 56.9115V67.3665C306.076 69.2995 307.643 70.8665 309.576 70.8665H314.127C316.06 70.8665 317.627 69.2995 317.627 67.3665V55.3874C317.627 53.4544 319.194 51.8874 321.127 51.8874H331.542C333.475 51.8874 335.042 53.4544 335.042 55.3874V75.2199C335.042 77.1529 336.609 78.7199 338.542 78.7199H343.24C345.137 78.7199 346.676 77.1816 346.676 75.284C346.676 73.3865 348.214 71.8482 350.111 71.8482H354.26C356.193 71.8482 357.76 70.2812 357.76 68.3482V65.5999C357.76 63.8814 359.153 62.4883 360.872 62.4883H370.809C372.742 62.4883 374.309 64.0553 374.309 65.9883V69.9843C374.309 71.9173 375.876 73.4843 377.809 73.4843H391.847C393.293 73.4843 394.465 74.6563 394.465 76.1021C394.465 77.5479 395.637 78.7199 397.083 78.7199H397.326C398.906 78.7199 400.187 77.4391 400.187 75.8592V51.6919C400.187 50.7155 400.978 49.9241 401.954 49.9241C402.931 49.9241 403.722 50.7156 403.722 51.6919V84.7094C403.722 86.6424 405.289 88.2094 407.222 88.2094H412.358C414.291 88.2094 415.858 86.6424 415.858 84.7094V76.9843C415.858 75.0513 417.425 73.4843 419.358 73.4843H423.215C425.148 73.4843 426.715 71.9173 426.715 69.9843V58.1398C426.715 57.2327 427.451 56.4974 428.358 56.4974C429.265 56.4974 430 57.2327 430 58.1398V149.5C430 151.433 428.433 153 426.5 153H3.50001C1.56701 153 0 151.433 0 149.5V42.9312Z" fill="url(#paint78_linear_267_2064)"/>
<defs>
<linearGradient id="paint0_linear_267_2064" x1="216.945" y1="207.369" x2="214.184" y2="-124.899" gradientUnits="userSpaceOnUse">
<stop stop-color="#202C32"/>
<stop offset="0.665" stop-color="#D7C796"/>
</linearGradient>
<linearGradient id="paint1_linear_267_2064" x1="216.945" y1="207.369" x2="214.184" y2="-124.899" gradientUnits="userSpaceOnUse">
<stop stop-color="#202C32"/>
<stop offset="0.665" stop-color="#D7C796"/>
</linearGradient>
<linearGradient id="paint2_linear_267_2064" x1="216.945" y1="207.369" x2="214.184" y2="-124.899" gradientUnits="userSpaceOnUse">
<stop stop-color="#202C32"/>
<stop offset="0.665" stop-color="#D7C796"/>
</linearGradient>
<linearGradient id="paint3_linear_267_2064" x1="216.945" y1="207.369" x2="214.184" y2="-124.899" gradientUnits="userSpaceOnUse">
<stop stop-color="#202C32"/>
<stop offset="0.665" stop-color="#D7C796"/>
</linearGradient>
<linearGradient id="paint4_linear_267_2064" x1="216.945" y1="207.369" x2="214.184" y2="-124.899" gradientUnits="userSpaceOnUse">
<stop stop-color="#202C32"/>
<stop offset="0.665" stop-color="#D7C796"/>
</linearGradient>
<linearGradient id="paint5_linear_267_2064" x1="216.945" y1="207.369" x2="214.184" y2="-124.899" gradientUnits="userSpaceOnUse">
<stop stop-color="#202C32"/>
<stop offset="0.665" stop-color="#D7C796"/>
</linearGradient>
<linearGradient id="paint6_linear_267_2064" x1="216.945" y1="207.369" x2="214.184" y2="-124.899" gradientUnits="userSpaceOnUse">
<stop stop-color="#202C32"/>
<stop offset="0.665" stop-color="#D7C796"/>
</linearGradient>
<linearGradient id="paint7_linear_267_2064" x1="216.945" y1="207.369" x2="214.184" y2="-124.899" gradientUnits="userSpaceOnUse">
<stop stop-color="#202C32"/>
<stop offset="0.665" stop-color="#D7C796"/>
</linearGradient>
<linearGradient id="paint8_linear_267_2064" x1="216.945" y1="207.369" x2="214.184" y2="-124.899" gradientUnits="userSpaceOnUse">
<stop stop-color="#202C32"/>
<stop offset="0.665" stop-color="#D7C796"/>
</linearGradient>
<linearGradient id="paint9_linear_267_2064" x1="216.945" y1="207.369" x2="214.184" y2="-124.899" gradientUnits="userSpaceOnUse">
<stop stop-color="#202C32"/>
<stop offset="0.665" stop-color="#D7C796"/>
</linearGradient>
<linearGradient id="paint10_linear_267_2064" x1="216.945" y1="207.369" x2="214.184" y2="-124.899" gradientUnits="userSpaceOnUse">
<stop stop-color="#202C32"/>
<stop offset="0.665" stop-color="#D7C796"/>
</linearGradient>
<linearGradient id="paint11_linear_267_2064" x1="216.945" y1="207.369" x2="214.184" y2="-124.899" gradientUnits="userSpaceOnUse">
<stop stop-color="#202C32"/>
<stop offset="0.665" stop-color="#D7C796"/>
</linearGradient>
<linearGradient id="paint12_linear_267_2064" x1="216.945" y1="207.369" x2="214.184" y2="-124.899" gradientUnits="userSpaceOnUse">
<stop stop-color="#202C32"/>
<stop offset="0.665" stop-color="#D7C796"/>
</linearGradient>
<linearGradient id="paint13_linear_267_2064" x1="216.945" y1="207.369" x2="214.184" y2="-124.899" gradientUnits="userSpaceOnUse">
<stop stop-color="#202C32"/>
<stop offset="0.665" stop-color="#D7C796"/>
</linearGradient>
<linearGradient id="paint14_linear_267_2064" x1="216.945" y1="207.369" x2="214.184" y2="-124.899" gradientUnits="userSpaceOnUse">
<stop stop-color="#202C32"/>
<stop offset="0.665" stop-color="#D7C796"/>
</linearGradient>
<linearGradient id="paint15_linear_267_2064" x1="216.945" y1="207.369" x2="214.184" y2="-124.899" gradientUnits="userSpaceOnUse">
<stop stop-color="#202C32"/>
<stop offset="0.665" stop-color="#D7C796"/>
</linearGradient>
<linearGradient id="paint16_linear_267_2064" x1="216.945" y1="207.369" x2="214.184" y2="-124.899" gradientUnits="userSpaceOnUse">
<stop stop-color="#202C32"/>
<stop offset="0.665" stop-color="#D7C796"/>
</linearGradient>
<linearGradient id="paint17_linear_267_2064" x1="216.945" y1="207.369" x2="214.184" y2="-124.899" gradientUnits="userSpaceOnUse">
<stop stop-color="#202C32"/>
<stop offset="0.665" stop-color="#D7C796"/>
</linearGradient>
<linearGradient id="paint18_linear_267_2064" x1="216.945" y1="207.369" x2="214.184" y2="-124.899" gradientUnits="userSpaceOnUse">
<stop stop-color="#202C32"/>
<stop offset="0.665" stop-color="#D7C796"/>
</linearGradient>
<linearGradient id="paint19_linear_267_2064" x1="216.945" y1="207.369" x2="214.184" y2="-124.899" gradientUnits="userSpaceOnUse">
<stop stop-color="#202C32"/>
<stop offset="0.665" stop-color="#D7C796"/>
</linearGradient>
<linearGradient id="paint20_linear_267_2064" x1="216.945" y1="207.369" x2="214.184" y2="-124.899" gradientUnits="userSpaceOnUse">
<stop stop-color="#202C32"/>
<stop offset="0.665" stop-color="#D7C796"/>
</linearGradient>
<linearGradient id="paint21_linear_267_2064" x1="216.945" y1="207.369" x2="214.184" y2="-124.899" gradientUnits="userSpaceOnUse">
<stop stop-color="#202C32"/>
<stop offset="0.665" stop-color="#D7C796"/>
</linearGradient>
<linearGradient id="paint22_linear_267_2064" x1="216.945" y1="207.369" x2="214.184" y2="-124.899" gradientUnits="userSpaceOnUse">
<stop stop-color="#202C32"/>
<stop offset="0.665" stop-color="#D7C796"/>
</linearGradient>
<linearGradient id="paint23_linear_267_2064" x1="216.945" y1="207.369" x2="214.184" y2="-124.899" gradientUnits="userSpaceOnUse">
<stop stop-color="#202C32"/>
<stop offset="0.665" stop-color="#D7C796"/>
</linearGradient>
<linearGradient id="paint24_linear_267_2064" x1="216.945" y1="207.369" x2="214.184" y2="-124.899" gradientUnits="userSpaceOnUse">
<stop stop-color="#202C32"/>
<stop offset="0.665" stop-color="#D7C796"/>
</linearGradient>
<linearGradient id="paint25_linear_267_2064" x1="216.945" y1="207.369" x2="214.184" y2="-124.899" gradientUnits="userSpaceOnUse">
<stop stop-color="#202C32"/>
<stop offset="0.665" stop-color="#D7C796"/>
</linearGradient>
<linearGradient id="paint26_linear_267_2064" x1="216.945" y1="207.369" x2="214.184" y2="-124.899" gradientUnits="userSpaceOnUse">
<stop stop-color="#202C32"/>
<stop offset="0.665" stop-color="#D7C796"/>
</linearGradient>
<linearGradient id="paint27_linear_267_2064" x1="216.945" y1="207.369" x2="214.184" y2="-124.899" gradientUnits="userSpaceOnUse">
<stop stop-color="#202C32"/>
<stop offset="0.665" stop-color="#D7C796"/>
</linearGradient>
<linearGradient id="paint28_linear_267_2064" x1="216.945" y1="207.369" x2="214.184" y2="-124.899" gradientUnits="userSpaceOnUse">
<stop stop-color="#202C32"/>
<stop offset="0.665" stop-color="#D7C796"/>
</linearGradient>
<linearGradient id="paint29_linear_267_2064" x1="216.945" y1="207.369" x2="214.184" y2="-124.899" gradientUnits="userSpaceOnUse">
<stop stop-color="#202C32"/>
<stop offset="0.665" stop-color="#D7C796"/>
</linearGradient>
<linearGradient id="paint30_linear_267_2064" x1="216.945" y1="207.369" x2="214.184" y2="-124.899" gradientUnits="userSpaceOnUse">
<stop stop-color="#202C32"/>
<stop offset="0.665" stop-color="#D7C796"/>
</linearGradient>
<linearGradient id="paint31_linear_267_2064" x1="216.945" y1="207.369" x2="214.184" y2="-124.899" gradientUnits="userSpaceOnUse">
<stop stop-color="#202C32"/>
<stop offset="0.665" stop-color="#D7C796"/>
</linearGradient>
<linearGradient id="paint32_linear_267_2064" x1="216.945" y1="207.369" x2="214.184" y2="-124.899" gradientUnits="userSpaceOnUse">
<stop stop-color="#202C32"/>
<stop offset="0.665" stop-color="#D7C796"/>
</linearGradient>
<linearGradient id="paint33_linear_267_2064" x1="216.945" y1="207.369" x2="214.184" y2="-124.899" gradientUnits="userSpaceOnUse">
<stop stop-color="#202C32"/>
<stop offset="0.665" stop-color="#D7C796"/>
</linearGradient>
<linearGradient id="paint34_linear_267_2064" x1="216.945" y1="207.369" x2="214.184" y2="-124.899" gradientUnits="userSpaceOnUse">
<stop stop-color="#202C32"/>
<stop offset="0.665" stop-color="#D7C796"/>
</linearGradient>
<linearGradient id="paint35_linear_267_2064" x1="216.945" y1="207.369" x2="214.184" y2="-124.899" gradientUnits="userSpaceOnUse">
<stop stop-color="#202C32"/>
<stop offset="0.665" stop-color="#D7C796"/>
</linearGradient>
<linearGradient id="paint36_linear_267_2064" x1="216.945" y1="207.369" x2="214.184" y2="-124.899" gradientUnits="userSpaceOnUse">
<stop stop-color="#202C32"/>
<stop offset="0.665" stop-color="#D7C796"/>
</linearGradient>
<linearGradient id="paint37_linear_267_2064" x1="216.945" y1="207.369" x2="214.184" y2="-124.899" gradientUnits="userSpaceOnUse">
<stop stop-color="#202C32"/>
<stop offset="0.665" stop-color="#D7C796"/>
</linearGradient>
<linearGradient id="paint38_linear_267_2064" x1="216.945" y1="207.369" x2="214.184" y2="-124.899" gradientUnits="userSpaceOnUse">
<stop stop-color="#202C32"/>
<stop offset="0.665" stop-color="#D7C796"/>
</linearGradient>
<linearGradient id="paint39_linear_267_2064" x1="216.945" y1="207.369" x2="214.184" y2="-124.899" gradientUnits="userSpaceOnUse">
<stop stop-color="#202C32"/>
<stop offset="0.665" stop-color="#D7C796"/>
</linearGradient>
<linearGradient id="paint40_linear_267_2064" x1="216.945" y1="207.369" x2="214.184" y2="-124.899" gradientUnits="userSpaceOnUse">
<stop stop-color="#202C32"/>
<stop offset="0.665" stop-color="#D7C796"/>
</linearGradient>
<linearGradient id="paint41_linear_267_2064" x1="216.945" y1="207.369" x2="214.184" y2="-124.899" gradientUnits="userSpaceOnUse">
<stop stop-color="#202C32"/>
<stop offset="0.665" stop-color="#D7C796"/>
</linearGradient>
<linearGradient id="paint42_linear_267_2064" x1="216.945" y1="207.369" x2="214.184" y2="-124.899" gradientUnits="userSpaceOnUse">
<stop stop-color="#202C32"/>
<stop offset="0.665" stop-color="#D7C796"/>
</linearGradient>
<linearGradient id="paint43_linear_267_2064" x1="216.945" y1="207.369" x2="214.184" y2="-124.899" gradientUnits="userSpaceOnUse">
<stop stop-color="#202C32"/>
<stop offset="0.665" stop-color="#D7C796"/>
</linearGradient>
<linearGradient id="paint44_linear_267_2064" x1="216.945" y1="207.369" x2="214.184" y2="-124.899" gradientUnits="userSpaceOnUse">
<stop stop-color="#202C32"/>
<stop offset="0.665" stop-color="#D7C796"/>
</linearGradient>
<linearGradient id="paint45_linear_267_2064" x1="216.945" y1="207.369" x2="214.184" y2="-124.899" gradientUnits="userSpaceOnUse">
<stop stop-color="#202C32"/>
<stop offset="0.665" stop-color="#D7C796"/>
</linearGradient>
<linearGradient id="paint46_linear_267_2064" x1="216.945" y1="207.369" x2="214.184" y2="-124.899" gradientUnits="userSpaceOnUse">
<stop stop-color="#202C32"/>
<stop offset="0.665" stop-color="#D7C796"/>
</linearGradient>
<linearGradient id="paint47_linear_267_2064" x1="216.945" y1="207.369" x2="214.184" y2="-124.899" gradientUnits="userSpaceOnUse">
<stop stop-color="#202C32"/>
<stop offset="0.665" stop-color="#D7C796"/>
</linearGradient>
<linearGradient id="paint48_linear_267_2064" x1="216.945" y1="207.369" x2="214.184" y2="-124.899" gradientUnits="userSpaceOnUse">
<stop stop-color="#202C32"/>
<stop offset="0.665" stop-color="#D7C796"/>
</linearGradient>
<linearGradient id="paint49_linear_267_2064" x1="216.945" y1="207.369" x2="214.184" y2="-124.899" gradientUnits="userSpaceOnUse">
<stop stop-color="#202C32"/>
<stop offset="0.665" stop-color="#D7C796"/>
</linearGradient>
<linearGradient id="paint50_linear_267_2064" x1="216.945" y1="207.369" x2="214.184" y2="-124.899" gradientUnits="userSpaceOnUse">
<stop stop-color="#202C32"/>
<stop offset="0.665" stop-color="#D7C796"/>
</linearGradient>
<linearGradient id="paint51_linear_267_2064" x1="216.945" y1="207.369" x2="214.184" y2="-124.899" gradientUnits="userSpaceOnUse">
<stop stop-color="#202C32"/>
<stop offset="0.665" stop-color="#D7C796"/>
</linearGradient>
<linearGradient id="paint52_linear_267_2064" x1="216.945" y1="207.369" x2="214.184" y2="-124.899" gradientUnits="userSpaceOnUse">
<stop stop-color="#202C32"/>
<stop offset="0.665" stop-color="#D7C796"/>
</linearGradient>
<linearGradient id="paint53_linear_267_2064" x1="216.945" y1="207.369" x2="214.184" y2="-124.899" gradientUnits="userSpaceOnUse">
<stop stop-color="#202C32"/>
<stop offset="0.665" stop-color="#D7C796"/>
</linearGradient>
<linearGradient id="paint54_linear_267_2064" x1="216.945" y1="207.369" x2="214.184" y2="-124.899" gradientUnits="userSpaceOnUse">
<stop stop-color="#202C32"/>
<stop offset="0.665" stop-color="#D7C796"/>
</linearGradient>
<linearGradient id="paint55_linear_267_2064" x1="216.945" y1="207.369" x2="214.184" y2="-124.899" gradientUnits="userSpaceOnUse">
<stop stop-color="#202C32"/>
<stop offset="0.665" stop-color="#D7C796"/>
</linearGradient>
<linearGradient id="paint56_linear_267_2064" x1="216.945" y1="207.369" x2="214.184" y2="-124.899" gradientUnits="userSpaceOnUse">
<stop stop-color="#202C32"/>
<stop offset="0.665" stop-color="#D7C796"/>
</linearGradient>
<linearGradient id="paint57_linear_267_2064" x1="216.945" y1="207.369" x2="214.184" y2="-124.899" gradientUnits="userSpaceOnUse">
<stop stop-color="#202C32"/>
<stop offset="0.665" stop-color="#D7C796"/>
</linearGradient>
<linearGradient id="paint58_linear_267_2064" x1="216.945" y1="207.369" x2="214.184" y2="-124.899" gradientUnits="userSpaceOnUse">
<stop stop-color="#202C32"/>
<stop offset="0.665" stop-color="#D7C796"/>
</linearGradient>
<linearGradient id="paint59_linear_267_2064" x1="216.945" y1="207.369" x2="214.184" y2="-124.899" gradientUnits="userSpaceOnUse">
<stop stop-color="#202C32"/>
<stop offset="0.665" stop-color="#D7C796"/>
</linearGradient>
<linearGradient id="paint60_linear_267_2064" x1="216.945" y1="207.369" x2="214.184" y2="-124.899" gradientUnits="userSpaceOnUse">
<stop stop-color="#202C32"/>
<stop offset="0.665" stop-color="#D7C796"/>
</linearGradient>
<linearGradient id="paint61_linear_267_2064" x1="216.945" y1="207.369" x2="214.184" y2="-124.899" gradientUnits="userSpaceOnUse">
<stop stop-color="#202C32"/>
<stop offset="0.665" stop-color="#D7C796"/>
</linearGradient>
<linearGradient id="paint62_linear_267_2064" x1="216.945" y1="207.369" x2="214.184" y2="-124.899" gradientUnits="userSpaceOnUse">
<stop stop-color="#202C32"/>
<stop offset="0.665" stop-color="#D7C796"/>
</linearGradient>
<linearGradient id="paint63_linear_267_2064" x1="216.945" y1="207.369" x2="214.184" y2="-124.899" gradientUnits="userSpaceOnUse">
<stop stop-color="#202C32"/>
<stop offset="0.665" stop-color="#D7C796"/>
</linearGradient>
<linearGradient id="paint64_linear_267_2064" x1="216.945" y1="207.369" x2="214.184" y2="-124.899" gradientUnits="userSpaceOnUse">
<stop stop-color="#202C32"/>
<stop offset="0.665" stop-color="#D7C796"/>
</linearGradient>
<linearGradient id="paint65_linear_267_2064" x1="216.945" y1="207.369" x2="214.184" y2="-124.899" gradientUnits="userSpaceOnUse">
<stop stop-color="#202C32"/>
<stop offset="0.665" stop-color="#D7C796"/>
</linearGradient>
<linearGradient id="paint66_linear_267_2064" x1="216.945" y1="207.369" x2="214.184" y2="-124.899" gradientUnits="userSpaceOnUse">
<stop stop-color="#202C32"/>
<stop offset="0.665" stop-color="#D7C796"/>
</linearGradient>
<linearGradient id="paint67_linear_267_2064" x1="216.945" y1="207.369" x2="214.184" y2="-124.899" gradientUnits="userSpaceOnUse">
<stop stop-color="#202C32"/>
<stop offset="0.665" stop-color="#D7C796"/>
</linearGradient>
<linearGradient id="paint68_linear_267_2064" x1="216.945" y1="207.369" x2="214.184" y2="-124.899" gradientUnits="userSpaceOnUse">
<stop stop-color="#202C32"/>
<stop offset="0.665" stop-color="#D7C796"/>
</linearGradient>
<linearGradient id="paint69_linear_267_2064" x1="216.945" y1="207.369" x2="214.184" y2="-124.899" gradientUnits="userSpaceOnUse">
<stop stop-color="#202C32"/>
<stop offset="0.665" stop-color="#D7C796"/>
</linearGradient>
<linearGradient id="paint70_linear_267_2064" x1="216.945" y1="207.369" x2="214.184" y2="-124.899" gradientUnits="userSpaceOnUse">
<stop stop-color="#202C32"/>
<stop offset="0.665" stop-color="#D7C796"/>
</linearGradient>
<linearGradient id="paint71_linear_267_2064" x1="216.945" y1="207.369" x2="214.184" y2="-124.899" gradientUnits="userSpaceOnUse">
<stop stop-color="#202C32"/>
<stop offset="0.665" stop-color="#D7C796"/>
</linearGradient>
<linearGradient id="paint72_linear_267_2064" x1="216.945" y1="207.369" x2="214.184" y2="-124.899" gradientUnits="userSpaceOnUse">
<stop stop-color="#202C32"/>
<stop offset="0.665" stop-color="#D7C796"/>
</linearGradient>
<linearGradient id="paint73_linear_267_2064" x1="216.945" y1="207.369" x2="214.184" y2="-124.899" gradientUnits="userSpaceOnUse">
<stop stop-color="#202C32"/>
<stop offset="0.665" stop-color="#D7C796"/>
</linearGradient>
<linearGradient id="paint74_linear_267_2064" x1="216.945" y1="207.369" x2="214.184" y2="-124.899" gradientUnits="userSpaceOnUse">
<stop stop-color="#202C32"/>
<stop offset="0.665" stop-color="#D7C796"/>
</linearGradient>
<linearGradient id="paint75_linear_267_2064" x1="216.945" y1="207.369" x2="214.184" y2="-124.899" gradientUnits="userSpaceOnUse">
<stop stop-color="#202C32"/>
<stop offset="0.665" stop-color="#D7C796"/>
</linearGradient>
<linearGradient id="paint76_linear_267_2064" x1="216.945" y1="207.369" x2="214.184" y2="-124.899" gradientUnits="userSpaceOnUse">
<stop stop-color="#202C32"/>
<stop offset="0.665" stop-color="#D7C796"/>
</linearGradient>
<linearGradient id="paint77_linear_267_2064" x1="216.945" y1="207.369" x2="214.184" y2="-124.899" gradientUnits="userSpaceOnUse">
<stop stop-color="#202C32"/>
<stop offset="0.665" stop-color="#D7C796"/>
</linearGradient>
<linearGradient id="paint78_linear_267_2064" x1="0" y1="90.5" x2="430" y2="90.5" gradientUnits="userSpaceOnUse">
<stop stop-color="#242725"/>
<stop offset="1" stop-color="#404546"/>
</linearGradient>
</defs>
</svg>
